<?xml version="1.0" encoding="UTF-8"?>
<svg id="Livello_2" data-name="Livello 2" xmlns="http://www.w3.org/2000/svg" viewBox="0 0 852 208.73">
  <defs>
    <style>
      .cls-1 {
        fill: #fff;
      }
    </style>
  </defs>
  <g id="Livello_1-2" data-name="Livello 1">
    <g>
      <g>
        <path class="cls-1" d="m0,208.73V0c284,0,568,0,852,0,0,69.49,0,138.99,0,208.48-283.97.58-568.01-.1-852,.25Zm447-10.96h0c13.96.01,27.91,0,41.87.03,1,0,1.75-.25,2.42-1,11.01-12.31,22.16-24.5,32.99-36.97,2.63-2.93,5.54-5.57,7.94-8.75,2.67-3.53,5.92-6.62,8.89-9.93,9.87-11.01,19.34-22.37,29.63-33,.69-.74,1.66-1.44,1.89-2.33.97-3.59,1.08-7.26.27-10.93-.05-1.05.44-2.11.41-3.15.02-14.87.03-29.75,0-44.62,0-1.1-.31-2.19-.43-3.29-.16-1.36.35-2.7.42-4.04.24-5.75-.08-11.49-.04-17.24.04-5.09.59-10.22-.44-15.29-.11-.56-.28-1.43-.64-1.57-.84-.33-1.71-.24-2.44.64-11.54,13.48-23.86,26.29-35.23,39.91-21.52,24.27-42.94,48.64-64.55,72.83-7.25,8.03-14.26,16.26-21.46,24.34-7.77,8.49-15.4,17.11-22.88,25.85-5.15,5.87-10.33,11.72-15.53,17.55-2.34,2.59-4.66,5.2-7.09,7.7-.62.64-.96,1.27-.54,1.93.75.98,1.89,1.51,3.16,1.32,13.79,0,27.58,0,41.37,0ZM59.5,94h.48c1.41,6.98,1.8,14.14,2.79,21.2.32,2.63.71,5.25.99,7.88.12,1.12,1.04,1.99,2.17,1.99,3,0,5.99-.08,8.99-.09.98,0,1.51-.58,1.69-1.35.09-.39-.54-.9-.61-1.38-.37-2.58-.18-5.21-1.03-7.78-.58-1.75-.28-3.68-.87-5.56-.69-2.18-.44-4.61-1.1-6.89-.56-1.95-.22-4.02-.9-6.07-.74-2.2-.47-4.68-1.14-7-.43-1.52-.14-3.24-.41-4.83-.43-2.48-1.12-4.91-1.59-7.38-.13-.69-.33-.92-1-.92-4.03.02-8.06,0-12.26,0-1.31,5.38-3.24,10.73-4.91,16.03-1.39,5.04-2.77,10.1-4.16,15.14h-.62c-.48-2.03-1.05-4.05-1.43-6.07-.86-2.23-2.02-4.38-2.53-6.68-.54-2.48-1.27-4.86-2.06-7.26-1.26-3.54-1.64-7.39-3.25-10.8-.11-.21-.52-.39-.79-.39-3.83-.04-7.66-.06-11.49-.03-.38,0-.76.31-.84.68-.45,2.15-.59,4.39-1.23,6.48-.95,3.05-.52,6.28-1.57,9.3-.62,1.79-.08,3.74-.88,5.64-.85,2.03-.22,4.44-1.06,6.65-1.42,4.25-.77,8.93-2.02,13.26-.51,1.59-.4,3.37-.82,4.99-.31,1.19.11,2.28,1.37,2.3,3.29.05,6.58.03,9.86,0,.29,0,.79-.28.82-.5.46-2.89.82-5.81,1.06-8.72.49-2.88,1.13-5.74,1.51-8.63.72-4.41.62-8.98,1.65-13.31,2.4,7.28,4.51,14.68,6.66,22.06.62,2.06,1.35,4.09,1.82,6.18.4,1.78,1.58,2.95,3.38,2.93,1.5-.02,3-.09,4.49-.04,1.37.05,2.48-.07,2.28-1.89.88-2.49,1.94-5.06,2.26-7.74,1.42-4.21,2.85-8.46,3.88-12.8.84-2.87,1.82-5.69,2.42-8.62Zm699.5,99.8c.22,1.19.49,2.04.51,2.9.04,1.28.7,1.81,1.85,1.88,24.9.27,49.82.02,74.73.06,1.37,0,2.77-.33,4.11-.68.4-.1.9-.76.93-1.2.18-2.86.3-5.72.33-8.58-.92-48.51-.34-97.11-.66-145.66-.02-10.66-.01-21.33-.13-31.99-.01-1.38-.69-2.75-1.07-4.18-2.05.95-3.35,2.1-4.51,3.88-5.4,5.77-10.63,11.68-15.72,17.72-6.95,7.56-13.63,15.35-20.25,23.2-7.4,8.47-15.02,16.73-22.3,25.3-5.55,6.5-11.32,12.82-17.15,19.08-.78.84-1.16,1.7-1.16,2.88.17,31.65.08,64.11.47,95.37Zm-434.5-102.45c1.55,2.25,2.44,4.59,3.9,6.86.69,1.12,1.71,2.02,2.49,3.09,4.99,7.1,10.39,13.91,15.39,20.98.94,1.55,2.12,2.61,4.1,2.54,3-.11,6-.11,9-.18,1.02-.03,1.84-.87,1.84-1.9,0-15.16.01-30.32,0-45.48,0-1-.81-1.82-1.81-1.83-3.37-.02-6.75.01-10.12-.03-.87-.01-1.19.27-1.17,1.15-.21,10.56.56,21.17.25,31.71l-.31.11c-1.67-2.07-2.36-4.79-3.92-6.93-5.77-8.32-12.12-16.22-18.22-24.3-.2-.26-.46-.54-.52-.84-.16-.74-.6-.85-1.27-.85-4.03.02-8.11-.05-12.14-.04v49.38c3.86,0,7.61-.02,11.36.01.86,0,1.17-.27,1.17-1.15.07-10.79-.46-21.52-.02-32.3Zm-186.56.23c.34.39.44.47.49.57,1.22,2.29,2.34,4.64,3.68,6.86,3.92,5.61,8.05,11.13,12.29,16.53,2.15,2.89,4.2,5.89,6.69,8.49.45.46,1.3.73,1.98.75,2.96.07,5.91.01,8.87.01,1.87,0,2,.46,2-2.04-.08-15.75.18-31.52-.06-47.26-3.66-.16-7.27.05-10.91-.13-1.27-.05-1.53.31-1.53,1.49.01,5.37-.15,10.74-.08,16.11.06,4.9.35,9.8.52,14.71,0,.21-.15.43-.23.64-.22-.13-.54-.2-.66-.4-.64-1-1.34-1.99-1.81-3.07-1.42-3.35-3.77-6.04-5.98-8.85-2.15-2.74-4.16-5.59-6.25-8.38-1.97-2.62-3.97-5.22-5.95-7.84-1.54-1.97-2.35-4.68-5.48-4.43-3.15.21-6.33.11-9.49,0-1.17-.04-1.4.4-1.39,1.42.05,7.91.09,15.83.1,23.74.02,7.41,0,14.83,0,22.24,0,1.75.26,2.01,2.04,2.01,2.83,0,5.67.03,8.5-.04,2.25-.05,2.5-.35,2.49-2.58-.05-9.74-.12-19.48-.17-29.23,0-.37.17-.73.32-1.36Zm103.82,99.42c3.14-.54,7.6-1.1,10.86-2.44,4.44-1.88,8.54-4.87,11.16-8.96.77-1.2,1.57-2.4,2.16-3.69.51-1.11.62-2.4,1.11-3.52.99-2.23,1.19-4.61,1.61-6.95.27-1.5-.44-2.86-.63-4.29-.23-1.73-.42-3.41-1.12-5.05-1.58-3.76-3.52-7.23-6.7-9.88-.99-.82-2.07-1.53-3.08-2.32-4.08-3.11-9.12-4.48-14.17-4.56-10.3-.91-19.41,4.38-24.76,13.06-1.72,3.15-2.8,6.85-3.37,10.38-.45,5.61,1.02,11.73,4.38,16.24,5.05,7.58,13.27,11.22,22.53,11.98Zm-60.35-19.94c3.67,0,7.22-.03,10.88,0,1.69.02,2.7.97,2.21,2.18-2.29,6.62-8.13,7.56-14.31,7.42-2.94.24-5.12-1.38-7.28-2.93-1.74-1.25-2.9-2.93-3.44-5.16-.65-2.73-1.74-5.36-1.38-8.24.15-1.17.66-2.31.74-3.49.16-2.36,1.23-4.24,2.76-5.92,1.22-1.34,2.31-2.75,4.14-3.48,1.9-.75,3.73-1.75,5.82-1.57,1.25.1,2.45.68,3.7.87,3.21.4,5.32,2.69,7.25,5.07,4.01-1.89,7.78-3.67,11.61-5.48-1.28-2.65-3.34-3.99-5.42-5.86-3.05-2.78-6.78-4.35-10.72-4.8-4.73-.54-9.5-.9-14.3.59-2.92.9-5.74,2.01-8.02,3.78-2.92,2.26-5.87,4.76-7.47,8.26-1.1,2.4-1.91,4.94-2.7,7.46-.3.95-.11,2.04-.22,3.07-.07.69-.46,1.37-.4,2.03.22,2.46.57,4.91.88,7.36.02.12.04.26.11.36,1.05,1.43.87,3.48,2.35,4.71,2.36,4.75,6.35,8.63,11.21,10.89.85.41,1.92.42,2.66.94,1.7,1.19,3.76,1.16,5.55,1.33,3.51.34,7.07.32,10.65-.31,3.53-.62,6.95-1.61,9.62-3.75,3.01-2.42,5.81-5.16,7.49-8.98,1.2-2.71,1.29-5.58,2.25-8.29.49-1.39.25-3.05.29-4.59.09-3.34.08-3.27-3.35-3.25-7.33.03-14.66-.02-21.99-.07-.79,0-1.18.19-1.18,1,0,2.9,0,5.81,0,8.86Zm61.63-95.62c-3.96,0-7.87-.05-11.78.03-1.12.02-1.44.92-1.44,1.96-.01,15.16-.04,30.33-.05,45.49,0,1.4.47,1.87,1.88,1.87,3.42.02,6.83-.01,10.25.04.92.01,1.29-.31,1.27-1.22-.05-1.83-.13-3.66-.07-5.49.13-3.97-.21-7.94.43-11.9.26-1.6,0-1.63,1.66-1.63,5,0,10,0,15,0,1.06,0,2.25-.2,1.67,1.55.18,1.38.47,2.82.5,4.23.02.85-.48,1.71-.45,2.55.17,3.74-.76,7.54.67,11.19.12.3.6.67.91.67,3.37,0,6.75-.04,10.12-.13,1.84-.05,2.08-.31,2.08-2.16.02-15.04.03-30.08.04-45.12,0-1.43-.51-1.92-1.97-1.93-3.33-.02-6.67.01-10-.1-.92-.03-1.17.26-1.23,1.07-.62,5.62-.81,11.25-.68,16.9,0,.7-.03,1.29-1.05,1.28-5.04-.05-10.08-.01-15.12-.04-1.06,0-2.56.41-2.02-1.63,0-.04,0-.09-.03-.12-1.02-1.15-.57-2.54-.58-3.83-.03-4.45-.01-8.9-.01-13.53Zm-155.04,64.84s0-.05,0-.08c-2.46,0-4.92-.02-7.37.02-.36,0-.93.25-1.05.53-1.75,4.33-3.65,8.68-4.77,13.21-.55,2.55-2.49,4.65-2.28,7.42,0,.1-.05.24-.13.31-1.14.95-1.01,2.49-1.7,3.69-.78,1.35-.94,3.06-1.38,4.61-1.89,2.78-1.71,6.26-3.58,9.11-.71,1.14-.77,2.69-1.16,4.04-.38,1.3-.81,2.59-1.24,3.87-.07.2-.2.36-.36.49-1.42,1.17.87,2.06,1.81,2.1,3,.04,6,0,9-.05,1.68-.03,2.13-.61,2.14-2.35.06-.91.57-1.79.88-2.66.18-.53.3-1.07.49-1.59.11-.3.45-.58.44-.85-.07-1.18.61-1.37,1.56-1.37,5.99.03,11.99.05,17.98.06.81,0,1.15.39,1.32,1.17.33,1.51.75,3,1.2,4.47.36,1.26.98,2.91,2.44,3.09,3.39.03,6.87.17,10.23-.05.41-.1,1.05-.74.99-1.02-.22-1.09-.67-2.13-1.05-3.18-2.45-6.81-4.68-13.7-7.37-20.42-1.11-3.89-2.28-7.77-3.87-11.5-1.56-3.98-2.67-8.12-4.26-12.08-.23-.76-.55-1.02-1.28-1.01-2.54.02-5.08,0-7.62,0Zm493.16-34.37c-.93.09-1.97.36-2.98.26-1.28-.12-1.73.36-1.74,1.55-.08,5.09-1.68,10.21.16,15.22.12.34.6.77.94.79,1.33.1,2.66.07,4,.07,43.99,0,87.97,0,131.96,0,5.33,0,10.66.06,15.99-.07,1.06-.03,2.25-.59,3.11-1.25.83-.64,1.28-1.76,1.98-2.61,1.91-2.33,3.87-4.62,5.81-6.93,1.14-1.36,2.43-2.62,3.37-4.11.44-.7.34-1.84.2-2.74-.03-.23-1.13-.4-1.74-.42-2.21-.07-4.41-.07-6.62-.07-51.47.07-103.03-.1-154.44.3Zm-465.97-30.51c-9.73,0-19.4.04-29.13-.03-1.25,0-1.52.35-1.52,1.53.04,14.87.02,29.75.03,44.62-.23,3.39-.26,3.41,3.18,3.25,8.62.02,17.25,0,25.87.05,1.23,0,1.63-.45,1.57-1.62-.08-3.03.01-5.95-.02-9.01-6.05-.08-11.51.32-17.45-.46,0-2.27,0-4.22,0-6.16-.2-2.46,1.77-2.61,3.75-2.66,3.79.03,7.58.05,11.37.14,1.04.02,1.38-.34,1.36-1.36-.06-2.21-.01-4.42-.02-6.62q0-2.36-2.31-2.36c-4.25,0-8.5-.02-12.75,0-.97,0-1.46-.26-1.42-1.35.08-1.96.08-3.92.06-5.87-.01-1.22.48-1.66,1.73-1.64,4.58.06,9.16.02,13.75.03q1.94,0,1.95-1.88c0-2.88,0-5.61,0-8.58Zm-50.55,64.79c-4.36,0-8.6,0-12.84,0-.9,0-1.47.49-1.76,1.32-2.52,7.26-5.24,14.56-7.6,21.83-1.39.92-.99,2.62-1.65,3.9-.83,1.61-.9,3.6-1.37,5.41-.09.33-.54.84-.75.81-.37-.06-.9-.41-1-.74-.53-1.63-.63-3.41-1.09-5.04-.83-2.11-1.78-4.18-2.58-6.31-2.57-7.13-4.94-13.95-7.59-21.17-3.91,0-7.99,0-12.06.01-.45,0-.93.11-1.33.3-.2.1-.4.69-.35.73,1.1.84.83,2.21,1.3,3.27,5.73,12.59,11.11,25.32,16.44,38.09.75,1.74,1.71,3.42,2.21,5.24.35,1.27.9,1.76,2.11,1.76,2.25-.02,4.5-.03,6.75-.05,1.46-.01,2.75-1.04,3.26-2.42,1.39-3.7,3.24-7.2,4.52-10.94,5.17-12.05,9.88-24.06,15.39-36Zm157.04-30.76c-.6.09-.58.07-.95.34-2.08,1.71-4.09,3.41-6.86,4.1-8.47,2.64-17.53-4.13-17.14-13.1.07-2.22.2-4.38.91-6.58.61-1.93,1.72-3.2,3.07-4.49,2.72-2.56,5.77-4.28,9.68-3.87,4.6-.25,7.94,2.54,11.15,5.51.19-.6.39-.94.39-1.27,0-3.79,0-7.57-.08-11.36-.04-1.62-.57-2.05-2.23-2.27-.45-.06-1.04-.04-1.3-.31-1.17-1.19-2.9-1.24-4.18-1.36-4.58-.44-9.23-1.06-13.78.69-2.6,1-5.17,1.92-7.2,3.91-1.54,1.52-3.09,3.03-4.62,4.56-.23.23-.51.49-.6.78-.59,1.93-2.09,3.33-2.78,5.3-.76,2.17-1.63,4.23-1.56,6.55.11,3.86-.72,7.79.9,11.56.6,1.4.69,3.07,1.44,4.36,1.06,1.81,2.35,3.56,3.84,5.03,2.03,1.99,4.3,3.76,6.57,5.48.81.61,1.94.81,2.94,1.17,4.04,2.07,8.51,1.5,12.89,1.61,2.87.03,5.47-1.41,8.17-2.22.73-.25,1.39-.54,1.4-1.51-.03-4.23.35-8.38-.05-12.61Zm428.33,21.05v-.05c-23.12,0-46.24,0-69.36,0-1.83,0-4.22-.09-4.02,2.42-.05,4.5-.04,9,.07,13.49.05,1.97.37,2.23,2.33,2.26,42.86.11,85.73.02,128.59.13.66,0,1.52-.29,1.93-.75,2.27-2.57,4.8-4.85,6.74-7.77,1.56-2.35,4.1-4.05,5.56-6.59.34-.6.79-1.36.68-1.95-.18-.93-1.02-1.21-2.03-1.21-23.5.03-46.99.02-70.49.02Zm-12,24.98h0c-20.24.15-40.5-.28-60.72.19-.9.06-1.52.49-1.52,1.47-.02,4.66-.05,9.32.04,13.98.4,1.83,2.67,1.68,4.18,1.67,34.61.03,69.23-.04,103.84,0,1.93.01,3.43-.49,4.67-2.03,1.95-2.43,4.01-4.77,6.03-7.15,1.29-1.52,2.7-2.94,3.85-4.56.46-.64.6-1.75.4-2.52-.12-.47-1.15-.98-1.8-1.01-19.65-.16-39.32,0-58.98-.05Zm-518.56-15.08c-.02,15.65-.06,31.3-.08,46.95,0,1.8.49,2.32,2.29,2.32,2.12,0,4.25-.05,6.37-.06,6.54-.02,13.08-.01,19.61-.04,1.82,0,2.12-.32,2.15-2.1.05-2.58.04-5.16.13-7.74.04-1-.3-1.3-1.28-1.29-4.5.03-8.99.02-13.49-.03-.8,0-1.69-.11-2.36-.49-.27-.16-.05-1.18-.05-1.81.05-11.57.11-23.15.13-34.72,0-.33-.49-.95-.76-.95-4.15-.06-8.3-.04-12.67-.04ZM331.55,30.05c-.12,5.03.37,6.18,2.35,10.31.7,1.45,1.68,2.9,2.87,3.97,5.55,5.27,13.2,7.09,20.28,4.11,4.02-1.51,6.99-4.46,9.24-8.17,1.46-2.41,1.83-5.11,2.38-7.72.77-3.71-.31-7.29-1.97-10.57-3.01-5.94-7.88-9.55-14.56-10.41-3.58-.46-7.09-.11-10.27,1.84-1.01.62-1.89,1.51-2.95,1.98-2.53,1.13-3.8,3.46-5.05,5.59-1.68,2.85-2.75,6.04-2.31,9.07Zm387.45,49.94h0c-8.21,0-16.41,0-24.62,0-6.21,0-12.41,0-18.62,0-1.3,0-2.37.29-3.31,1.35-3.33,3.77-6.75,7.45-10.14,11.16-1.22,1.23-2.71,2.4-2.68,4.3,0,.16,1.04.5,1.62.54,2.03.13,4.07.19,6.11.24,15.46.33,30.91-.31,46.38.41,12.01.56,24.07.1,36.11.15,1.28,0,2.3-.36,3.1-1.29,1.49-1.72,2.9-3.51,4.39-5.23,2.22-2.57,4.4-5.18,6.75-7.63,1.03-1.08.87-2.24.59-3.35-.09-.35-1.26-.45-1.94-.62-14.56-.12-29.16,0-43.73-.04Zm23-24.44v-.11c-14.46,0-28.91,0-43.37-.05-1.42,0-2.52.29-3.5,1.45-2.71,3.2-5.56,6.28-8.31,9.44-1.19,1.36-2.28,2.81-3.41,4.22-.76,1.12-.53,2.3.98,2.33,7.91.81,15.86-.51,23.76.75,21.45.08,42.91.15,64.36.29,1.42,0,2.37-.44,3.2-1.48,2.36-2.94,5.41-5.23,7.53-8.44,1.22-1.85,3.13-3.22,4.58-4.93.46-.54.71-1.62.49-2.25-.19-.55-1.16-1.06-1.84-1.14-14.81-.21-29.66,0-44.48-.07Zm45-50.14c0-.06,0-.12,0-.19-9.67,0-19.33-.02-29,0-5.29.01-10.58.08-15.87.2-1.55.15-2.27,1.87-3.16,2.94-3.23,3.67-6.48,7.33-9.77,10.95-.79.88-1,1.86-.68,2.87.35,1.1,1.54.71,2.38.87,29.04.03,58.08.98,87.15.8,1.52.01,2.6-.51,3.46-1.76.59-.86,1.17-1.71,1.85-2.5,2.96-3.46,5.76-7.09,8.89-10.41,1-1.06.78-2.16.58-3.21-.06-.3-1.35-.45-2.09-.52-14.57-.12-29.17,0-43.75-.04Zm-22,25.31c0-.09,0-.18,0-.27-14.29,0-28.58,0-42.86.03-.48,0-1.11.03-1.41.32-1.65,1.64-3.26,3.32-4.82,5.05-2.65,2.94-5.31,5.88-7.83,8.92-.46.56-.44,1.62-.39,2.43.62.92,2.42.81,3.5.84,17.46.34,34.92-.44,52.39.44,10.68.54,21.41.27,32.11.28,2.94.05,4.29-2.98,5.91-4.97,2.85-3.24,5.76-6.43,8.6-9.68.46-.57,1.02-1.88.32-2.39-.99-.39-2.01-.96-3.02-.97-14.16-.06-28.32-.04-42.49-.04ZM75.68,26c.08,0,.15,0,.23,0,0-3.96-.04-7.91.03-11.87.02-1.2-.4-1.42-1.78-1.3-2,.17-4.02.09-6.02-.07-1.24-.1-1.58.13-1.57,1.31.05,6.5.04,12.99,0,19.49,0,1.64.09,3.25-.68,4.87-.87,1.82-1.84,3.21-3.98,3.55-2.32.37-4.46-.05-6.48-1.19-.19-.11-.35-.37-.41-.59-.65-2.16-1.29-4.28-1.24-6.62.14-6.58.08-13.16.14-19.74,0-.86-.32-1.06-1.1-1.05-1.93.03-3.86-.03-5.8,0-1.32.01-2.38,1.09-2.38,2.41.03,7.58.09,15.15.21,22.73.02.98.67,1.96.66,2.94,0,1.8.86,3.23,1.82,4.53,3.77,5.21,10.6,5.01,16.37,4.74,2.78-.14,5.29-1.23,7.59-2.81,6.08-4.35,4.2-14.79,4.38-21.32Zm311.05,74s.03,0,.05,0c0-7.66-.02-15.33.02-22.99,0-1.06-.31-1.36-1.34-1.34-3.29.05-6.58.02-9.87.02-2.38,0-2.74.35-2.74,2.75-.01,14.91-.02,29.82-.02,44.73,0,1.36.48,1.86,1.89,1.86,3.25,0,6.5,0,9.75-.04,2-.03,2.26-.31,2.26-2.38,0-7.54,0-15.08,0-22.62Zm-99.73.03c0,7.83,0,15.65,0,23.48,0,.66-.14,1.33.95,1.3,3.52-.1,7.04-.09,10.57-.19,1.03-.03,1.85-.87,1.86-1.9.04-3.16.07-6.33.08-9.49.02-12.24.01-24.47.05-36.71,0-1.07-.37-1.18-1.85-1.03-3.17.32-6.36.33-9.52-.05-1.82-.22-2.17.09-2.16,1.37.04,7.74.02,15.48.02,23.23Zm326-52.11v-.03c10.16,0,20.32,0,30.48,0,1.37,0,2.75-.02,4.12-.09,1.15-.06,1.85-.63,1.84-1.89,0-4.54.05-9.08-.03-13.62,0-.55-.55-1.38-1.05-1.59-1.17-.48-2.46-.92-3.7-.92-19.82-.05-39.65-.04-59.47-.02-.42,0-.84.3-1.27.43-.18.06-.46.15-.57.07-1.24-.94-2.66-.48-3.99-.49-2.18,0-3.07.94-3.07,3.05,0,3.96.02,7.91.03,11.87,0,2.72.5,3.22,3.18,3.22,11.16,0,22.32,0,33.48,0Zm-452.04-6.73c-3.35,0-6.48.06-9.8.04-3.1.19-2.11-2.78-2.22-4.81.02-1.74.06-1.82,1.82-1.85,2.33-.04,4.65-.02,6.98-.02,3.99.24,2.78-3.58,2.97-6.2.01-1.15-.61-1.66-1.7-1.68-1.46-.03-2.92-.05-4.37-.06-1.46,0-2.91.02-4.37.02-.94,0-1.45-.37-1.39-1.42.08-1.37.07-2.75.06-4.12,0-.64.16-1.01.9-1.02,3.29-.15,6.57-.14,9.85-.05.43-.01,1.21-.42,1.22-.67.1-2.27.06-4.54.06-6.86-6.34-.17-12.64-.03-18.98-.09-1.79,0-2.22.39-2.22,2.17,0,10.79,0,21.57,0,32.36,0,1.54.45,2.01,2,2.01,1.46,0,2.91-.08,4.37-.09,4.5-.02,9,0,13.5-.02.55,0,1.29.17,1.3-.74.03-2.24,0-4.48,0-6.9Zm452.04,14.49v-.02c-10.33,0-20.66,0-30.98,0-1.49,0-5.75-.17-5.7,1.89.03,4,0,7.99.02,11.99.01,4.09.19,4.27,4.29,4.26,19.32-.38,38.74.47,58.01-.65,2.59.08,5.2.45,7.78.31.76-.04,2.26-.22,2.3-1.44.15-4.51.22-9.03.15-13.54-.03-1.56-1.31-2.81-2.88-2.81-10.99,0-21.99,0-32.98,0Zm0-33.05v.03c11.24.01,22.48,0,33.73-.06,1.55,0,2.92-.93,2.93-2.01.03-5,.03-9.99.01-14.99,0-.3-.09-.8-.28-.88-.97-.4-1.99-.99-2.98-.98-22.56.96-45.17.43-67.76.92-1.72.02-2.12.44-2.12,2.19-.02,4.2.02,8.41.03,12.61,0,2.11,1.08,3.18,3.22,3.18,11.08,0,22.15,0,33.23,0Zm-1,57.84v-.07c-11.33,0-22.66,0-33.99,0-1,0-1.81.81-1.8,1.81.02,4.83.12,9.65.15,14.48,0,.81.33,1.11,1.12,1.11,8.82.14,17.65.21,26.47.21,14.29-.04,28.57-.13,42.86-.21,1.63,0,1.74-.09,1.76-1.68.05-4.33.08-8.66.05-12.98-.02-2.25-.5-2.67-2.74-2.67-11.29,0-22.58,0-33.87,0ZM84.9,38.34c-1.11,1-1.76,2.86-2.67,4.08-1.08,1.47-.93,3.13.55,4.07,6.05,4.02,11.17,4.39,17.88,1.63,2.61-.95,3.48-3.63,4.9-5.64.9-1.29.95-3.27,1.08-4.97.08-1.09-.6-2.22-.57-3.33.06-3.22-2.75-5.27-5.24-6.63-1.5-.77-3.71-.64-4.9-1.67-.27-.17-.57-.43-.85-.42-1.77.07-2.69-1.19-3.59-2.36-.31-.41-.42-1.25-.22-1.74,1.44-3.72,6.4-2.94,9.05-1.04,2.9,1.85,2.71-2.75,3.92-4.37.55-1.07.48-1.77-.59-2.27-2.36-1.1-4.78-2.06-7.43-2.2-2.49-.13-4.98-.22-7.25,1.1-.89.52-1.93.89-2.63,1.6-1.28,1.29-2.89,2.46-2.84,4.61-1.39,3.01-1.41,6.15.15,9.05,2.04,3.9,6.19,4.62,9.84,5.9,1.46.51,2.64,1.16,3.58,2.27,1.5,1.76.82,4.62-1.05,5.75-4.12,2.34-7.51-1.56-11.11-3.43Zm197.68-8.88c-1.09,7.93,2.52,14.41,9.07,18.29,3.33,2.09,7.11,2.38,10.95,1.97,1.9-.24,3.57-1.36,5.41-1.83.76-.22.99-.5.97-1.26-.19-2.71.3-5.5-.32-8.15-.47.19-1.01.3-1.41.59-.89.65-1.57,1.67-2.9,1.43-.1-.02-.28.07-.32.15-.5.97-1.39.73-2.2.73-4.13.33-8.86-2.62-9.78-6.6-.77-3.17-1.09-6.66.73-9.72,1.57-2.64,3.72-4.71,6.96-5.13,3.02-.4,5.63.53,7.83,2.67.26.25.7.32,1.06.48.12-.33.36-.66.36-.99.01-2.5.04-5-.08-7.49-.03-.55-.48-1.36-.95-1.55-1.39-.59-2.86-1.17-4.35-1.32-3.16-.32-6.37-.72-9.42.71-1.16.54-2.5.8-3.49,1.55-3.71,2.95-7.25,6.82-8.06,11.65-.24,1.42-.05,2.91-.05,3.82Zm-24.44,5.31c.39-.77.71-1.37.99-1.98.64-1.4.37-2.78.1-4.24-.34-1.85-.22-1.88-2.08-1.89-2.42-.02-4.83,0-7.25-.02-1.88-.01-2.12-.28-2.06-2.19.03-.96.16-1.93.07-2.87-.14-1.31.44-1.68,1.63-1.66,2.54.05,5.08-.02,7.62.09,3.01.13,3.01.19,3-2.74-.06-1.6.12-3.24-.18-4.82-6.73-.13-13.46.03-20.2-.06-1.1,0-1.08.56-1.08,1.33.02,6.83.04,13.66.04,20.49,0,4.12-.01,8.25-.1,12.37-.03,1.62.39,2.28,2,2.3,2,.03,4-.08,6-.05.98.02,1.3-.32,1.28-1.31-.05-3.83.02-7.67-.03-11.5-.02-1.14.34-1.59,1.5-1.53,1.38.04,2.78-.22,4.17-.19.72.02,1.64.38,2.12.06.91-.6,1.51-.43,2.45.4Zm-229.67.46c.69-.78,1.41-1.07,2.28-.3,1.16.32,2.92-.16,4.21-.01,1.09.05,2.09.25,2.96-.75.81-.94.76-1.97.73-3.05.13-1.29-.29-2.68-.96-3.74-.24-.33-1.15-.2-1.76-.21-2.37-.03-4.75-.02-7.12-.05-1.84-.02-2.02-.21-2.01-1.99.01-1.21.03-2.42.03-3.62,0-.72.34-1.08,1.06-1.08,3.33,0,6.66,0,9.99-.06.36,0,1.01-.35,1.02-.55.07-2.27.05-4.54.05-6.82h-21.19c0,11.79-.02,23.55-.06,35.34,0,.83.35.99,1.05.98,2.33-.02,4.67-.02,7,0,.78,0,1.11-.26,1.11-1.1-.02-3.96,0-7.91.06-11.87,0-.6.32-1.19.54-1.97.49.42.72.62,1.01.86Zm89.53-.24s-.02,0-.03,0c0,4.29.02,8.58-.02,12.87,0,.62.49,1.1,1.11,1.09,2.35-.05,4.71-.05,7.07-.06.73,0,1.15-.21,1.14-1.08-.04-8.54-.03-17.07-.07-25.61,0-1,.34-1.31,1.3-1.31,8.29-.24,6.29.72,6.84-7.06.07-.98-.23-1.31-1.24-1.3-7.75.02-15.49,0-23.24-.06-.73,0-.84.3-.84.88,0,1.92-.02,3.83,0,5.75.01,1.01.85,1.82,1.86,1.82,1.5,0,2.99-.04,4.49-.02,1.61.02,1.64.07,1.64,1.73,0,4.12,0,8.25,0,12.37Zm85.89,5.49c0-8.92,0-17.74.06-26.65,0-1.04-.19-1.49-1.35-1.45-2.29.08-4.58.07-6.87-.05-.92-.05-1.16.18-1.15,1.05,0,11.49,0,22.98-.04,34.48,0,.71.26.96.94.96,6.45-.01,12.91-.01,19.36,0,.82,0,1.08-.36,1.06-1.15-.06-1.7-.07-3.41-.06-5.12,0-1.43-.39-1.88-1.82-1.9-3.42-.08-6.7.05-10.13-.17Zm-35.5,8.33c6.72,0,13.22.01,19.72-.01,1.17,0,1.53-.85,1.55-1.86.03-1.42,0-2.83.01-4.25,0-1.68-.34-2.04-2.05-2.05-2.71-.02-5.42.02-8.12-.04-2.09-.04-2.69-.81-2.49-2.87.41-8.54.07-16.94.19-25.52-2.77,0-5.38-.02-7.99.03-.22,0-.58.44-.62.71-.65,11.95-.09,23.87-.2,35.85Zm97.46-17.83h0c0,5.41,0,10.82,0,16.24,0,1.48.46,1.97,1.91,1.98,1.96.01,3.91.01,5.87-.02,1.59-.02,2.04-.51,2.04-2.13,0-9.2.01-18.41.02-27.61,0-1.54,0-3.08-.01-4.62-.02-1.51-.53-2.05-2-2.06-1.87-.01-3.75-.01-5.62,0-1.76.01-2.19.44-2.2,2.23-.01,5.33,0,10.66,0,15.99Zm-44.85,17.81c2.71,0,5.33.05,7.94-.05.41-.01.95-.59,1.17-1.04.22-.45.16-1.05.16-1.59,0-10.7.02-21.4.01-32.1-.02-.87-.39-1.58-1.35-1.6-2.61-.04-5.22-.02-7.93-.02v36.39Zm94.38,0c2.6,0,5.13.03,7.66-.02.98-.02,1.64-.52,1.64-1.63,0-10.99,0-21.99,0-32.98,0-1.21-.56-1.73-1.75-1.75-2-.03-4-.03-6-.06-1.6-.02-1.61-.03-1.61,1.55.04,11.63-.09,23.28.05,34.9Zm-3.25,122.89c.55-1.08,1.16-2.25,1.74-3.44.07-.14-.02-.44-.14-.55-1.34-1.55-3.98-1.72-5.93-2.11-1.92-.27-3.86-.14-5.57.87-1.12.66-2.73.91-2.83,2.69,0,.13-.34.22-.47.37-.33.37-.81.72-.91,1.15-1.26,4.75,1.73,8.52,6.47,9.17,1.26.25,2.48.76,3.71,1.18.13.05.25.21.32.35,1.13,2.15-.43,5.05-2.74,4.71-1.57-.23-3.39-.29-4.6-1.83-.43-.55-1.33-.75-1.79-.99-1.04,1.5-1.88,2.69-2.81,4.03.49.45.93,1.06,1.52,1.37,2.78,1.45,5.68,2.58,8.91,2.12,2.97-.42,5.6-1.5,7.23-4.25,1.26-2.12.94-4.43.61-6.67-.48-2.14-2.78-3.33-4.65-4.15-1.54-.46-3.12-.8-4.62-1.35-1.37-.5-2.21-2.54-1.32-3.15,2.8-2.12,4.99-.67,7.9.47Zm42.46,5.3s-.01,0-.02,0c0,3.83.03,7.66-.02,11.49-.01,1.03.42,1.31,1.43,1.26,1.14-.06,2.29-.04,3.43.02,1,.05,1.3-.37,1.3-1.3-.02-7.5,0-14.99,0-22.49,0-1.09-.57-1.6-1.59-1.65-1.08-.05-2.17.04-3.24-.08-1.03-.11-1.31.29-1.3,1.25.03,3.83.01,7.66.01,11.49Zm-18.36-.05c-.13-.95-.29-1.52-.26-2.07.07-1.03-.42-1.3-1.34-1.26-1,.04-2,.07-3,0-1.07-.07-1.34.41-1.33,1.4.04,5.03,0,10,.01,15.04,1.52,0,2.89-.02,4.25,0,1.06.02,1.41-.42,1.44-1.49.06-2.54-.45-5.11.7-7.59.49-1.06,1.01-1.89,2.15-2.21,1.15-.32,2.3-.63,3.46-.91,1.83-.19,2.16-4.74-.43-4.41-1.89.17-3.68.56-4.6,2.55-.13.29-.51.47-1.07.94Zm32.85,7.64c-1.68-.03-3.3,1.42-3.35,2.99-.05,1.53,1.7,3.18,3.37,3.19,3.94.15,4.34-6.42-.02-6.18Zm-44.01,2.96c-.13-.58-.08-1.4-.44-1.7-.74-.62-1.66-1.19-2.58-1.36-1.4-.26-3.49,1.78-3.49,3.13,0,1.33,1.99,3.17,3.39,3.14,1.6-.03,2.99-1.51,3.12-3.21Zm23.97.19c.06-2.16-.74-3.08-2.76-3.14-1.73-.06-3.46,1.33-3.53,2.83-.07,1.55,1.54,3.2,3.16,3.24,2.18.05,3.07-.78,3.13-2.92Z"/>
        <path d="m447.17,197.6c-13.79,0-27.58,0-41.37,0-1.29.2-2.42-.34-3.16-1.32-.42-.66-.08-1.28.54-1.93,2.43-2.5,4.76-5.1,7.09-7.7,9.14-10.17,18.08-20.51,27.06-30.82,11.11-12.15,21.86-24.62,32.81-36.91,21.62-24.19,43.03-48.56,64.55-72.83,6.46-7.8,13.28-15.28,20.1-22.78,5.67-6.54,11.77-13.28,16.26-17.89,0,0,1.12-.32,1.59-.2,1.28.34,1.07,4.75,1.07,4.75-.26,12.03-.45,14.21-.23,29.67.03,11.79,0,50.15,0,51.94,0,.91.53,11.94-.68,14.08-.61,1.47-1.61,2.32-1.93,2.59-3.34,2.9-14.49,15.53-14.49,15.53-2.34,2.76-11.35,13.07-15.1,17.2-2.97,3.31-6.22,6.4-8.89,9.93-2.4,3.18-5.31,5.82-7.94,8.75-2.69,2.99-5.26,6.09-7.93,9.09-8.4,9.24-16.69,18.6-25.06,27.87-.49.72-1.97,1.11-2.42,1-1.12-.04-18.26-.03-41.87-.03ZM569.56,12.69c-.18-.1-.36-.19-.54-.29-11.34,12.96-22.75,25.86-34.17,38.75-2.23,2.55-4.85,4.69-6.8,7.57-2.01,2.96-4.71,5.45-7.12,8.13-2.97,3.31-5.95,6.6-8.9,9.93-4.91,5.63-9.83,11.26-14.83,16.8-7.57,8.31-14.88,16.85-22.28,25.31-2.96,3.32-6.03,6.54-8.93,9.91-2.33,2.7-5.07,5-7.07,8.03-1.59,2.41-3.74,4.44-5.6,6.67-3.02,3.62-6.73,6.57-9.5,10.47-2.19,3.09-5.01,5.75-7.56,8.59-2.72,3.04-5.45,6.07-8.16,9.11-6.03,6.87-12.15,13.64-18.24,20.45-.34.39-.43,1-.64,1.5.53.21,1.07.61,1.6.61,25.67.04,51.33.05,77,.01.65,0,1.46-.38,1.91-.85,10.23-11.01,19.76-22.66,30.23-33.44,3.24-3.66,6.33-7.45,9.56-11.11,3.17-3.59,6.66-6.9,9.63-10.69,3.65-4.51,8.82-9.87,14.59-16.54,13.91-15.74,8.11-8.78,15.46-17.02,1.2-4.93.02-38.06.36-91.9Z"/>
        <path d="m59.62,93.6c-2.24,7.11-4.08,14.77-6.59,21.83-.24.97-.22,1.21-.47,2.54-.25,1.36-.4,1.23-.91,3.21-.59,2.3-.51,2.93-1.18,3.45-.39.3-1.13.6-2.84.38-1.06-.14-2.14-.04-3.21.08-2.05.23-3.39-.99-3.82-2.91-.47-2.09-1.2-4.13-1.82-6.19-1.1-3.78-2.24-7.55-3.28-11.35-1.3-4.11-2.45-7.23-3.46-11.32-.91,5.51-1.07,9.43-1.58,13.92-.07.64-1.82,11.95-1.71,11,.21-.92-.76,5.73-.86,6.37-.03.21-.54.49-.82.5-3.29.03-6.58.05-9.87,0-1.26-.02-1.68-1.11-1.37-2.31.11-.44,1.03-6.47.82-5h0c.15-1.32,4.64-31.47,6.76-41.32h0s.78-.73.85-.73c3.83-.04,7.66-.01,11.5.03.03,0,.79.39.79.39h0s9.28,30.84,9.28,30.84h.61c3.19-10.09,6.28-20.69,9.07-31.2,4.21,0,8.24,0,12.27,0,.69-.07,1,.49,1,.92,1.23,5.25.83,3.73,2.01,12.22.52,3.81.63,3.22,1.14,7.01.77,6.33.55,6.04,2.01,12.97.49,2.55,1.87,11.51,2.52,14.74.85,1.57-.42,1.46-1.7,1.35-2.74-.28-6.96.09-9.12.09-1.56,0-1.88-.46-2.05-2.02-.28-2.62-.67-5.24-.99-7.86-.48-3.95-.94-7.9-1.42-11.85-.48-3.13-.54-6.82-1.57-9.77Z"/>
        <path d="m758.69,188.48c-.41-27.25-.06-62.02-.33-90.22,0-1.18.38-2.04,1.16-2.88,3.42-3.68,6.83-7.38,10.19-11.12,9.68-11.15,19.44-22.23,29.25-33.26,6.61-7.86,13.3-15.64,20.25-23.2,2.72-3.13,6.69-7.93,9.25-10.67,4.08-4.33,6.49-7.33,10.99-11.59,1.5-.14,1.01,2.03,1.06,4.83.12,7.02.05,30.94.13,31.99.05,4.61.39,138.63.78,152.33,0,0-.32,2.15-1.22,3.11-.52.66-3.88.67-7.3.71-4.2.05-4.74.04-6.85.04-10.41.59-57.12.18-43.65.25-.47-.14-20.62-.11-22.08-.59-.67-.25-1.24-1.21-1.3-1.64-.36-1.2-.52-4.18-.32-8.09Z"/>
        <path d="m324.51,91.18c-.45,10.78.08,21.51.02,32.3,0,.88-.31,1.16-1.17,1.15-3.75-.03-7.49-.01-11.36-.01v-49.38c2.22.25,11.7-1.07,13.22.42.02.04.07.22.19.46,6.09,8.51,12.84,16.49,18.74,25.14,1.56,2.14,2.25,4.87,3.92,6.93l.31-.11c.31-10.54-.46-21.15-.25-31.71-.01-1.03.43-1.24,1.71-1.11,3.07.31,6.16.19,9.24,0,1.53-.09,2.16.43,2.16,1.82,0,15.16,0,30.32,0,45.48,0,1.02-.81,1.87-1.84,1.9-3,.08-6,.07-9,.18-3.04.2-3.99-2.67-5.56-4.64-5.57-7.24-10.78-14.82-16.42-21.96-1.46-2.27-2.35-4.6-3.9-6.86Z"/>
        <path d="m137.76,91.41c-.15.63-.32.99-.32,1.36.05,9.74.12,19.48.17,29.23.01,2.22-.24,2.52-2.49,2.58-2.83.07-5.66.05-8.5.04-1.78,0-2.04-.26-2.04-2.01,0-15.33,0-30.66-.11-45.98,0-1.02.22-1.45,1.39-1.42,3.16.1,6.34.2,9.49,0,2.25-.15,3.3,1.09,4.29,2.69,4.34,6.06,8.95,11.96,13.39,17.95,2.21,2.81,4.56,5.5,5.98,8.85.46,1.08,1.17,2.07,1.81,3.07.12.19.43.27.66.4.08-.21.24-.43.23-.64-.17-4.9-.46-9.8-.52-14.71-.07-5.37.09-10.74.08-16.11,0-1.18.26-1.55,1.53-1.49,3.65.18,7.26-.03,10.91.13.24,15.74-.02,31.51.06,47.26,0,2.51-.13,2.04-2,2.04-2.96,0-5.92.06-8.87-.01-.68-.02-1.53-.28-1.98-.75-2.5-2.6-4.55-5.6-6.69-8.49-4.24-5.39-8.37-10.91-12.29-16.53-1.34-2.22-2.46-4.57-3.68-6.86-.06-.1-.15-.18-.49-.57Z"/>
        <path d="m241.58,190.83c-18.79.18-34.06-20.63-23.55-38.61,6.54-11.33,23.66-18.67,38.93-8.5,1.03.72,11.71,8.45,11.52,21.55-.94,17.57-15.21,25.11-26.9,25.56Zm-13.7-25.94c-.11,3.12.9,5.92,2.41,8.6,3.27,5.85,10.48,7.18,16.47,5.14,1.44-.54,2.25-1.86,3.83-2.23.88-.21,1.45-1.89,2.07-2.96.59-1.02,1.48-2.11,1.5-3.18.06-2.37,1.39-4.51.62-7.12-.67-2.28-.91-4.68-2.18-6.8-1.86-3.09-4.32-5.3-8.03-5.82-.41-.06-.89-.06-1.19-.29-.95-.72-1.95-.58-2.98-.34-2.14.44-4.48,1.01-6.26,2.27-4.03,3.25-6.17,7.51-6.26,12.73Z"/>
        <path d="m181.23,170.89c0-3.06,0-5.96,0-8.86,0-.81.38-1,1.18-1,7.33.06,14.66.1,21.99.07,1.74,0,2.6-.03,3.01.39.73.74.49,2.05.33,2.86-1.18,6.2-2.55,12.87-2.55,12.87-2.83,6.48-9.61,11.75-17.11,12.73-3.73.84-12.97,1.1-18.86-1.96-6.17-2.96-9.33-7.83-10.88-10.23-.84-1.29-1.89-2.94-2.68-5.38-1.07-3.31-1.03-6.13-.99-7.72.07-3.42.96-7.64,3.32-12.56,1.6-3.5,4.56-6,7.47-8.26,6.29-4.67,14.83-5.51,22.33-4.36,3.95.45,7.67,2.02,10.72,4.8,2.07,1.88,4.14,3.21,5.42,5.86-3.83,1.81-7.59,3.58-11.61,5.48-2.51-3.78-8.59-8.15-16.77-4.36-2,1.05-3.18,2.38-4.14,3.48-1.25,1.44-4.18,4.8-4.54,9.79-.34,4.65,1.62,9.77,5.85,13.01,5.37,4.12,11.43,2.93,12.63,2.69,2.91-.45,7.69-2.54,8.96-7.18.97-2.4-.25-2.39-2.21-2.18-3.64.33-7.2-.08-10.88,0Z"/>
        <path d="m242.86,75.27c-.14,17.65,0,19.24.28,19.39,1.19-.02,17.51-.07,18.03.02-.03,0,.31.07.34.06.34-.09.15-1.59.15-1.59-.05-.38-.04-2.45-.01-6.59,0-1.66.07-1.27.05-2.29-.04-1.99-.34-6.56.21-8.05.08-.21.2-.42.4-.58.47-.35,1.12-.21,1.32-.17.44.08,3.6-.01,9.94-.2.32,0,1.07-.03,1.55.45.3.3.42.78.42,1.48,0,15.04-.02,30.08-.04,45.12,0,1.84-.24,2.11-2.08,2.16-3.37.08-6.75.13-10.12.13-.31,0-.62-.32-.91-.67-.67-.81-.56-1.9-.53-2.26.28-3.61-.18-16.96-.18-16.96-4.46-1.15-12.91,0-16.67-.29-.66-.11-1.7.08-1.69,1.09-.41,7.52-.61,11.28-.39,12.44.33,1.8.02,3.66.07,5.49.02.91-.35,1.23-1.27,1.22-3.42-.05-6.83-.01-10.25-.04-1.41,0-1.88-.47-1.88-1.87.01-15.16.04-30.33.05-45.49,0-1.04.32-1.94,1.44-1.96,3.91-.07,7.81-.03,11.78-.03Z"/>
        <path d="m87.82,140.11c2.54-.04,5.08.01,7.62,0,.73,0,1.05.26,1.28,1.01,1.44,3.49,2.96,8.89,4.26,12.08,2.27,5.67,5.28,15.64,8.69,24.74,1.2,3.44,2.59,6.87,3.6,10.36-.31,1.39-2.22,1.11-3.35,1.11-2.62,0-5.25.06-7.87-.03-1.45-.18-2.08-1.83-2.44-3.09-.45-1.48-.87-2.97-1.2-4.47-.17-.78-.51-1.17-1.32-1.17-5.99-.01-11.99-.03-17.98-.06-.45,0-1.75.48-1.31.36,0,0-1.07,2.12-1.96,4.2-1.24,2.93-1.29,3.84-2.25,4.26-.47.2-.65.07-2.23,0-1.83-.08-2.05.08-3.83.07-2.85-.02-4.28-.03-4.72-.66-.28-.39,2.19-7.34,1.58-5.82.92-3,3.37-10.53,6.12-17.76,4-10.81,3.93-10.8,6.01-17.35,1.11-2.55,2.22-5.1,3.32-7.65,2.44-.31,5.69-.14,7.97-.1Zm.18,31.19s0-.05,0-.07c1.79,0,3.58-.04,5.37.02.97.03,1.33-.39,1.14-1.26-.68-3.56-1.75-7-3.05-10.37-.99-3.24-1.75-6.55-2.75-9.79-.13-.44-.52-.8-.79-1.2-.3.38-.74.72-.86,1.15-1.57,5.7-3.03,11.43-4.81,17.07-.24,1.39-2.14,4.54.51,4.48,1.75-.05,3.49-.01,5.24-.01Z"/>
        <path d="m578.56,105.87c45.43.2,31.16-.63,163.49-.35-.79.08,1.89-.19,2.32.48.58,1.36-1.18,3.36-1.59,3.81-.87.98-1.73,1.98-2.57,2.99-1.94,2.31-3.89,4.6-5.81,6.93-.7.85-1.14,1.97-1.98,2.61-.86.66-2.05,1.22-3.11,1.25-23.94.27-133.32-.34-147.95.08-.8.04-3.32.23-4.59-1.3-.53-.64-.63-1.4-.82-2.89-.27-2.2.04-2.73.03-6.08,0-1.33.08-2.67.03-4-.05-1.26-.13-2.03.37-2.65.58-.72,1.58-.84,2.16-.86Zm75.9,14.37c13.87,0,27.74,0,41.61,0,10.54,0,21.08.03,31.61,0,.64,0,1.45-.19,1.89-.6,2.82-2.66,5.36-5.63,7.68-8.74.3-.4.37-1.12.25-1.62-.05-.23-.81-.36-1.27-.42-.83-.09-1.66-.13-2.49-.13-19.45.02-38.9-.17-58.35.14-21,.31-41.99.88-63,.54-10.08,0-20.16.03-30.24.05-2.43,0-2.58.14-2.59,2.62,0,2.04.03,4.08.03,6.12,0,1.98.04,2.02,2.03,2.02,24.28,0,48.57,0,72.85,0Z"/>
        <path d="m115.02,75.24c0,2.97,0,5.69,0,8.58q0,1.88-1.95,1.88c-4.58,0-9.17.03-13.75-.03-1.25-.02-1.74.43-1.73,1.64.02,1.96.02,3.92-.06,5.87-.04,1.09.45,1.35,1.42,1.35,4.25-.02,8.5,0,12.75,0q2.3,0,2.31,2.36c0,2.21-.04,4.42.02,6.62.03,1.02-.31,1.39-1.36,1.36-3.79-.09-7.58-.11-11.37-.14-1.98.06-3.94.19-3.75,2.66,0,1.95,0,3.9,0,6.16,5.93.78,11.4.37,17.45.46.03,3.07-.06,5.99.02,9.01.05,1.17-.35,1.63-1.57,1.62-8.62-.05-17.25-.03-25.87-.05-3.39.14-3.43.2-3.18-3.25,0-14.87,0-29.75-.03-44.62,0-1.18.27-1.53,1.52-1.53,9.72.06,19.4.03,29.13.03Z"/>
        <path d="m64.46,140.03c-5.51,11.93-10.23,23.95-15.39,36-1.28,3.74-3.13,7.24-4.52,10.94-.51,1.38-1.79,2.41-3.26,2.42-2.25.02-4.5.03-6.75.05-1.2,0-1.76-.49-2.11-1.76-.5-1.81-1.47-3.49-2.21-5.24-.03-.07-1.29-3.06-3.83-9.03-5.18-12.21-7.78-18.31-8.02-18.75-2.03-3.72-2.84-8.04-4.94-11.72-.55-.93-1.69-3.2.73-2.89,4.08-.02,8.15-.01,12.06-.01,2.57,6.98,5.15,14.38,7.59,21.17,1.33,4.05,2.21,9.27,3.66,11.35.13.19.58.68,1,.74.4.06.77-.83.75-.81,1.93-6.73,7.61-22.62,10.62-31.14.29-.84.86-1.32,1.76-1.32,4.24,0,8.48,0,12.84,0Z"/>
        <path d="m221.5,109.27c.05,6.8.06,11.76.05,12.61.06.72-.61,1.31-1.4,1.51-2.69.81-5.3,2.25-8.17,2.22-2.91-.02-5.84.03-8.73-.23-1.42-.13-2.78-.88-4.16-1.38-1-.36-2.12-.56-2.94-1.17-3.95-2.98-7.98-6.1-10.42-10.5-.75-1.29-.84-2.96-1.44-4.36-1.62-3.77-.79-7.69-.9-11.56-.07-2.31.8-4.38,1.56-6.55.69-1.97,2.2-3.36,2.78-5.3.09-.3.37-.55.6-.78,1.53-1.53,3.08-3.05,4.62-4.56,2.03-1.99,4.6-2.91,7.2-3.91,1.08-.42,6.99-2.31,13.78-.69,2.91.69,7.28,2.35,7.28,2.35.05,4.74.09,9.48.14,14.23-3.14-2.87-6.31-5.63-10.78-5.51-4.23-.49-7.64,1.4-10.5,4.3-2.95,2.57-3.49,6.93-3.54,10.63-.13,4.19,3.88,11.84,9.9,13.24,6.57,1.53,15.05-4.59,15.05-4.59h0Z"/>
        <path d="m650,130.32c23.5,0,46.99,0,70.49-.02,1.01,0,1.86.28,2.03,1.21.11.59-.33,1.35-.68,1.95-1.46,2.54-4,4.24-5.56,6.59-1.94,2.92-4.47,5.21-6.74,7.77-.41.47-1.27.75-1.93.75-42.86-.11-85.73-.01-128.59-.13-1.96-.02-2.28-.28-2.33-2.26-.11-4.5-.12-8.99-.07-13.49-.18-2.48,2.12-2.43,4.02-2.42,23.12,0,46.24,0,69.36,0v.05Zm-2,3.68h0c-22.12.01-44.25-.04-66.37.01-1.57.05-1.78.2-1.83,1.79-.08,2.33-.03,4.67-.07,7-.04,1.95.76,2.77,2.74,2.76,41.04-.29,82.08-.02,123.12.06.95,0,1.68-.23,2.3-.96,2.42-2.85,4.87-5.66,7.26-8.54.36-.44.42-1.13.62-1.7-.83-.21-1.64-.52-2.5-.42-21.75,0-43.5,0-65.25,0Z"/>
        <path d="m638,155.3c19.66.05,39.32-.1,58.98.05.64.03,1.67.53,1.8,1.01.2.77.05,1.88-.4,2.52-1.15,1.62-2.56,3.04-3.85,4.56-2.02,2.37-4.08,4.72-6.03,7.15-1.24,1.54-2.74,2.04-4.67,2.03-34.61-.04-69.23.03-103.84,0-1.51,0-3.8.16-4.18-1.67-.09-4.66-.06-9.32-.04-13.98,0-.98.63-1.4,1.52-1.47,20.23-.47,40.48-.04,60.72-.18h0Zm-1,3.42h0c-18.57.09-37.16-.19-55.73.1-1.37.2-1.81.75-1.84,2.17-.04,2.08-.13,4.16-.12,6.23,0,.4.23,1.02.53,1.17.82.39,1.74.82,2.62.82,33.4.04,66.8-.12,100.21-.02,1.9,0,3.53-.6,4.76-2.24,1.42-1.89,3.02-3.64,4.53-5.46.69-.68,2.13-2.51.26-2.61-18.4-.4-36.82-.04-55.23-.16Z"/>
        <path d="m119.27,140.23c4.37,0,8.52-.02,12.67.04.27,0,.76.62.76.95-.01,11.57-.07,23.15-.13,34.72,0,.63-.23,1.65.05,1.81.66.38,1.55.48,2.36.49,4.5.05,8.99.06,13.49.03.98,0,1.32.3,1.28,1.29-.09,2.58-.09,5.16-.13,7.74-.03,1.79-.33,2.09-2.15,2.1-6.54.02-13.08.02-19.61.04-2.12,0-4.25.07-6.37.06-1.8,0-2.3-.53-2.29-2.32.02-15.65.06-31.3.08-46.95Z"/>
        <path d="m333.68,20.81c2.5-3.96,6.92-6.89,8.01-7.57,8.31-3.98,19.72-1.88,24.83,8.57,9.05,18.77-13.32,37.42-29.92,22.35-5.17-5.15-7.76-15.05-2.91-23.35Z"/>
        <path d="m761.71,80.3s2.18-.27,2.94.66c.64.78.11,2.18.05,2.32-.12.34-.33.69-.65,1.02-2.34,2.46-4.53,5.06-6.75,7.63-1.49,1.72-2.9,3.51-4.39,5.23-.8.92-1.81,1.29-3.1,1.29-12.04-.05-24.1.41-36.11-.15-15.47-.73-30.93-.08-46.38-.41-2.04-.04-4.08-.11-6.11-.24-.58-.04-1.62-.38-1.62-.54-.02-1.9,1.46-3.07,2.68-4.3,3.39-3.71,6.81-7.39,10.14-11.16.16-.18.54-.54,1.12-.9,1.17-.72,2.31-.83,2.72-.88,3.82-.39,37.55.06,37.55.06,1.89.03,36.2.47,47.89.36Zm-95.66,14.07c27.55.33,55.1.02,82.65.2,1.49,0,2.54-.39,3.45-1.5,2-2.44,4.08-4.8,6.04-7.27.33-.41.36-1.17.27-1.73-.03-.19-.83-.38-1.29-.38-26.82-.04-53.65-.03-80.47,0-.03,0-2.02.69-2.02.69h0s-5.66,6.55-8.63,9.99Z"/>
        <path d="m742.3,55.39c1.29.06,32.6.07,40.12,0,2.47,0,8.56-.68,5.29,3.45-2.44,2.77-4.14,4.91-5.6,6.63-1.98,2.32-4.23,5.74-5.97,7.08-.28.32-2.12,1.31-3.28,1.15-2.61-.07-87.69-1.1-87.69-.96,0,.01.39.02.39,0,0-.04-1.79.1-2.13-.66-.26-.59.3-1.75.3-1.75,3.85-4.6,7.83-9.08,11.72-13.65.21-.25.57-.68,1.19-.98.88-.42,2.07-.46,2.07-.46,0,.06,16.87,0,43.61.16Zm-53.02,13.73c22.12,1.58,62.08.61,82.48,1.11.2,0,.88.04,1.67-.26.76-.29,1.28-.77,1.62-1.14.98-1.05,3.92-4.86,7.73-10.16-12.27.14-77.15-.09-82.54-.08-1.13,0-2.03.33-2.77,1.15-2.64,2.94-5.28,5.88-7.91,8.82-.1.11-.14.28-.27.56Z"/>
        <path d="m786.79,5.25c14.74.03,28.94-.06,43.75.04,3.27.07,3.73.16,3.88.47.32.63-.86,1.64-3.05,4-2.12,2.28-4.01,4.76-6.05,7.11,0,0-1.82,1.95-3.51,4.31-.78,1.09-1.08,1.64-1.89,2.07-4.91,1.18-87.87-.69-89.21-.35-.84-.16-2.02.23-2.38-.87-.14-.44-.18-.87-.11-1.3.13-.85.67-1.43.79-1.57,2.18-2.43,10.2-11.57,11.32-13.04,0,0,.59-.83,1.6-.86,17.38-.34,28.8-.08,44.87-.02Zm-52.51,13.96c27.63.86,55.25.95,82.89.81.65,0,1.5-.37,1.92-.85,2.38-2.71,4.67-5.5,6.98-8.27.89-1.19.86-2.3-.88-2.24-26.7-.07-53.39-.15-80.09-.18-.32,0-1.39-.08-2.19.58-.45.37-.63.82-.68.94-.39.87-2.25,3.24-7.96,9.2Z"/>
        <path d="m804.85,30.6c.25-.02.99,0,2.48.01,2.02.03,2.76.08,3.13.61.62.87-.03,2.36-.43,2.75-4.68,5.39-7.02,8.09-8.6,9.68-3.45,3.47-3.74,4.31-5.58,4.95-1.38.48-2.35.4-5.89.35-17.74-.17-71.44-1.03-80.65-1.1-2.46-.28-2.18-1.71-1.4-3.22h0s6.83-8.77,10.05-12.91c1.05-.9,1.98-1.21,2.67-1.33.84-.14,3.42-.06,2.56-.06h0c80.8.33,81.65.26,81.65.26Zm-91.43,13.73c22.32.34,39.14.39,60.62.69,6.62.07,13.25,0,19.87.05,1.07,0,1.81-.39,2.5-1.12,2.91-3.23,5.79-5.7,8.23-9.46-3.27-.05-5.86-.62-9.01-.71-23.78.18-47.56-.07-71.34-.15-1.13-.13-2.6.72-3.02,1.39-2.84,3.32-5.1,5.64-7.83,9.32Z"/>
        <path d="m75.5,25.45c-.18,6.54,1.7,16.95-4.38,21.32-4.51,3.41-10.36,3.17-15.69,2.66-7.16-.92-10.01-5.78-10.75-12.04-1.23-10.16-.19-18.09-.21-22.73,0-2.37.06-2.39,2.43-2.41,1.92-.02,3.83.04,5.75,0,.78-.01,1.11.19,1.1,1.05-.06,6.58,0,13.16-.14,19.74-.05,2.33.59,4.46,1.24,6.62.07.22.22.48.41.59,2.02,1.14,4.16,1.56,6.48,1.19,3.83-.65,4.88-5.16,4.66-8.42.03-6.5.04-12.99,0-19.49,0-1.13.3-1.38,1.41-1.32,2.2.13,4.41.11,6.62.06.52-.01.86.05,1.06.26.34.33.29.89.28,1.07-.08,1.08-.16,5.6-.25,11.87Z"/>
        <path d="m386.55,100c0,7.54,0,15.08,0,22.62,0,2.06-.26,2.35-2.26,2.38-3.25.04-6.5.05-9.75.04-1.42,0-1.89-.5-1.89-1.86,0-14.91,0-29.82.02-44.73,0-2.4.36-2.75,2.74-2.75,3.29,0,6.58.03,9.87-.02,1.03-.02,1.34.28,1.34,1.34-.04,7.66-.02,15.33-.02,22.99-.02,0-.03,0-.05,0Z"/>
        <path d="m287.15,99.86c0-7.74.02-15.48-.02-23.23,0-1.06.23-1.45,1.37-1.43,3.7.09,7.41.07,11.11.06.81,0,1.04.24,1.04,1.08-.04,12.24-.04,24.47-.05,36.71,0,3.16-.03,6.33-.08,9.49-.02,1.52-.3,1.85-1.82,1.89-3.54.09-7.07.09-10.61.19-1.1.03-.95-.63-.95-1.3,0-7.83,0-15.65,0-23.48Z"/>
        <path d="m613.09,47.75c-11.16.3-22.32,0-33.48,0-2.69,0-3.18-.5-3.18-3.22,0-3.96-.04-7.91-.03-11.87-.09-2.54,1.55-3.03,3.07-3.05,21.7-.07,43.58-.06,65.3,0,1.24,0,2.53.44,3.7.92.5.21,1.04,1.04,1.05,1.59.08,4.54.03,9.08.03,13.62,0,1.26-.69,1.83-1.84,1.89-2.17.11-3.25.24-4.12.09-7.42.2-22.9-.16-30.48.03Zm-.16-3.47c10.33,0,20.65,0,30.98,0,1.7,0,1.72-.01,1.72-1.75.01-2.12,0-4.25,0-6.37,0-2.71,0-2.72-2.76-2.72-19.94,0-39.89,0-59.83.01-1.17.14-3.17-.43-3.12,1.37.02,2.41-.05,4.82-.06,7.24,0,2.21.01,2.22,2.22,2.22,10.28,0,20.57,0,30.85,0Z"/>
        <path d="m160.79,41.03c0,2.42.02,4.66,0,6.9-.01.91-.76.73-1.3.74-4.5.02-9,0-13.5.02-1.46,0-2.91.09-4.37.09-1.55,0-2-.48-2-2.01,0-10.79,0-21.57,0-32.36,0-1.78.42-2.17,2.22-2.17,6.34.07,12.63-.07,18.98.09-.04,2.49-.07,4.98-.11,7.47-5.97.06-10.3.1-11.02.1-.53-.05-.96.31-.9,1.02,0,1.37.02,2.75-.06,4.12-.06,1.06.45,1.42,1.39,1.42,1.46,0,2.91-.02,4.37-.02,1.46,0,2.92.03,4.37.06,1.09.02,1.71.53,1.7,1.68-.01,1.12,0,2.25,0,3.37,0,2.1-.78,2.83-2.97,2.83-2.33,0-4.65-.02-6.98.02-1.76.03-1.8.12-1.82,1.85-.02,1.81-.04,1.77-.05,2.5-.01,1.51-.04,1.73.16,1.98.43.51,1.28.41,2.11.34,3.31-.25,6.46.02,9.8-.04Z"/>
        <path d="m595.97,56s-.07,0-.07,0c0,0,4.84-.22,8.97-.18,5.55.06,8.33.09,8.6.09,21.04-.18,31.55-.26,31.87-.29,1.78-.23,3.67.44,3.42,2.85-.13,2.95-.03,9.13.05,11.14.05,1.22.14,2.38-.63,3.18-.71.73-1.77.76-2.55.77-3.63.06-14.52.17-10.89.17,0,0-45.58.21-54.22.25-4.1.02-4.28-.17-4.29-4.26-.01-4,.01-7.99-.02-11.99,0-.19,0-.68.31-1.06.1-.3,1.53-.71,2.18-.72.3-.02,1.18.03.89.02,0,0,14.15.03,16.36.03Z"/>
        <path d="m613,22.48c-11.08,0-22.15,0-33.23,0-2.13,0-3.21-1.07-3.22-3.18,0-4.2-.05-8.41-.03-12.61,0-1.75.4-2.17,2.12-2.19,22.58-.49,45.2.05,67.76-.92,1-.01,2.01.58,2.98.98.19.08.28.58.28.88.01,5,.01,9.99-.01,14.99,0,1.09-1.38,2.01-2.93,2.01-11.24.06-22.48.07-33.73.06v-.03Zm-32.46-4.12c1.83,1.08,3.71.69,5.57.69,18.78-.01,37.56.01,56.35-.02,1.09,0,2.19-.34,3.27-.6.23-.06.53-.46.53-.7,0-3.08-.02-6.15-.13-9.23-.01-.32-.53-.85-.87-.9-1.02-.16-2.07-.17-3.11-.16-20.03.13-40.06.08-60.09.31-1.09.02-1.53.61-1.53,1.66.01,2.99,0,5.99,0,8.96Z"/>
        <path d="m612,80.32c11.29,0,22.58,0,33.87,0,2.23,0,2.72.43,2.74,2.67.03,4.33,0,8.66-.05,12.98-.02,1.59-.12,1.67-1.76,1.68-14.29.08-28.57.17-42.86.21-8.82,0-17.65-.06-26.47-.21-.78,0-1.11-.3-1.12-1.11-.03-4.83-.13-9.65-.15-14.48,0-1,.81-1.81,1.8-1.81,11.33-.01,22.66,0,33.99,0v.07Zm33.45,3.61c-20.99-.65-42.43-.09-63.59-.27-1.95,0-2.04.1-2.05,2.06-.02,2.21.04,4.42,0,6.62-.05,1.94-.1,1.94,1.82,1.94,20.92,0,41.83,0,62.75,0,.8.01,1.08-.29,1.07-1.11-.05-3.09.03-6.14.01-9.24Z"/>
        <path d="m84.72,38.18c3.6,1.87,6.98,5.77,11.11,3.43,1.87-1.13,2.55-3.99,1.05-5.75-.95-1.11-2.12-1.76-3.58-2.27-3.65-1.28-7.8-2-9.84-5.9-2.03-4.48-1.94-9.66,2.7-13.66.25-.2,1.25-.8,2.63-1.6,2.27-1.32,4.77-1.23,7.25-1.1,0,0,3.56.17,7.43,2.2,1.03.55,1.59,1.15.59,2.27-.7,1.04-.74,1.23-1.26,3.26-.4,1.54-1.35,1.96-2.66,1.11-2.65-1.9-7.61-2.68-9.05,1.04-.61,2.87,3.16,4.35,5.36,5.01,2.74.83,2.85.59,4.21,1.17,2.29,1.26,3.81,2.33,5.07,5.11,1.91,5.41.35,13.61-7.47,16.61-5.59,1.52-10.51-.06-15.64-2.78-.49-.24-1.36-.69-1.56-1.5-.09-.36,0-.64,1.01-2.56,1.43-2.56,1.46-2.73,2.67-4.08Z"/>
        <path d="m281.91,29.38c.26-7.46,4.43-12.9,8.6-15.56,3.61-2.24,6.71-2.25,12.91-2.26,1.36,0,2.75.64,4.35,1.32.47.2.93,1,.95,1.55.12,2.49.09,5,.08,7.49,0,.33-.23.66-.36.99-.36-.16-.8-.23-1.06-.48-2.19-2.14-4.81-3.06-7.83-2.67-3.24.42-5.39,2.49-6.96,5.13-1.82,3.06-1.5,6.55-.73,9.72,1.7,6.43,10.83,8.8,15.2,4.28,0,0,.47-.2,1.41-.59.62,2.65.13,5.44.32,8.15.02.77-.21,1.04-.97,1.26-1.43.42-2.79,1.06-4.19,1.58-4.13.87-8.52.52-12.16-1.71-4.86-3.05-7.19-7.07-7.81-8.37-2-4.22-1.91-8.07-1.76-9.84Z"/>
        <path d="m258.98,34.43c-5.03.02-8.6,0-9.76-.09-.88-.13-1.59.32-1.5,1.53.06,3.83-.01,7.66.03,11.5.01.99-.3,1.33-1.28,1.31-2-.03-4,.08-6,.05-1.61-.03-2.03-.68-2-2.3.18-10.95.07-21.91.06-32.86,0-.76-.02-1.33,1.08-1.33,6.73.09,13.46-.07,20.2.06.3,1.58.12,3.21.18,4.82,0,2.93,0,2.87-3.01,2.74-2.54-.11-5.08-.03-7.62-.09-1.19-.03-1.76.35-1.63,1.66.1.94-.03,1.91-.07,2.87-.07,1.91.17,2.17,2.06,2.19,2.42.02,4.83,0,7.25.02.94,0,1.29,0,1.58.23.26.21.35.51.39.67.38,1.4.06,6.6.03,7.02Z"/>
        <path d="m37.03,33.74c-3.44.07-6.88.14-10.33.2.16,4.47-.03,8.82-.02,13.28,0,.84-.33,1.11-1.11,1.1-2.33-.02-4.67-.01-7,0-.69,0-1.05-.15-1.05-.98.04-11.79.05-23.54.06-35.34h21.19c0,2.28.03,4.55-.05,6.82,0,.2-.66.55-1.02.55-2.87.06-5.74.05-8.62.06-.94.05-2.51-.34-2.44,1.07,0,2.85-.15,1.83-.03,3.62.04,2,.51,2.12,2.01,1.99,3.55-.37,2.73,0,7.12.05.61,0,1.52-.12,1.76.21.67,1.06,1.09,2.45.96,3.74.05,1.75-.18,2.89-1.44,3.62Z"/>
        <path d="m117,34.72c0-4.12,0-8.25,0-12.37,0-1.66-.02-1.71-1.64-1.73-1.5-.02-2.99.03-4.49.02-1.01,0-1.85-.81-1.86-1.82-.02-1.92,0-3.83,0-5.75,0-.58.11-.89.84-.88,7.75.05,15.49.08,23.24.06,1.14,0,1.37.41,1.2,1.71-.21,1.55-.16,3.11-.12,4.67.04,1.36-.59,1.82-1.81,1.84-1.62.03-3.25.15-4.87.15-.95,0-1.3.31-1.3,1.31.05,8.54.04,17.07.07,25.61,0,.87-.41,1.08-1.14,1.08-2.37.01-4.75,0-7.12.06-.87.07-1.13-.52-1.05-1.09.06-.87.06-5.9.05-12.87Z"/>
        <path d="m203.71,40.33c3.43.22,6.71.09,10.13.17,1.43.02,1.82.47,1.82,1.9,0,1.71,0,3.41.06,5.12.03.79-.23,1.15-1.06,1.15-6.45-.01-12.91,0-19.36,0-.69,0-.95-.24-.94-.96.03-11.49.04-22.98.04-34.48,0-.87.23-1.1,1.15-1.05,2.28.12,4.58.13,6.87.05,1.17-.04,1.36.41,1.35,1.45-.05,8.91-.05,17.73-.06,26.65Z"/>
        <path d="m168.21,48.66c.11-11.98-.44-23.9.2-35.85.03-.27.4-.71.62-.71,2.61-.05,5.22-.03,7.99-.03-.11,8.58.22,16.97-.19,25.52-.2,2.06.4,2.83,2.49,2.87,2.71.05,5.42.02,8.12.04,1.71.01,2.05.38,2.05,2.05,0,1.42.02,2.83-.01,4.25-.02,1.01-.38,1.85-1.55,1.86-6.5.02-12.99.01-19.72.01Z"/>
        <path d="m265.67,30c0-5.33,0-10.66,0-15.99,0-1.79.44-2.21,2.2-2.23,1.87-.01,3.75-.02,5.62,0,1.46.01,1.98.55,2,2.06.02,1.54.01,3.08.01,4.62,0,9.2-.01,18.41-.02,27.61,0,1.62-.45,2.11-2.04,2.13-1.96.03-3.91.03-5.87.02-1.44,0-1.91-.5-1.91-1.98,0-5.41,0-10.82,0-16.24h0Z"/>
        <path d="m221,48.64V12.25c2.71,0,5.32-.03,7.93.02.96.02,1.33.73,1.35,1.6,0,10.7,0,21.4-.01,32.1,0,.54.06,1.14-.16,1.59-.22.45-.75,1.03-1.17,1.04-2.61.09-5.23.05-7.94.05Z"/>
        <path d="m315.2,48.64c-.14-11.63,0-23.27-.05-34.9,0-1.58,0-1.57,1.61-1.55.29,0,2.19.05,6,.06,1.17-.09,1.78.78,1.75,1.75.22,5.89,0,8.83,0,32.98,0,1.11-.66,1.62-1.64,1.63-2.53.05-5.06.02-7.66.02Z"/>
        <path d="m311.95,171.53c-2.91-1.14-5.11-2.59-7.9-.47-.89.6-.06,2.65,1.32,3.15,1.5.55,3.08.89,4.62,1.35,1.88.82,4.18,2.01,4.65,4.15.33,2.24.65,4.55-.61,6.67-1.63,2.75-4.26,3.83-7.23,4.25-3.22.45-6.12-.68-8.91-2.12-.59-.31-1.03-.91-1.52-1.37.93-1.33,1.77-2.53,2.81-4.03.46.24,1.36.44,1.79.99,1.21,1.55,3.03,1.6,4.6,1.83,2.31.34,3.87-2.56,2.74-4.71-.07-.14-.19-.31-.32-.35-3-1.36-6.8-1.16-8.98-3.9-1.52-1.89-1.73-4.14-1.19-6.44.1-.43.58-.78.91-1.15.13-.15.46-.24.47-.37.11-1.78,1.72-2.03,2.83-2.69,1.7-1.01,3.65-1.14,5.57-.87,1.96.4,4.6.56,5.93,2.11.12.11.21.42.14.55-.57,1.19-1.19,2.36-1.74,3.44Z"/>
        <path d="m354.41,177c0-3.83.02-7.66-.01-11.49,0-.96.27-1.36,1.3-1.25,1.07.11,2.16.03,3.24.08,1.03.04,1.6.55,1.59,1.65-.02,7.5-.03,14.99,0,22.49,0,.93-.3,1.36-1.3,1.3-1.14-.06-2.29-.08-3.43-.02-1,.05-1.44-.23-1.43-1.26.05-3.83.02-7.66.02-11.49,0,0,.01,0,.02,0Z"/>
        <path d="m336.05,176.78c.56-.48.94-.65,1.07-.94.92-1.98,2.7-2.38,4.6-2.54,2.58-.33,2.26,4.22.43,4.41-1.16.28-2.31.58-3.46.91-1.14.32-1.66,1.14-2.15,2.21-1.15,2.48-.64,5.05-.7,7.59-.03,1.08-.38,1.52-1.44,1.49-1.36-.03-2.73,0-4.25,0,0-5.04.03-10.01-.01-15.04,0-.99.26-1.47,1.33-1.4.99.06,2,.04,3,0,.91-.04,1.41.23,1.34,1.26-.04.56.13,1.13.26,2.07Z"/>
        <path d="m368.9,184.42c4.36-.24,3.95,6.33.02,6.18-1.67,0-3.42-1.65-3.37-3.19.05-1.58,1.67-3.02,3.35-2.99Z"/>
        <path d="m324.89,187.38c-.13,1.71-1.52,3.18-3.12,3.21-1.4.03-3.38-1.81-3.39-3.14,0-1.35,2.09-3.39,3.49-3.13.92.17,1.85.74,2.58,1.36.37.31.31,1.12.44,1.7Z"/>
        <path d="m348.86,187.57c-.06,2.14-.95,2.97-3.13,2.92-1.61-.03-3.23-1.69-3.16-3.24.07-1.5,1.79-2.89,3.53-2.83,2.02.07,2.82.98,2.76,3.14Z"/>
        <path class="cls-1" d="m569.76,11.64c-1.86,27.57-.09,88.85-.09,90.73,0,1.29-.31,2.34-1.25,3.25-1.23,1.19-2.41,2.42-3.56,3.68-.63.69-1.25,1.18-11.12,12.31-5.76,6.66-10.94,12.04-14.59,16.54-2.97,3.8-6.45,7.1-9.63,10.69-3.23,3.66-6.33,7.45-9.56,11.11-10.48,10.78-20,22.43-30.23,33.44-.45.47-1.26.85-1.91.85-25.67.04-51.33.03-77-.01-.53,0-1.07-.4-1.6-.61.21-.51.3-1.12.64-1.5,6.09-6.81,12.21-13.59,18.24-20.45,2.71-3.05,5.44-6.07,8.16-9.11,2.55-2.84,5.36-5.5,7.56-8.59,2.76-3.9,6.48-6.85,9.5-10.47,1.86-2.23,4.01-4.26,5.6-6.67,2-3.03,4.74-5.33,7.07-8.03,2.91-3.36,5.97-6.59,8.93-9.91,7.4-8.46,14.71-17,22.28-25.31,5-5.55,9.92-11.18,14.83-16.8,2.95-3.33,5.94-6.62,8.9-9.93,2.41-2.69,5.11-5.18,7.12-8.13,1.95-2.87,4.58-5.01,6.8-7.57,11.42-12.89,22.83-25.79,34.17-38.75.25-.25.49-.51.74-.76Z"/>
        <path class="cls-1" d="m837.86,12.18c-.2,3.51-.23,4.82-.23,4.82.04,2.38.1,7.71-.11,9.4-.48,13.22-.01,33.6-.19,43,.03,40.99.05,81.99.08,122.98,0,2.09,0,2.11-2.12,2.12-15.37.02-30.76.54-46.12.06,0,0-.08,0-15.47.11,0,0,.52-.01.52-.01,0,0-2.69.11-5.66,0-4.16-.17-4.71-.61-4.99-.92-.82-.23-1.01-7.1-.99-7.96h0c-.19-39.7-.22-40.24-.22-40.24-.5-14.36-.02-28.72-.64-43.07-.14-3.36,1.31-5.52,3.32-7.77,9.31-11.2,19.18-21.91,28.91-32.76,9.98-11.55,20.27-22.83,30.28-34.35,6.17-7.14,6.99-8.28,13.63-15.41Z"/>
        <path class="cls-1" d="m226.95,163.29c.79-7.18,7.07-13.83,14.97-13.59,8.11.24,14.14,7.61,14.15,15.31,0,8.02-6.55,15.34-14.56,15.36-8.73.02-15.49-8.63-14.56-17.08Z"/>
        <path class="cls-1" d="m88.03,171.3c-1.75,0-3.5-.04-5.24.01-2.65.07-.74-3.09-.51-4.48,1.78-5.64,3.24-11.37,4.81-17.07.12-.43.57-.77.86-1.15.2.3.47.58.64.88,1.32,3.35,2.97,9.23,2.96,9.14,0,0,1.97,6.79,2.98,11.34.04.18.13.63-.11.94-.27.34-.81.33-1.03.32-1.01-.02-2.88.01-5.37.05Z"/>
        <path class="cls-1" d="m654.46,120c-24.28,0-48.57,0-72.85,0-1.12,0-2.02-.91-2.03-2.03,0-2.04-.04-4.08-.03-6.11.01-2.47.16-2.61,2.59-2.62,12.98-.05,54.81-.07,59.98.04,0,0,16.79-.51,33.26-.63,19.6-.13,16.08.44,27.02.12.07.02,19.09-.57,31.8-.25,3.19.08,3.79,0,3.97.34.22.4-.34,1.1-.93,1.82-3.78,4.65-3.42,4.32-3.7,4.59-2.79,2.72-5.86,4.74-5.86,4.74h0c-14.71,0-54.24-.01-73.22,0Z"/>
        <path class="cls-1" d="m648.08,133.66c22.98-.01,45.96-.03,68.94-.04-3.17,3.76-2.16,2.58-9.07,10.7-.62.73-1.35.96-2.3.96-29.37-.09-58.75-.17-88.12-.2-11.67-.01-23.33.09-35,.14-1.97,0-2.77-.82-2.74-2.76.04-2.33,0-4.67.07-7,.05-1.59.26-1.74,1.83-1.79,8.61,0,16.57.35,66.37-.01Z"/>
        <path class="cls-1" d="m637,158.72c18.41.12,36.83-.24,55.23.16,1.91.1.38,1.93-.26,2.61-1.51,1.82-3.11,3.57-4.53,5.46-1.23,1.64-2.86,2.24-4.76,2.24-33.4-.1-66.8.06-100.21.02-.88,0-1.8-.43-2.62-.82-.3-.14-.53-.76-.53-1.17,0-2.08.08-4.16.12-6.23.03-1.42.47-1.97,1.84-2.17,18.56-.29,37.15-.01,55.73-.11h0Z"/>
        <path class="cls-1" d="m341.15,25.3c4.3-7.52,13.74-7.62,18.19-.12,4.1,7.33-.71,14.99-7.16,16.05-9.24,1.53-15.33-8.18-11.03-15.94Z"/>
        <path class="cls-1" d="m666.04,94.37c4.01-4.74,6.92-8.17,7.73-9.16.6-.68,1.78-1.6,2.93-1.52,13.27,0,64.2-.06,71.59,0,1.15-.04,2.31-.03,3.46-.07,5.11-.17,7.2-.53,7.53.24.14.34-.08.73-1.09,1.92-2.03,2.41-4.04,4.83-6.04,7.27-.91,1.12-1.96,1.51-3.45,1.5-27.55-.18-55.1.14-82.65-.2Z"/>
        <path class="cls-1" d="m689.55,68.56s6.16-6.89,7.91-8.82c.13-.14.42-.47.91-.73,6.56-1.14,70.64.16,84.4-.34-3.84,3.76-5.79,9.14-9.08,10.74-.76.42-1.33.81-1.93.81-16.28-.03-32.57-.07-48.85-.21-10.55-.09-21.11-.98-31.65-.53-.34.01-1.83.1-1.97-.36-.06-.19.13-.41.27-.56Z"/>
        <path class="cls-1" d="m734.28,19.21c7.84-9.2,8.65-10.14,8.65-10.14,0,0,2.15-.58,2.19-.58,26.7.03,53.39.11,80.09.18,1.47,0,1.82.64,1.09,1.94-2.33,2.91-4.76,5.76-7.2,8.57-.43.48-1.27.85-1.92.85-27.64.14-55.25.05-82.89-.81Z"/>
        <path class="cls-1" d="m713.72,44.34h0c.82-1.2,3.06-3.91,7.52-9.33.17-.21.6-.71,1.31-1.05.8-.38,1.54-.34,1.71-.34,25.57.46,51.14,0,76.71.08.8,0,3.5-.02,3.78.95.14.49-.4.99-1.18,1.78-1.38,1.4-6.3,6.54-7.19,7.52-.33.49-1.57,1.23-2.5,1.12-27.78-.04-51.81-.4-80.18-.73Z"/>
        <path class="cls-1" d="m612.93,44.28c-10.28,0-20.57,0-30.85,0-2.21,0-2.23,0-2.22-2.22,0-2.41.08-4.82.06-7.24-.05-1.8,1.96-1.23,3.12-1.37,19.94,0,39.89-.01,59.83-.01,2.75,0,2.75.01,2.76,2.72,0,2.12.02,4.25,0,6.37,0,1.73-.03,1.75-1.72,1.75-10.33,0-20.65,0-30.98,0Z"/>
        <path class="cls-1" d="m645.4,69.3c-21.9.17-43.81.34-65.71.51.13-1.65.22-9.59.3-10.51h0s22.99-.14,65.35-.4c.02,3.47.04,6.93.06,10.4Z"/>
        <path class="cls-1" d="m580.54,18.35c0-2.97,0-5.96,0-8.96,0-1.05.44-1.64,1.53-1.66,20.03-.23,40.06-.19,60.09-.31,1.04,0,2.09,0,3.11.16.34.05.86.58.87.9.1,3.07.13,6.15.13,9.23,0,.24-.3.65-.53.7-1.08.26-2.18.6-3.27.6-18.78.03-37.56,0-56.35.02-1.86,0-3.74.39-5.57-.69Z"/>
        <path class="cls-1" d="m645.49,83.75c-.07,3.43-.04,6.1-.05,9.42.01.82-.27,1.12-1.07,1.11-20.91,0-41.83,0-62.75,0-1.92,0-1.87,0-1.82-1.94.05-2.21,0-4.41,0-6.62.01-1.95.1-2.06,2.05-2.06,21.59.06,41.82-.12,63.63.09Z"/>
      </g>
      <path class="cls-1" d="m627,176.64h0c-16.81.19-33.67-.34-50.46.23-.75.08-1.26.59-1.27,1.78-.01,5.65-.04,11.3.03,16.95,0,.61.58,1.52,1.01,1.72,29.48.93,59.2-.03,88.76.32,1.6.01,2.85-.59,3.88-2.46,1.62-2.95,3.33-5.79,5.01-8.67,1.38-2.72,4.06-5.25,3.54-8.58-.1-.58-.96-1.19-1.49-1.22-16.33-.19-32.68,0-49.01-.06Z"/>
      <path d="m627,176.44c16.34.07,32.68-.13,49.01.06.53.04,1.39.65,1.49,1.22.52,3.33-2.16,5.86-3.54,8.58-1.68,2.88-3.39,5.72-5.01,8.67-1.03,1.87-2.28,2.48-3.88,2.46-6.96-.07-13.92,0-20.87,0-21.81,0-43.62.01-65.43,0-.83,0-1.69.03-2.46-.31-.43-.19-1.01-1.11-1.01-1.72-.08-5.65-.05-11.3-.03-16.95,0-1.18.52-1.7,1.27-1.78,16.8-.58,33.65-.04,50.46-.22h0Zm-1,4.14h0c-15.43.11-30.9-.23-46.31.12-1.14.24-1.5.91-1.53,2.63-.04,2.52-.11,5.04-.1,7.56,0,.49.19,1.24.44,1.42.68.48,1.45,1,2.18,1,27.76.05,55.52-.14,83.28-.03,1.58,0,2.93-.73,3.95-2.72,1.18-2.29,2.51-4.41,3.76-6.62.52-.79,1.81-3.04.22-3.17-15.28-.49-30.6-.05-45.9-.19Z"/>
      <path class="cls-1" d="m626,180.58c15.29.14,30.62-.29,45.9.19,1.62.14.27,2.39-.22,3.17-1.26,2.2-2.59,4.33-3.76,6.62-1.02,1.99-2.38,2.71-3.95,2.72-27.76-.12-55.52.08-83.28.03-.73,0-1.5-.52-2.18-1-.25-.18-.44-.93-.44-1.42,0-2.52.06-5.04.1-7.56.03-1.72.39-2.39,1.53-2.63,15.42-.35,30.88-.01,46.31-.13h0Z"/>
    </g>
  </g>
</svg>