<?xml version="1.0" encoding="UTF-8"?>
<svg id="Livello_1" data-name="Livello 1" xmlns="http://www.w3.org/2000/svg" viewBox="0 0 1920 1080">
  <defs>
    <style>
      .cls-1 {
        fill: #fff;
      }
    </style>
  </defs>
  <g>
    <path class="cls-1" d="m503.02,609.46v-208.73c284,0,568,0,852,0,0,69.49,0,138.99,0,208.48-.61.06-1.23.18-1.84.18-26.91,0-53.83,0-80.74,0-236.64,0-473.28,0-709.92,0-19.83,0-39.66.04-59.49.06Zm447.09-11.1h0c13.96.01,27.91,0,41.87.03,1,0,1.75-.25,2.42-1,2.93-3.28,5.89-6.53,8.83-9.8,2.63-2.94,5.23-5.91,7.87-8.84,2.78-3.09,5.61-6.13,8.36-9.23,2.67-3.01,5.24-6.1,7.93-9.09,2.63-2.93,5.54-5.57,7.94-8.75,2.67-3.53,5.92-6.62,8.89-9.93,2.74-3.05,5.47-6.13,8.17-9.22,2.32-2.65,4.58-5.36,6.93-7.99,3.35-3.75,6.75-7.46,10.14-11.17,1.43-1.57,2.94-3.07,4.38-4.63.69-.74,1.66-1.44,1.89-2.33.97-3.59,1.08-7.26.27-10.93-.05-.23.01-.49.05-.73.12-.81.37-1.61.37-2.42.02-14.87.03-29.75,0-44.62,0-1.1-.31-2.19-.43-3.29-.05-.49-.02-1,.04-1.49.1-.85.35-1.69.38-2.55.24-5.75-.08-11.49-.04-17.24.04-5.09.59-10.22-.44-15.29-.11-.56-.28-1.43-.64-1.57-.84-.33-1.71-.24-2.44.64-1.87,2.25-3.86,4.41-5.8,6.61-3.11,3.51-6.19,7.04-9.33,10.53-4.11,4.57-8.25,9.11-12.38,13.66-.17.18-.33.37-.49.56-2.41,2.85-4.78,5.74-7.23,8.55-3.17,3.65-6.41,7.25-9.61,10.88-2.7,3.05-5.4,6.09-8.1,9.13-2.29,2.57-4.58,5.14-6.86,7.72-2.47,2.8-4.9,5.64-7.38,8.43-2.92,3.29-5.89,6.53-8.82,9.82-2.43,2.73-4.84,5.48-7.24,8.23-2.29,2.62-4.55,5.27-6.86,7.87-3.21,3.6-6.45,7.17-9.67,10.75-1.94,2.16-3.88,4.32-5.8,6.5-2.81,3.19-5.61,6.4-8.41,9.6-2.41,2.75-4.8,5.51-7.24,8.23-3.77,4.2-7.62,8.35-11.36,12.58-3.88,4.39-7.67,8.86-11.52,13.27-2.73,3.13-5.49,6.24-8.25,9.35-2.42,2.74-4.84,5.48-7.29,8.2-2.34,2.59-4.66,5.2-7.09,7.7-.62.64-.96,1.27-.54,1.93.35.55,1.05.95,1.68,1.23.42.19.98.09,1.48.09,13.79,0,27.58,0,41.37,0Zm-387.83-104.09c.16,0,.32,0,.48,0,.17.8.4,1.59.51,2.39.31,2.33.59,4.66.87,6.99.47,3.95.93,7.9,1.42,11.85.32,2.62.71,5.23.99,7.86.16,1.56.49,2.02,2.05,2.02,3.04,0,6.08-.08,9.12-.09.98,0,1.52-.58,1.7-1.35.09-.39-.54-.9-.61-1.39-.37-2.59-.18-5.22-1.03-7.79-.58-1.75-.28-3.69-.87-5.56-.69-2.18-.44-4.61-1.11-6.9-.56-1.95-.22-4.03-.9-6.07-.74-2.2-.47-4.68-1.14-7.01-.44-1.52-.14-3.24-.41-4.83-.43-2.48-1.12-4.92-1.59-7.39-.13-.69-.33-.92-1-.92-4.03.02-8.07,0-12.27,0-.37,1.38-.74,2.86-1.16,4.32-.41,1.42-.86,2.82-1.31,4.22-.81,2.5-1.67,4.99-2.44,7.5-.54,1.75-.96,3.54-1.44,5.31-.6,2.17-1.21,4.33-1.81,6.5-.31,1.12-.61,2.23-.91,3.35-.2,0-.41,0-.61,0-.42-1.7-.85-3.41-1.26-5.11-.08-.32-.06-.67-.18-.97-.86-2.23-2.03-4.39-2.53-6.69-.54-2.48-1.28-4.86-2.06-7.26-.91-2.8-1.54-5.69-2.33-8.52-.22-.79-.55-1.55-.92-2.29-.11-.21-.52-.39-.79-.39-3.83-.04-7.66-.06-11.5-.03-.3,0-.79.43-.85.73-.44,2.14-.58,4.36-1.23,6.43-.95,3.05-.52,6.28-1.57,9.31-.62,1.79-.08,3.74-.88,5.65-.85,2.04-.22,4.45-1.06,6.66-.66,1.73-.73,3.7-.98,5.57-.35,2.56-.23,5.17-1.04,7.7-.51,1.59-.4,3.37-.82,5-.31,1.19.11,2.29,1.37,2.31,3.29.05,6.58.03,9.87,0,.29,0,.79-.29.82-.5.33-2.12.6-4.24.86-6.37.1-.78.07-1.58.2-2.36.49-2.88,1.13-5.74,1.51-8.64.52-3.99.85-8,1.29-12,.05-.45.24-.88.36-1.32.39.66.42,1.32.6,1.93.91,2.94,1.88,5.86,2.79,8.81.44,1.41.78,2.86,1.19,4.28.61,2.08,1.24,4.16,1.86,6.23.08.28.15.56.23.84.62,2.06,1.35,4.09,1.82,6.19.4,1.78,1.58,2.96,3.39,2.93,1.5-.02,3-.09,4.5-.04,1.37.05,2.49-.07,2.28-1.89-.02-.22.18-.46.26-.69.52-1.5,1.08-3,1.54-4.52.24-.82.26-1.7.47-2.54.16-.65.47-1.27.69-1.91.12-.35.16-.72.28-1.07.58-1.78,1.21-3.54,1.74-5.33.44-1.48.75-3.01,1.18-4.5.52-1.81,1.12-3.6,1.64-5.41.3-1.06.52-2.15.78-3.22Zm699.49,100.11c.22,1.19.49,2.04.51,2.9.04,1.28.7,1.81,1.85,1.88,1.12.07,2.25.1,3.37.1,23.79,0,47.57,0,71.36-.04,1.37,0,2.77-.33,4.11-.68.4-.1.9-.76.93-1.2.18-2.86.3-5.72.33-8.58.02-1.65-.26-3.3-.27-4.96-.09-18.91-.16-37.82-.21-56.73-.07-27.99-.12-55.98-.17-83.97-.02-10.66-.01-21.33-.13-31.99-.01-1.38-.69-2.75-1.07-4.18-.87.48-1.49.73-2,1.13-.65.51-1.24,1.13-1.81,1.74-.28.3-.43.71-.71,1.02-2.88,3.16-5.82,6.28-8.66,9.48-2.4,2.7-4.67,5.53-7.06,8.24-3.05,3.46-6.23,6.82-9.26,10.3-3.71,4.26-7.3,8.63-10.99,12.9-2.65,3.07-5.38,6.08-8.07,9.11-2.32,2.61-4.67,5.19-6.97,7.82-2.44,2.77-4.83,5.58-7.25,8.37-2.31,2.66-4.6,5.34-6.96,7.96-3.36,3.74-6.77,7.44-10.19,11.12-.78.84-1.16,1.7-1.16,2.88.09,18.24.13,36.49.18,54.73.04,11.83.09,23.66.15,35.49,0,1.04-.13,2.19.28,3.08.45,1,.32,1.63-.14,2.07Zm-434.06-102.45c.33.46.46.61.55.78,1.11,2.03,2.14,4.11,3.35,6.08.69,1.12,1.71,2.02,2.49,3.09,1.72,2.33,3.39,4.7,5.09,7.05.94,1.3,1.91,2.58,2.87,3.86,1.99,2.66,3.99,5.31,5.97,7.97.51.69,1.02,1.38,1.46,2.11.94,1.55,2.12,2.61,4.1,2.54,2.99-.11,5.99-.11,8.99-.18,1.44-.04,1.85-.46,1.85-1.9,0-15.16.01-30.32,0-45.48,0-1.28-.54-1.82-1.81-1.83-3.37-.02-6.75.01-10.12-.03-.87-.01-1.19.27-1.17,1.15.03,2.17-.05,4.33-.02,6.5.12,7.95.27,15.9.4,23.84,0,.46-.09.91-.14,1.37-.11.03-.22.06-.33.09-.23-.3-.51-.57-.69-.9-1.07-2.01-1.95-4.14-3.21-6.01-2.27-3.37-4.75-6.61-7.19-9.85-3.65-4.84-7.35-9.63-11.03-14.45-.2-.26-.46-.54-.52-.84-.16-.74-.6-.85-1.27-.85-3.42.01-6.83-.02-10.25-.04-.65,0-1.3,0-1.89,0v49.38c3.86,0,7.61-.02,11.36.01.86,0,1.17-.27,1.17-1.15-.08-10.2-.14-20.4-.2-30.6,0-.46.09-.92.18-1.69Zm-187,.23c.34.39.44.47.49.57,1.22,2.29,2.34,4.64,3.68,6.86,1,1.66,2.29,3.15,3.44,4.73,1.31,1.8,2.57,3.64,3.91,5.42,1.62,2.15,3.31,4.24,4.95,6.37,1.08,1.42,2.08,2.9,3.17,4.3,1.12,1.44,2.26,2.88,3.52,4.19.45.46,1.3.73,1.98.75,2.96.07,5.91.01,8.87.01,1.87,0,2,.46,2-2.04,0-15.5.02-30.99.03-46.49,0-.24-.05-.47-.09-.77-.48-.02-.89-.06-1.29-.06-3.21-.01-6.42.06-9.62-.07-1.27-.05-1.53.31-1.53,1.49.01,5.37-.15,10.74-.08,16.11.06,4.9.35,9.8.52,14.71,0,.21-.15.43-.23.64-.22-.13-.54-.2-.66-.4-.64-1-1.34-1.99-1.81-3.07-1.42-3.35-3.77-6.04-5.98-8.85-2.15-2.74-4.16-5.59-6.25-8.38-1.97-2.62-3.97-5.22-5.95-7.84-.42-.56-.82-1.14-1.19-1.74-.99-1.59-2.04-2.84-4.29-2.69-3.15.21-6.33.11-9.49,0-1.17-.04-1.4.4-1.39,1.42.05,7.91.09,15.83.1,23.74.02,7.41,0,14.83,0,22.24,0,1.75.26,2.01,2.04,2.01,2.83,0,5.67.03,8.5-.04,2.25-.05,2.5-.35,2.49-2.58-.05-9.74-.12-19.48-.17-29.23,0-.37.17-.73.32-1.36Zm103.82,99.42c1.73-.3,4.02-.62,6.28-1.1,1.55-.33,3.11-.76,4.58-1.34,3.57-1.41,6.57-3.69,9.25-6.4.74-.75,1.33-1.67,1.91-2.56.77-1.2,1.57-2.4,2.16-3.69.51-1.11.62-2.4,1.11-3.52.99-2.23,1.19-4.61,1.61-6.95.27-1.5-.44-2.86-.63-4.29-.23-1.73-.42-3.41-1.12-5.05-1.58-3.76-3.52-7.23-6.7-9.88-.99-.82-2.07-1.53-3.08-2.32-3.32-2.62-7.22-3.75-11.3-4.41-.94-.15-1.91-.08-2.87-.14-4.4-.3-8.62.25-12.68,2.16-3.05,1.44-5.85,3.16-8.05,5.72-1.43,1.66-2.87,3.34-4.03,5.18-.87,1.38-1.41,2.99-1.91,4.56-.61,1.91-1.26,3.85-1.46,5.82-.26,2.5.04,4.99.53,7.52.63,3.26,1.99,6.13,3.85,8.72,1.61,2.25,3.37,4.37,5.72,6.11,4.89,3.62,10.3,5.25,16.81,5.87Zm-60.35-19.94c.59,0,1.05,0,1.5,0,3.12,0,6.25-.02,9.37,0,1.69.02,2.7.97,2.21,2.18-.52,1.28-1.16,2.58-2.04,3.64-1.76,2.14-4.3,3.06-6.92,3.53-1.74.31-3.57.1-5.35.24-2.94.24-5.12-1.38-7.28-2.93-1.74-1.25-2.9-2.93-3.44-5.16-.65-2.73-1.74-5.36-1.38-8.24.15-1.17.66-2.31.74-3.49.16-2.36,1.23-4.24,2.76-5.92,1.22-1.34,2.31-2.75,4.14-3.48,1.9-.75,3.73-1.75,5.82-1.57,1.25.1,2.45.68,3.7.87,2.16.32,3.88,1.36,5.34,2.89.66.69,1.26,1.43,1.9,2.17,4.01-1.89,7.78-3.67,11.61-5.48-.61-.96-.99-1.83-1.61-2.46-1.2-1.21-2.55-2.26-3.8-3.41-3.05-2.78-6.78-4.35-10.72-4.8-4.73-.54-9.5-.9-14.3.59-2.92.9-5.74,2.01-8.02,3.78-2.92,2.26-5.87,4.76-7.47,8.26-1.1,2.4-1.91,4.94-2.7,7.46-.3.95-.11,2.04-.22,3.07-.07.69-.46,1.37-.4,2.03.22,2.46.57,4.91.88,7.36.02.12.04.26.11.36,1.05,1.43.87,3.48,2.35,4.71.17.14.19.46.33.66.88,1.35,1.65,2.8,2.7,4.01,2.27,2.64,5.04,4.71,8.18,6.22.85.41,1.92.42,2.66.94,1.7,1.19,3.76,1.16,5.55,1.33,3.51.34,7.07.32,10.65-.31,3.53-.62,6.95-1.61,9.62-3.75,3.01-2.42,5.81-5.16,7.49-8.98,1.2-2.71,1.29-5.58,2.25-8.29.49-1.39.25-3.05.29-4.59.09-3.34.08-3.27-3.35-3.25-7.33.03-14.66-.02-21.99-.07-.79,0-1.18.19-1.18,1,0,2.9,0,5.81,0,8.86Zm61.63-95.62c-3.96,0-7.87-.05-11.78.03-1.12.02-1.44.92-1.44,1.96-.01,15.16-.04,30.33-.05,45.49,0,1.4.47,1.87,1.88,1.87,3.42.02,6.83-.01,10.25.04.92.01,1.29-.31,1.27-1.22-.05-1.83-.13-3.66-.07-5.49.13-3.97-.21-7.94.43-11.9.26-1.6,0-1.63,1.66-1.63,5,0,10,0,15,0,1.06,0,2.25-.2,1.67,1.55-.03.1.04.24.06.36.16,1.29.42,2.57.44,3.86.02.85-.48,1.71-.45,2.55.17,3.74-.76,7.54.67,11.19.12.3.6.67.91.67,3.37,0,6.75-.04,10.12-.13,1.84-.05,2.08-.31,2.08-2.16.02-15.04.03-30.08.04-45.12,0-1.43-.51-1.92-1.97-1.93-3.33-.02-6.67.01-10-.1-.92-.03-1.17.26-1.23,1.07-.2,2.68-.54,5.35-.64,8.03-.12,2.95-.03,5.91-.04,8.87,0,.7-.03,1.29-1.05,1.28-5.04-.05-10.08-.01-15.12-.04-1.06,0-2.56.41-2.02-1.63,0-.04,0-.09-.03-.12-1.02-1.15-.57-2.54-.58-3.83-.03-4.45-.01-8.9-.01-13.53Zm-155.04,64.84s0-.05,0-.08c-2.46,0-4.92-.02-7.37.02-.36,0-.93.25-1.05.53-1.01,2.4-1.99,4.83-2.88,7.28-.71,1.95-1.46,3.91-1.89,5.93-.54,2.55-2.48,4.64-2.28,7.4,0,.11-.05.26-.13.33-1.14.95-1.01,2.49-1.7,3.69-.78,1.35-.94,3.06-1.38,4.61-.04.15-.2.27-.26.42-.41.89-.96,1.75-1.18,2.68-.48,2.09-.96,4.12-2.14,6.02-.71,1.14-.77,2.69-1.16,4.04-.38,1.31-.82,2.61-1.26,3.91-.06.18-.22.35-.38.48-.62.51-.52,1.07.05,1.43.53.33,1.18.63,1.79.64,3,.04,6,0,9-.05,1.68-.03,2.13-.61,2.14-2.35,0-.48.23-.97.39-1.45.14-.41.35-.8.49-1.21.18-.53.3-1.07.49-1.59.11-.3.45-.58.44-.85-.07-1.18.61-1.37,1.56-1.37,5.99.03,11.99.05,17.98.06.81,0,1.15.39,1.32,1.17.33,1.51.75,3,1.2,4.47.22.74.47,1.52.92,2.14.33.46.99.94,1.52.96,2.62.09,5.25.04,7.87.03.79,0,1.61.09,2.36-.08.41-.1,1.05-.74.99-1.02-.22-1.09-.67-2.13-1.05-3.18-.85-2.39-1.73-4.78-2.56-7.18-.6-1.72-1.09-3.48-1.72-5.19-1-2.7-2.13-5.35-3.09-8.06-.56-1.56-.9-3.19-1.34-4.78-.05-.2-.16-.38-.23-.57-.57-1.57-1.13-3.14-1.71-4.71-.18-.49-.4-.96-.59-1.44-.45-1.19-.93-2.38-1.33-3.59-.45-1.34-.78-2.72-1.25-4.05-.52-1.49-1.23-2.93-1.68-4.44-.23-.76-.55-1.02-1.28-1.01-2.54.02-5.08,0-7.62,0Zm493.17-34.37c-.93.09-1.97.36-2.98.26-1.28-.12-1.73.36-1.74,1.55,0,1.93-.27,3.83-.48,5.74-.35,3.14-.47,6.39.64,9.48.12.34.6.77.94.79,1.33.1,2.66.07,4,.07,43.99,0,87.97,0,131.96,0,5.33,0,10.66.06,15.99-.07,1.06-.03,2.25-.59,3.11-1.25.83-.64,1.28-1.76,1.98-2.61,1.91-2.33,3.87-4.62,5.81-6.93,1.14-1.36,2.43-2.62,3.37-4.11.44-.7.34-1.84.2-2.74-.03-.23-1.13-.4-1.74-.42-2.21-.07-4.41-.07-6.62-.07-47.82.03-95.64.05-143.46.1-2.31,0-4.62.38-6.94.46-1.28.05-2.58-.16-4.04-.27Zm-465.97-30.51c-.57,0-.97,0-1.38,0-9.25,0-18.5.03-27.75-.03-1.25,0-1.52.35-1.52,1.53.04,14.87.02,29.75.03,44.62,0,1.03-.32,2.43.22,2.98.52.54,1.94.22,2.97.27.21.01.42,0,.62,0,8.42,0,16.83,0,25.25.05,1.23,0,1.63-.45,1.57-1.62-.06-1.37-.02-2.75-.02-4.12,0-1.61,0-3.21,0-4.89-4.33,0-8.49.04-12.65-.02-1.54-.02-3.08-.27-4.79-.44,0-2.27,0-4.22,0-6.16,0-1.71.42-2.24,2.14-2.53.53-.09,1.07-.14,1.61-.13,3.79.03,7.58.05,11.37.14,1.04.02,1.38-.34,1.36-1.36-.06-2.21-.01-4.42-.02-6.62q0-2.36-2.31-2.36c-4.25,0-8.5-.02-12.75,0-.97,0-1.46-.26-1.42-1.35.08-1.96.08-3.92.06-5.87-.01-1.22.48-1.66,1.73-1.64,4.58.06,9.16.02,13.75.03q1.94,0,1.95-1.88c0-.75,0-1.5,0-2.25,0-2.07,0-4.14,0-6.33Zm-50.55,64.79c-4.36,0-8.6,0-12.84,0-.9,0-1.47.49-1.76,1.32-.46,1.32-.92,2.64-1.39,3.96-.73,2.05-1.47,4.1-2.2,6.15-.38,1.08-.74,2.18-1.12,3.26-.94,2.7-1.89,5.4-2.83,8.11-.04.12,0,.31-.07.36-1.39.92-.99,2.62-1.65,3.9-.83,1.61-.9,3.6-1.37,5.41-.09.33-.54.84-.75.81-.37-.06-.9-.41-1-.74-.33-1.04-.49-2.14-.71-3.22-.13-.61-.15-1.26-.37-1.82-.83-2.11-1.78-4.18-2.58-6.31-1.2-3.21-2.29-6.46-3.44-9.69-1.35-3.76-2.72-7.52-4.15-11.48-3.91,0-7.99,0-12.06.01-.45,0-.93.11-1.33.3-.2.1-.4.69-.35.73,1.1.84.83,2.21,1.3,3.27,1.5,3.45,3.07,6.87,4.6,10.31,1.66,3.73,3.33,7.47,4.94,11.22,1.07,2.49,2.03,5.03,3.08,7.53,1.26,3.02,2.54,6.03,3.83,9.03.75,1.74,1.71,3.43,2.21,5.24.35,1.27.9,1.76,2.11,1.76,2.25-.02,4.5-.03,6.75-.05,1.46-.01,2.75-1.04,3.26-2.42.55-1.49,1.19-2.95,1.82-4.41.38-.87.85-1.7,1.2-2.58.53-1.3.96-2.65,1.5-3.95.87-2.08,1.82-4.13,2.68-6.22.76-1.86,1.4-3.76,2.19-5.61.93-2.19,2-4.33,2.94-6.52.75-1.75,1.37-3.55,2.11-5.3,1.26-2.95,2.56-5.88,3.86-8.81.48-1.08.99-2.15,1.62-3.54Zm157.04-30.76c-.37.06-.46.05-.53.09-.15.07-.3.15-.42.26-2.08,1.71-4.09,3.41-6.86,4.1-2.46.62-4.9.77-7.24.14-5.88-1.59-10.1-6.98-9.91-13.24.07-2.22.2-4.38.91-6.58.55-1.71,1.46-2.89,2.63-4.05.15-.15.3-.29.45-.44,2.72-2.56,5.77-4.28,9.68-3.87.12.01.25,0,.37,0,3.12-.1,5.67,1.29,8.04,3.12.9.69,1.72,1.49,2.74,2.39.19-.6.39-.94.39-1.27,0-3.79,0-7.57-.08-11.36-.04-1.62-.57-2.05-2.23-2.27-.45-.06-1.04-.04-1.3-.31-1.17-1.19-2.9-1.24-4.18-1.36-4.58-.44-9.23-1.06-13.78.69-2.6,1-5.17,1.92-7.2,3.91-1.54,1.52-3.09,3.03-4.62,4.56-.23.23-.51.49-.6.78-.59,1.93-2.09,3.33-2.78,5.3-.76,2.17-1.63,4.23-1.56,6.55.11,3.86-.72,7.79.9,11.56.6,1.4.69,3.07,1.44,4.36,1.06,1.81,2.35,3.56,3.84,5.03,2.03,1.99,4.3,3.76,6.57,5.48.81.61,1.94.81,2.94,1.17,1.38.5,2.74,1.25,4.16,1.38,2.89.26,5.82.21,8.73.23.82,0,1.69-.05,2.47-.29,1.92-.58,3.8-1.28,5.7-1.93.73-.25,1.39-.54,1.4-1.51.03-3.25.11-6.49.13-9.74,0-.93-.12-1.87-.19-2.87Zm428.33,21.05v-.05c-23.12,0-46.24,0-69.36,0-.58,0-1.17-.01-1.75.06-1.69.19-2.25.66-2.27,2.36-.05,4.5-.04,9,.07,13.49.05,1.97.37,2.23,2.33,2.26,5,.06,10,.04,14.99.04,31.29.02,62.57.03,93.86.05,6.58,0,13.16.07,19.74.04.66,0,1.52-.29,1.93-.75,2.27-2.57,4.8-4.85,6.74-7.77,1.56-2.35,4.1-4.05,5.56-6.59.34-.6.79-1.36.68-1.95-.18-.93-1.02-1.21-2.03-1.21-23.5.03-46.99.02-70.49.02Zm-11.94,24.98h0c-19.08,0-38.16,0-57.23.02-1.16,0-2.33.09-3.49.17-.9.06-1.52.49-1.52,1.47-.02,4.66-.05,9.32.04,13.98,0,.5.7,1.26,1.22,1.42.93.28,1.97.26,2.96.26,26.24,0,52.48,0,78.73,0,8.37,0,16.74-.05,25.12,0,1.93.01,3.43-.49,4.67-2.03,1.95-2.43,4.01-4.77,6.03-7.15,1.29-1.52,2.7-2.94,3.85-4.56.46-.64.6-1.75.4-2.52-.12-.47-1.15-.98-1.8-1.01-2.58-.12-5.16-.05-7.74-.05-17.08,0-34.16,0-51.23,0Zm-518.62-15.08c0,.66,0,1.32,0,1.99-.03,14.99-.06,29.98-.08,44.96,0,1.8.49,2.32,2.29,2.32,2.12,0,4.25-.05,6.37-.06,6.54-.02,13.08-.01,19.61-.04,1.82,0,2.12-.32,2.15-2.1.05-2.58.04-5.16.13-7.74.04-1-.3-1.3-1.28-1.29-4.5.03-8.99.02-13.49-.03-.8,0-1.69-.11-2.36-.49-.27-.16-.05-1.18-.05-1.81.05-11.57.11-23.15.13-34.72,0-.33-.49-.95-.76-.95-4.15-.06-8.3-.04-12.67-.04Zm212.1-110.34c-.12,5.03.37,6.18,2.35,10.31.7,1.45,1.68,2.9,2.87,3.97,2.31,2.07,4.83,3.75,7.92,4.76,4.3,1.4,8.39.85,12.36-.64,4.02-1.52,6.99-4.46,9.24-8.17,1.46-2.41,1.83-5.11,2.38-7.72.77-3.71-.31-7.29-1.97-10.57-3.01-5.94-7.88-9.55-14.56-10.41-3.58-.46-7.09-.11-10.27,1.84-1.01.62-1.89,1.51-2.95,1.98-2.53,1.13-3.8,3.46-5.05,5.59-1.68,2.85-2.75,6.04-2.31,9.07Zm387.6,50.41h0c-8.21,0-16.41,0-24.62,0-6.21,0-12.41,0-18.62,0-1.3,0-2.37.29-3.31,1.35-3.33,3.77-6.75,7.45-10.14,11.16-.67.74-1.49,1.37-2.05,2.18-.41.59-.6,1.4-.63,2.12,0,.16,1.04.5,1.62.54,2.03.13,4.07.19,6.11.24,15.46.33,30.91-.31,46.38.41,12.01.56,24.07.1,36.11.15,1.28,0,2.3-.36,3.1-1.29,1.49-1.72,2.9-3.51,4.39-5.23,2.22-2.57,4.4-5.18,6.75-7.63,1.03-1.08.87-2.24.59-3.35-.09-.35-1.26-.45-1.94-.62-.32-.08-.66-.04-1-.04-14.25,0-28.49,0-42.74,0Zm23.33-24.91v-.11c-1.58,0-3.17,0-4.75,0-12.87-.01-25.75-.01-38.62-.05-1.42,0-2.52.29-3.5,1.45-2.71,3.2-5.56,6.28-8.31,9.44-1.19,1.36-2.28,2.81-3.41,4.22-.08.1-.14.21-.19.32-.55,1.2-.13,1.92,1.18,2.01,1,.07,1.99.17,2.99.21,6.92.32,13.87-.58,20.77.54,21.45.08,42.91.15,64.36.29,1.42,0,2.37-.44,3.2-1.48,2.36-2.94,5.41-5.23,7.53-8.44,1.22-1.85,3.13-3.22,4.58-4.93.46-.54.71-1.62.49-2.25-.19-.55-1.16-1.06-1.84-1.14-1.44-.18-2.91-.07-4.36-.07-13.37,0-26.75,0-40.12,0Zm44.5-50.14c0-.06,0-.12,0-.19-9.67,0-19.33-.02-29,0-5.29.01-10.58.08-15.87.2-.55.01-1.19.44-1.6.86-.6.61-.98,1.44-1.55,2.09-3.23,3.67-6.48,7.33-9.77,10.95-.79.88-1,1.86-.68,2.87.34,1.07,1.45.7,2.26.87.04,0,.08,0,.12,0,13.68.33,27.35-.17,41.04.4,15.35.65,30.74.27,46.11.4,1.39.01,2.42-.43,3.24-1.47,1.41-1.78,2.77-3.61,4.22-5.36,2.2-2.65,4.37-5.33,6.73-7.84,1-1.06.78-2.16.58-3.21-.06-.3-1.35-.45-2.09-.52-.99-.09-2-.04-3-.04-13.58,0-27.17,0-40.75,0Zm-21.95,25.31c0-.09,0-.18,0-.27-3.67,0-7.33,0-11,0-10.62,0-21.24.01-31.87.03-.48,0-1.11.03-1.41.32-1.65,1.64-3.26,3.32-4.82,5.05-2.65,2.94-5.31,5.88-7.83,8.92-.46.56-.44,1.62-.39,2.43.02.27.79.61,1.26.71.73.14,1.49.12,2.24.13,17.46.34,34.92-.44,52.39.44,10.68.54,21.41.27,32.11.28,1.73,0,3.08-1.07,4.09-2.47.61-.83,1.14-1.73,1.81-2.5,2.85-3.24,5.76-6.44,8.6-9.68.36-.41.53-1.02.66-1.56.06-.25-.14-.75-.34-.83-.99-.39-2.01-.96-3.02-.97-14.16-.06-28.32-.04-42.49-.04Zm-689.34-5.12c.08,0,.15,0,.23,0,0-3.96-.04-7.91.03-11.87.02-1.07-.31-1.36-1.34-1.33-2.21.06-4.42.07-6.62-.06-1.11-.07-1.42.19-1.41,1.32.05,6.5.04,12.99,0,19.49,0,1.64.09,3.25-.68,4.87-.87,1.82-1.84,3.21-3.98,3.55-2.32.37-4.46-.05-6.48-1.19-.19-.11-.35-.37-.41-.59-.65-2.16-1.29-4.28-1.24-6.62.14-6.58.08-13.16.14-19.74,0-.86-.32-1.06-1.1-1.05-1.92.03-3.83-.02-5.75,0-2.37.02-2.43.04-2.43,2.41.03,7.58.09,15.15.21,22.73.02.98.67,1.96.66,2.94,0,1.8.86,3.23,1.82,4.53,2.03,2.74,4.99,4.15,8.27,4.58,2.66.35,5.4.29,8.1.15,2.78-.14,5.29-1.23,7.59-2.81,3.16-2.17,3.87-5.67,4.26-8.97.48-4.06.12-8.23.12-12.35Zm311.05,74.14s.03,0,.05,0c0-7.66-.02-15.33.02-22.99,0-1.06-.31-1.36-1.34-1.34-3.29.05-6.58.02-9.87.02-2.38,0-2.74.35-2.74,2.75-.01,14.91-.02,29.82-.02,44.73,0,1.36.48,1.86,1.89,1.86,3.25,0,6.5,0,9.75-.04,2-.03,2.26-.31,2.26-2.38,0-7.54,0-15.08,0-22.62Zm-99.4.28c0,7.83,0,15.65,0,23.48,0,.66-.14,1.33.95,1.3,3.53-.1,7.07-.09,10.61-.19,1.52-.04,1.8-.37,1.82-1.89.04-3.16.07-6.33.08-9.49.02-12.24.01-24.47.05-36.71,0-.84-.23-1.09-1.04-1.08-3.7.02-7.41.03-11.11-.06-1.14-.03-1.38.37-1.37,1.43.04,7.74.02,15.48.02,23.23Zm325.94-52.11v-.03c10.16,0,20.32,0,30.48,0,1.37,0,2.75-.02,4.12-.09,1.15-.06,1.85-.63,1.84-1.89,0-4.54.05-9.08-.03-13.62,0-.55-.55-1.38-1.05-1.59-1.17-.48-2.46-.92-3.7-.92-19.82-.05-39.65-.04-59.47-.02-.42,0-.84.3-1.27.43-.18.06-.46.15-.57.07-1.24-.94-2.66-.48-3.99-.49-2.18,0-3.07.94-3.07,3.05,0,3.96.02,7.91.03,11.87,0,2.72.5,3.22,3.18,3.22,11.16,0,22.32,0,33.48,0Zm-452.3-6.73c-.65,0-1.1,0-1.56,0-2.75.02-5.5.06-8.25.04-1.76,0-2.32-.62-2.27-2.32.03-.83.04-1.67.05-2.5.02-1.74.06-1.82,1.82-1.85,2.33-.04,4.65-.02,6.98-.02,2.19,0,2.96-.73,2.97-2.83,0-1.12,0-2.25,0-3.37.01-1.15-.61-1.66-1.7-1.68-1.46-.03-2.92-.05-4.37-.06-1.46,0-2.91.02-4.37.02-.94,0-1.45-.37-1.39-1.42.08-1.37.07-2.75.06-4.12,0-.64.16-1.01.9-1.02,1.79-.02,3.57-.14,5.36-.15,1.5,0,3,.14,4.49.1.43-.01,1.21-.42,1.22-.67.1-2.27.06-4.54.06-6.86-.5-.03-.87-.06-1.23-.06-5.91-.01-11.83-.01-17.74-.03-1.79,0-2.22.39-2.22,2.17,0,10.79,0,21.57,0,32.36,0,1.54.45,2.01,2,2.01,1.46,0,2.91-.08,4.37-.09,4.5-.02,9,0,13.5-.02.55,0,1.29.17,1.3-.74.03-2.24,0-4.48,0-6.9Zm452.29,14.49v-.02c-10.33,0-20.66,0-30.98,0-1.61,0-3.19-.1-4.76.6-.71.32-.95.56-.95,1.29.03,4,0,7.99.02,11.99.01,4.09.19,4.27,4.29,4.26,18.07-.07,36.15-.14,54.22-.25,1.26,0,2.53-.28,3.79-.41.28-.03.57.03.86.04,2.31.12,4.63.39,6.92.27.76-.04,2.26-.22,2.3-1.44.15-4.57.23-9.15.14-13.73-.04-2.25-.63-2.62-2.87-2.62-10.99,0-21.99,0-32.98,0Zm0-33.05v.03c5.66,0,11.33,0,16.99,0,5.58,0,11.16-.03,16.74-.06,1.55,0,2.92-.93,2.93-2.01.03-5,.03-9.99.01-14.99,0-.3-.09-.8-.28-.88-.97-.4-1.99-.99-2.98-.98-3.48.03-6.95.4-10.43.44-9.28.11-18.57.1-27.85.17-9.82.08-19.65.18-29.47.31-1.72.02-2.12.44-2.12,2.19-.02,4.2.02,8.41.03,12.61,0,2.11,1.08,3.18,3.22,3.18,11.08,0,22.15,0,33.23,0Zm-.86,57.84v-.07c-11.33,0-22.66,0-33.99,0-1.75,0-1.81.05-1.8,1.8.02,4.83.12,9.66.15,14.49,0,.81.33,1.11,1.12,1.11,1.7,0,3.41.07,5.11.09,7.12.05,14.24.14,21.36.12,14.29-.04,28.57-.13,42.86-.21,1.63,0,1.74-.09,1.76-1.68.05-4.33.08-8.66.05-12.98-.02-2.25-.5-2.67-2.74-2.67-11.29,0-22.58,0-33.87,0Zm-527.49-42.14c-.18.2-.58.57-.86,1.02-.63,1-1.11,2.11-1.81,3.06-1.08,1.47-.93,3.13.55,4.07,3.66,2.32,7.54,4,11.98,3.31,2.01-.31,3.98-.97,5.9-1.67,2.61-.95,3.48-3.63,4.9-5.64.9-1.29.95-3.27,1.08-4.97.08-1.09-.6-2.22-.57-3.33.07-2.03-.97-3.4-2.33-4.6-.88-.78-1.85-1.57-2.91-2.03-1.33-.57-2.81-.77-4.21-1.17-.26-.07-.45-.35-.7-.49-.27-.17-.57-.43-.85-.42-1.77.07-2.69-1.19-3.59-2.36-.31-.41-.42-1.25-.22-1.74.55-1.38,1.63-2.3,3.14-2.55,2.17-.35,4.12.36,5.9,1.51,1.31.84,2.26.42,2.66-1.11.29-1.12.73-2.23,1.26-3.26.55-1.07.48-1.77-.59-2.27-2.36-1.1-4.78-2.06-7.43-2.2-2.49-.13-4.98-.22-7.25,1.1-.89.52-1.93.89-2.63,1.6-1.28,1.29-2.89,2.46-2.84,4.61,0,.11-.08.23-.13.35-1.32,2.95-1.18,5.91.28,8.7,2.04,3.9,6.19,4.62,9.84,5.9,1.46.51,2.64,1.16,3.58,2.27,1.5,1.76.82,4.62-1.05,5.75-1.8,1.09-3.54.89-5.2.08-1.97-.96-3.8-2.24-5.91-3.51Zm197.68-8.88c-.41,3.78-.03,6.99,1.27,9.92,1.6,3.62,4.5,6.29,7.81,8.37,3.33,2.09,7.11,2.38,10.95,1.97.41-.04.83-.11,1.21-.25,1.4-.52,2.76-1.16,4.19-1.58.76-.22.99-.49.97-1.26-.06-2.25-.01-4.5-.04-6.75,0-.47-.18-.93-.27-1.4-.47.19-1.01.3-1.41.59-.89.65-1.57,1.67-2.9,1.43-.1-.02-.28.07-.32.15-.5.97-1.39.73-2.2.73-1.58.02-3.05-.11-4.58-.83-2.61-1.24-4.58-3.23-5.2-5.77-.77-3.17-1.09-6.66.73-9.72,1.57-2.64,3.72-4.71,6.96-5.13,3.02-.4,5.63.53,7.83,2.67.26.25.7.32,1.06.48.12-.33.36-.66.36-.99.01-2.5.04-5-.08-7.49-.03-.55-.48-1.36-.95-1.55-1.39-.59-2.86-1.17-4.35-1.32-3.16-.32-6.37-.72-9.42.71-1.16.54-2.5.8-3.49,1.55-2.7,2.04-4.94,4.58-6.65,7.51-.72,1.24-1.17,2.72-1.41,4.14-.24,1.42-.05,2.91-.05,3.82Zm-24.44,5.31c.39-.77.71-1.37.99-1.98.64-1.4.37-2.78.1-4.24-.34-1.85-.22-1.88-2.08-1.89-.37,0-.75,0-1.12,0-2.04,0-4.08,0-6.12-.02-1.88-.01-2.12-.28-2.06-2.19.03-.96.16-1.93.07-2.87-.14-1.31.44-1.68,1.63-1.66,2.54.05,5.08-.02,7.62.09,3.01.13,3.01.19,3-2.74,0-1.33-.02-2.67-.04-4,0-.27-.09-.54-.14-.82-.25-.02-.41-.05-.57-.05-6.54,0-13.08.03-19.62-.01-1.1,0-1.08.56-1.08,1.33.02,6.83.04,13.66.04,20.49,0,4.12-.01,8.25-.1,12.37-.03,1.62.39,2.28,2,2.3,2,.03,4-.08,6-.05.98.02,1.3-.32,1.28-1.31-.05-3.83.02-7.67-.03-11.5-.02-1.14.34-1.59,1.5-1.53.85.04,1.71-.09,2.57-.13.53-.03,1.07-.07,1.6-.06.72.02,1.64.38,2.12.06.91-.6,1.51-.43,2.45.4Zm-229.67-.03c.69-.78,1.41-1.07,2.28-.3.18.16.56.11.84.1,1.12-.03,2.25-.17,3.37-.11,1.09.05,2.09.25,2.96-.75.81-.94.76-1.97.73-3.05-.01-.42.1-.86-.01-1.24-.24-.86-.44-1.8-.95-2.5-.24-.33-1.15-.2-1.76-.21-2.37-.03-4.75-.02-7.12-.05-1.84-.02-2.02-.21-2.01-1.99.01-1.21.03-2.42.03-3.62,0-.72.34-1.08,1.06-1.08.46,0,.92,0,1.37,0,2.87-.01,5.75,0,8.62-.06.36,0,1.01-.35,1.02-.55.07-2.27.05-4.54.05-6.82h-21.19c0,.61,0,1.11,0,1.6-.01,11.25-.02,22.49-.06,33.74,0,.83.35.99,1.05.98,2.33-.02,4.67-.02,7,0,.78,0,1.11-.26,1.11-1.1-.02-3.96,0-7.91.06-11.87,0-.6.32-1.19.54-1.97.49.42.72.62,1.01.86Zm89.12.15s-.02,0-.03,0c0,4.29.02,8.58-.02,12.87,0,.82.23,1.11,1.05,1.09,2.37-.05,4.75-.05,7.12-.06.73,0,1.15-.21,1.14-1.08-.04-8.54-.03-17.07-.07-25.61,0-1,.34-1.31,1.3-1.31,1.62,0,3.25-.12,4.87-.15,1.21-.02,1.83-.48,1.81-1.8-.03-1.71.04-3.42.16-5.12.07-.98-.23-1.31-1.24-1.3-7.75.02-15.49,0-23.24-.06-.73,0-.84.3-.84.88,0,1.92-.02,3.83,0,5.75.01,1.25.61,1.82,1.85,1.82,1.5,0,3-.04,4.5-.02,1.61.02,1.64.07,1.64,1.73,0,4.12,0,8.25,0,12.37Zm86.3,5.61c0-.85,0-1.51,0-2.17.01-8.16,0-16.32.06-24.48,0-1.04-.19-1.49-1.35-1.45-2.29.08-4.58.07-6.87-.05-.92-.05-1.16.18-1.15,1.05,0,11.49,0,22.98-.04,34.48,0,.71.26.96.94.96,6.45-.01,12.91-.01,19.36,0,.82,0,1.08-.36,1.06-1.15-.06-1.7-.07-3.41-.06-5.12,0-1.43-.39-1.88-1.82-1.9-2.87-.03-5.75-.05-8.62-.08-.45,0-.9-.05-1.51-.09Zm-35.5,8.33c6.72,0,13.22.01,19.72-.01,1.17,0,1.53-.85,1.55-1.86.03-1.42,0-2.83.01-4.25,0-1.68-.34-2.04-2.05-2.05-2.71-.02-5.42.02-8.12-.04-2.09-.04-2.69-.81-2.49-2.87.1-1.03.16-2.08.16-3.11.02-6.67.02-13.33.02-20,0-.7,0-1.39,0-2.41-2.77,0-5.38-.02-7.99.03-.22,0-.58.44-.62.71-.14,1.16-.25,2.34-.25,3.51,0,9.62-.07,19.24.04,28.86.01,1.11,0,2.22,0,3.48Zm97.46-18.2h0c0,5.41,0,10.82,0,16.24,0,1.48.46,1.97,1.91,1.98,1.96.01,3.91.01,5.87-.02,1.59-.02,2.04-.51,2.04-2.13,0-9.2.01-18.41.02-27.61,0-1.54,0-3.08-.01-4.62-.02-1.51-.53-2.05-2-2.06-1.87-.01-3.75-.01-5.62,0-1.76.01-2.19.44-2.2,2.23-.01,5.33,0,10.66,0,15.99Zm-44.43,18.18c2.71,0,5.33.05,7.94-.05.41-.01.95-.59,1.17-1.04.22-.45.16-1.05.16-1.59,0-9.66,0-19.32.01-28.97,0-1.04.03-2.08,0-3.12-.02-.87-.39-1.58-1.35-1.6-2.61-.04-5.22-.02-7.93-.02v36.39Zm93.96,0c2.6,0,5.13.03,7.66-.02.98-.02,1.64-.52,1.64-1.63,0-10.99,0-21.99,0-32.98,0-1.21-.56-1.73-1.75-1.75-2-.03-4-.03-6-.06-1.6-.02-1.61-.03-1.61,1.55,0,11.24,0,22.49,0,33.73,0,.41.03.81.05,1.17Zm-3.25,122.89c.55-1.08,1.16-2.25,1.74-3.44.07-.14-.02-.44-.14-.55-.46-.4-.91-.93-1.46-1.09-1.46-.44-2.96-.81-4.47-1.02-1.92-.27-3.86-.14-5.57.87-1.12.66-2.73.91-2.83,2.69,0,.13-.34.22-.47.37-.33.37-.81.72-.91,1.15-.54,2.3-.33,4.56,1.19,6.44,1.32,1.64,3.23,2.32,5.27,2.72,1.26.25,2.48.76,3.71,1.18.13.05.25.21.32.35,1.13,2.15-.43,5.05-2.74,4.71-1.57-.23-3.39-.29-4.6-1.83-.43-.55-1.33-.75-1.79-.99-1.04,1.5-1.88,2.69-2.81,4.03.49.45.93,1.06,1.52,1.37,2.78,1.45,5.68,2.58,8.91,2.12,2.97-.42,5.6-1.5,7.23-4.25,1.26-2.12.94-4.43.61-6.67-.12-.81-.79-1.64-1.4-2.26-.58-.59-1.42-.93-2.16-1.36-.35-.2-.71-.41-1.1-.53-1.54-.46-3.12-.8-4.62-1.35-1.37-.5-2.21-2.54-1.32-3.15.94-.63,2.22-1.24,3.27-1.12,1.53.17,3,.99,4.64,1.59Zm42.46,5.55s-.01,0-.02,0c0,3.83.03,7.66-.02,11.49-.01.96.36,1.27,1.22,1.27,1.25,0,2.5,0,3.75.01.92.02,1.19-.41,1.19-1.31-.02-7.5,0-14.99,0-22.49,0-1.09-.57-1.6-1.59-1.65-1.08-.05-2.17.04-3.24-.08-1.03-.11-1.31.29-1.3,1.25.03,3.83.01,7.66.01,11.49Zm-18.36-.3c-.13-.95-.29-1.52-.26-2.07.07-1.03-.42-1.3-1.34-1.26-1,.04-2,.07-3,0-1.07-.07-1.34.41-1.33,1.4.04,4.45.01,8.91.01,13.36,0,.53,0,1.05,0,1.68,1.52,0,2.89-.02,4.25,0,1.06.02,1.41-.42,1.44-1.49.06-2.54-.45-5.11.7-7.59.49-1.06,1.01-1.89,2.15-2.21,1.15-.32,2.3-.63,3.46-.91,1.06-.26,1.62-1.36,1.38-2.93-.15-1.01-.77-1.57-1.81-1.47-1.89.17-3.68.56-4.6,2.54-.13.29-.51.47-1.07.94Zm32.85,7.64c-1.68-.03-3.3,1.42-3.35,2.99-.05,1.53,1.7,3.18,3.37,3.19,1.85,0,3.04-1.22,3.09-3.16.04-1.94-1.03-2.99-3.1-3.02Zm-44.01,2.96c-.13-.58-.08-1.4-.44-1.7-.74-.62-1.66-1.19-2.58-1.36-1.4-.26-3.49,1.78-3.49,3.13,0,1.33,1.99,3.17,3.39,3.14,1.6-.03,2.99-1.51,3.12-3.21Zm23.97.19c.06-2.16-.74-3.08-2.76-3.14-1.73-.06-3.46,1.33-3.53,2.83-.07,1.55,1.54,3.2,3.16,3.24,2.18.05,3.07-.78,3.13-2.92Z"/>
    <path d="m949.93,598.2c-13.79,0-27.58,0-41.37,0-.5,0-1.06.11-1.48-.09-.63-.29-1.33-.68-1.68-1.23-.42-.66-.08-1.28.54-1.93,2.43-2.5,4.76-5.1,7.09-7.7,2.45-2.72,4.86-5.46,7.29-8.2,2.75-3.11,5.52-6.22,8.25-9.35,3.85-4.42,7.64-8.89,11.52-13.27,3.74-4.23,7.59-8.37,11.36-12.58,2.44-2.72,4.83-5.48,7.24-8.23,2.81-3.2,5.6-6.41,8.41-9.6,1.92-2.18,3.86-4.34,5.8-6.5,3.22-3.59,6.47-7.15,9.67-10.75,2.31-2.6,4.57-5.25,6.86-7.87,2.41-2.75,4.81-5.5,7.24-8.23,2.93-3.28,5.9-6.53,8.82-9.82,2.48-2.79,4.91-5.63,7.38-8.43,2.28-2.58,4.57-5.15,6.86-7.72,2.7-3.04,5.4-6.09,8.1-9.13,3.21-3.62,6.44-7.22,9.61-10.88,2.45-2.82,4.82-5.7,7.23-8.55.16-.19.32-.38.49-.56,4.13-4.55,8.27-9.09,12.38-13.66,5.41-6.02,4.69-5.53,9.33-10.53,2.5-2.7,6.93-7.37,6.93-7.37,0,0,1.12-.32,1.59-.2,1.28.34,1.07,4.75,1.07,4.75-.19,4.14-.09,8.29-.27,12.43-.14,3.24-.06,7.88.04,17.16,0,.06,0,.08,0,.09,0,0,0,6.83,0,7.33.02,11.85,0,44.62,0,44.62,0,0,.11,3.73.12,7.52,0,2.57-.16,3.94-.37,4.91-.1.48-.18,1.02-.44,1.65-.61,1.47-1.61,2.32-1.93,2.59-3.34,2.9-14.49,15.53-14.49,15.53,0,0-3.93,4.57-6.93,7.99-2.71,3.09-5.43,6.16-8.17,9.22-2.97,3.31-6.22,6.4-8.89,9.93-2.4,3.18-5.31,5.82-7.94,8.75-2.69,2.99-5.26,6.09-7.93,9.09-2.76,3.1-5.59,6.14-8.36,9.23-2.64,2.93-5.23,5.9-7.87,8.84-2.94,3.27-5.9,6.52-8.83,9.8-.27.3-.55.52-.85.67-.71.36-1.39.33-1.57.32-1.12-.04-18.26-.03-41.87-.03Zm122.39-184.92c-.18-.1-.36-.19-.54-.29-1.03,1.16-2.06,2.31-3.08,3.48-2.51,2.87-5,5.76-7.52,8.63-2.13,2.42-4.29,4.82-6.43,7.24-2.91,3.29-5.81,6.6-8.72,9.89-2.8,3.17-5.64,6.32-8.43,9.51-2.23,2.55-4.85,4.69-6.8,7.57-2.01,2.96-4.71,5.45-7.12,8.13-2.97,3.31-5.95,6.6-8.9,9.93-2.34,2.64-4.63,5.32-6.96,7.97-2.61,2.96-5.24,5.89-7.87,8.84-2.74,3.07-5.5,6.12-8.23,9.19-2.26,2.55-4.48,5.13-6.71,7.69-2.44,2.81-4.86,5.64-7.33,8.42-2.96,3.32-6.03,6.54-8.93,9.91-2.33,2.7-5.07,5-7.07,8.03-1.59,2.41-3.74,4.44-5.6,6.67-3.02,3.62-6.73,6.57-9.5,10.47-2.19,3.09-5.01,5.75-7.56,8.59-2.72,3.04-5.45,6.07-8.16,9.11-2.68,3.01-5.32,6.04-8,9.04-3.41,3.81-6.85,7.59-10.24,11.41-.34.39-.43,1-.64,1.5.53.21,1.07.61,1.6.61,25.67.04,51.33.05,77,.01.65,0,1.46-.38,1.91-.85,2.26-2.37,4.45-4.82,6.62-7.27,2.56-2.88,5.06-5.81,7.62-8.7,3.22-3.63,6.45-7.26,9.72-10.85,2.05-2.25,4.26-4.35,6.27-6.63,3.24-3.66,6.33-7.45,9.56-11.11,3.17-3.59,6.66-6.9,9.63-10.69,2.5-3.2,2.97-3.39,7.96-9.05,1.66-1.88,3.31-3.75,6.62-7.48,9.86-11.13,10.49-11.62,11.12-12.31,1.15-1.26,2.33-2.5,3.56-3.68.34-.32.59-.67.78-1.03.53-1.01.48-1.99.47-2.22-.04-1.49-.07-38.63-.11-89.68Z"/>
    <path d="m562.38,493.72c-.22.65-.52,1.61-.85,2.79-.11.4-.18.67-.22.82-.52,1.81-1.12,3.6-1.64,5.41-.43,1.49-.73,3.01-1.18,4.5-.54,1.79-1.17,3.55-1.74,5.33-.11.35-.16.72-.28,1.07-.22.64-.53,1.26-.69,1.91-.24.97-.22,1.21-.47,2.54-.25,1.36-.4,1.23-.91,3.21-.59,2.3-.51,2.93-1.18,3.45-.31.24-.87.49-1.98.45-1.5-.05-3,.02-4.5.04-1.8.02-2.98-1.16-3.39-2.93-.47-2.09-1.2-4.13-1.82-6.19-.08-.28-.15-.56-.23-.84-.62-2.08-1.25-4.15-1.86-6.23-.41-1.42-.75-2.87-1.19-4.28-1.17-3.76-1.73-5.04-2.79-8.81-.3-1.08-.53-1.96-.67-2.52-.07.44-.17,1.11-.29,1.92-.82,5.69-.76,7.51-1.29,12-.07.64-1.82,11.95-1.71,11,.21-.92-.76,5.73-.86,6.37-.03.21-.54.49-.82.5-3.29.03-6.58.05-9.87,0-1.26-.02-1.68-1.11-1.37-2.31.11-.44,1.03-6.47.82-5h0s3.56-24.5,5.53-34.89c.09-.47,1.23-6.43,1.23-6.43h0s.78-.73.85-.73c3.83-.04,7.66-.01,11.5.03.03,0,.79.39.79.39h0s9.28,30.84,9.28,30.84h.61c2.77-8.75,5.41-17.71,7.91-26.88.39-1.44.78-2.88,1.16-4.32,4.21,0,8.24,0,12.27,0,.31,0,.51.05.66.17.29.23.33.64.34.75.14,1.43.84,2.78.93,4.22.02.28.37,2.86,1.07,8,.52,3.81.63,3.22,1.14,7.01.5,3.69.42,4.38.93,7.51.29,1.79.28,1.31,1.08,5.46.7,3.59.57,3.66,1.56,9.36.37,2.11.95,5.38.95,5.38,0,0,.39.74.24,1.07-.2.47-1.53.32-1.94.28-2.74-.28-6.96.09-9.12.09-1.56,0-1.88-.46-2.05-2.02-.28-2.62-.67-5.24-.99-7.86-.48-3.95-.94-7.9-1.42-11.85-.28-2.33-.55-4.66-.87-6.99-.01-.1-.05-.32-.1-.61-.18-.93-.42-1.67-.6-2.17Z"/>
    <path d="m1261.45,589.07s-.22-9.81-.23-16.63c-.01-7.31.11-12.11.09-18.86-.06-18.24-.1-36.49-.18-54.73,0-1.18.38-2.04,1.16-2.88,3.42-3.68,6.83-7.38,10.19-11.12,2.36-2.62,4.65-5.3,6.96-7.96,2.42-2.79,4.82-5.6,7.25-8.37,2.3-2.62,4.65-5.21,6.97-7.82,2.7-3.03,5.42-6.04,8.07-9.11,3.69-4.28,7.28-8.64,10.99-12.9,3.03-3.48,6.2-6.84,9.26-10.3,2.39-2.71,4.66-5.54,7.06-8.24,1.21-1.36,2.19-2.43,2.19-2.43,1.61-1.77,2.23-2.4,4-4.33,1.74-1.89,1.6-1.79,2.48-2.72,1.02-1.09,2.54-2.67,4.52-4.54.13-.03.31-.04.5.04.78.35.58,2.15.57,4.79,0,1.12.1,2.23.08,3.35-.09,6.75.04,28.64.04,28.64,0,.26.46,134.77.66,145.66,0,.13.12,6.68.12,6.68s-.32,2.15-1.22,3.11c-.28.3-.74.54-4.27.66-.34.01-.58.02-3.04.05-3.16.04-4.15.04-5.02.04-.36,0-1.93,0-1.93,0,0,0,.1,0,.1,0,0,0-3.72.12-5.13.16-12.84.36-51.37.01-38.52.09,0,0-19.88-.36-21.2-.4-.14,0-.49-.02-.88-.2-.19-.09-.35-.2-.51-.33-.52-.43-.7-1-.8-1.31-.36-1.2-.52-4.18-.32-8.09Z"/>
    <path d="m827.53,491.77c-.09.78-.18,1.24-.18,1.69.05,10.2.11,20.4.2,30.6,0,.88-.31,1.16-1.17,1.15-3.75-.03-7.49-.01-11.36-.01v-49.38c.3,0,.61,0,.93,0,.54,0,.94,0,.97,0,1.3,0,10.84-.83,11.32.42.02.04.07.22.19.46.21.45.45.75.52.84,3.68,4.82,7.38,9.61,11.03,14.45,2.45,3.25,4.92,6.48,7.19,9.85,1.27,1.87,2.14,4.01,3.21,6.01.18.33.46.6.69.9.11-.03.22-.06.33-.09.05-.46.15-.91.14-1.37-.13-7.95-.28-15.9-.4-23.84-.03-2.16.05-4.33.02-6.5-.01-.87.31-1.16,1.17-1.15,3.37.04,6.75.01,10.12.03,1.27,0,1.81.55,1.81,1.83,0,15.16,0,30.32,0,45.48,0,1.44-.41,1.86-1.85,1.9-3,.08-5.99.07-8.99.18-1.98.07-3.16-.99-4.1-2.54-.44-.73-.95-1.42-1.46-2.11-1.98-2.66-3.98-5.31-5.97-7.97-.96-1.28-1.93-2.56-2.87-3.86-1.7-2.34-3.36-4.72-5.09-7.05-.79-1.06-1.81-1.97-2.49-3.09-1.21-1.97-2.24-4.05-3.35-6.08-.09-.17-.23-.32-.55-.78Z"/>
    <path d="m640.52,492c-.15.63-.32.99-.32,1.36.05,9.74.12,19.48.17,29.23.01,2.22-.24,2.52-2.49,2.58-2.83.07-5.66.05-8.5.04-1.78,0-2.04-.26-2.04-2.01,0-7.41,0-14.83,0-22.24-.02-7.91-.05-15.83-.1-23.74,0-1.02.22-1.45,1.39-1.42,3.16.1,6.34.2,9.49,0,2.25-.15,3.3,1.09,4.29,2.69.37.59.77,1.18,1.19,1.74,1.98,2.62,3.98,5.21,5.95,7.84,2.09,2.79,4.1,5.64,6.25,8.38,2.21,2.81,4.56,5.5,5.98,8.85.46,1.08,1.17,2.07,1.81,3.07.12.19.43.27.66.4.08-.21.24-.43.23-.64-.17-4.9-.46-9.8-.52-14.71-.07-5.37.09-10.74.08-16.11,0-1.18.26-1.55,1.53-1.49,3.2.13,6.41.06,9.62.07.41,0,.81.04,1.29.06.03.3.09.53.09.77,0,15.5-.02,30.99-.03,46.49,0,2.51-.13,2.04-2,2.04-2.96,0-5.92.06-8.87-.01-.68-.02-1.53-.28-1.98-.75-1.27-1.31-2.4-2.75-3.52-4.19-1.1-1.4-2.09-2.89-3.17-4.3-1.63-2.14-3.33-4.23-4.95-6.37-1.34-1.78-2.6-3.62-3.91-5.42-1.15-1.58-2.43-3.07-3.44-4.73-1.34-2.22-2.46-4.57-3.68-6.86-.06-.1-.15-.18-.49-.57Z"/>
    <path d="m744.34,591.42c-2.75-.04-10.12-.54-16.81-5.87-6.67-5.31-10.88-14-10.1-22.35.5-5.42,3.03-9.82,3.37-10.38.33-.57,1.66-2.78,4.03-5.18,0,0,3.56-3.6,8.05-5.72,6.13-2.88,17.38-4.21,26.85,2.39,1.03.72,11.71,8.45,11.52,21.55-.13,9.16-5.5,15.32-6.8,16.72-3.57,3.87-7.53,5.65-9.25,6.4-4.43,1.93-8.4,2.36-10.86,2.44Zm-13.7-25.94c-.11,3.12.9,5.92,2.41,8.6,2.03,3.59,5.28,5.4,9.17,5.88,2.4.29,4.85.18,7.31-.74,1.44-.54,2.25-1.86,3.83-2.23.88-.21,1.45-1.89,2.07-2.96.59-1.02,1.48-2.11,1.5-3.18.06-2.37,1.39-4.51.62-7.12-.67-2.28-.91-4.68-2.18-6.8-1.86-3.09-4.32-5.3-8.03-5.82-.41-.06-.89-.06-1.19-.29-.95-.72-1.95-.58-2.98-.34-.91.21-1.86.34-2.73.66-1.21.45-2.55.82-3.53,1.61-4.03,3.25-6.17,7.51-6.26,12.73Z"/>
    <path d="m683.99,571.48c0-3.06,0-5.96,0-8.86,0-.81.38-1,1.18-1,7.33.06,14.66.1,21.99.07,1.74,0,2.6-.03,3.01.39.73.74.49,2.05.33,2.86-1.18,6.2-2.55,12.87-2.55,12.87-1.08,2.3-3.29,6.07-7.49,8.98-3.66,2.53-7.13,3.31-9.62,3.75-1.55.27-5.55,1.01-10.65.31-2.03-.28-4.89-.67-8.22-2.27-6.17-2.96-9.33-7.83-10.88-10.23-.84-1.29-1.89-2.94-2.68-5.38-1.07-3.31-1.03-6.13-.99-7.72.01-.61.08-2.58.62-5.1.32-1.47,1.19-4.17,2.7-7.46,1.6-3.5,4.56-6,7.47-8.26,2.28-1.77,5.11-2.87,8.02-3.78,4.8-1.48,9.57-1.13,14.3-.59,3.95.45,7.67,2.02,10.72,4.8,1.26,1.15,2.61,2.2,3.8,3.41.62.63,1,1.5,1.61,2.46-3.83,1.81-7.59,3.58-11.61,5.48-.65-.97-2.74-3.84-6.7-5.17-.54-.18-5.31-1.69-10.07.81-2,1.05-3.18,2.38-4.14,3.48-1.25,1.44-4.18,4.8-4.54,9.79-.34,4.65,1.62,9.77,5.85,13.01,5.37,4.12,11.43,2.93,12.63,2.69.99-.19,4.56-.94,6.92-3.53,1.16-1.28,1.64-2.58,2.04-3.64.43-1.15.4-1.59.19-1.88-.39-.55-1.38-.4-2.4-.3-3.11.3-6.25,0-9.37,0-.45,0-.91,0-1.5,0Z"/>
    <path d="m745.62,475.86c-.14,17.65,0,19.24.28,19.39,0,0,.04,0,.09.02.63.1,1.11.01,1.2,0,1.11-.17,16.74,0,16.74,0-.03,0,.31.07.34.06.34-.09.15-1.59.15-1.59-.05-.38-.04-2.45-.01-6.59,0-1.66.07-1.27.05-2.29-.04-1.99-.34-6.56.21-8.05.08-.21.2-.42.4-.58.47-.35,1.12-.21,1.32-.17.44.08,3.6-.01,9.94-.2.32,0,1.07-.03,1.55.45.3.3.42.78.42,1.48,0,15.04-.02,30.08-.04,45.12,0,1.84-.24,2.11-2.08,2.16-3.37.08-6.75.13-10.12.13-.31,0-.62-.32-.91-.67-.67-.81-.56-1.9-.53-2.26.28-3.61-.18-16.96-.18-16.96,0,0-1.57-.27-1.68-.29-3.96-.68-11.89.3-15,0-.24-.02-1.01-.11-1.42.34-.24.26-.26.61-.27.75-.41,7.52-.61,11.28-.39,12.44.33,1.8.02,3.66.07,5.49.02.91-.35,1.23-1.27,1.22-3.42-.05-6.83-.01-10.25-.04-1.41,0-1.88-.47-1.88-1.87.01-15.16.04-30.33.05-45.49,0-1.04.32-1.94,1.44-1.96,3.91-.07,7.81-.03,11.78-.03Z"/>
    <path d="m590.58,540.7c2.54-.04,5.08.01,7.62,0,.73,0,1.05.26,1.28,1.01.46,1.51,1.16,2.95,1.68,4.44.47,1.33.8,2.71,1.25,4.05.59,1.75,1.1,3,1.33,3.59,2.27,5.67,5.28,15.64,8.69,24.74.89,2.38,1.71,4.78,2.56,7.18.37,1.05.83,2.09,1.05,3.18.06.28-.58.93-.99,1.02-.75.18-1.57.08-2.36.08-2.62,0-5.25.06-7.87-.03-.53-.02-1.18-.5-1.52-.96-.45-.61-.7-1.39-.92-2.14-.45-1.48-.87-2.97-1.2-4.47-.17-.78-.51-1.17-1.32-1.17-5.99-.01-11.99-.03-17.98-.06-.45,0-1.75.48-1.31.36,0,0-1.07,2.12-1.96,4.2-1.24,2.93-1.29,3.84-2.25,4.26-.47.2-.65.07-2.23,0-1.83-.08-2.05.08-3.83.07-2.85-.02-4.28-.03-4.72-.66-.28-.39,2.19-7.34,1.58-5.82,0,0,1.65-5.28,3.3-10.05.25-.72,1.11-3.06,2.82-7.7,3-8.15,3.36-9.08,4.12-11.42.63-1.94,1.89-5.93,1.89-5.93,1.11-2.55,2.22-5.1,3.32-7.65.67-.06,1.67-.14,2.88-.18,2.68-.09,2.9.12,5.09.08Zm.21,31.19s0-.05,0-.07c1.79,0,3.58-.04,5.37.02.97.03,1.33-.39,1.14-1.26-.42-1.91-.89-3.8-1.34-5.7,0-.04-.03-.08-.04-.12-.56-1.52-1.17-3.02-1.66-4.55-.47-1.44-.82-2.92-1.23-4.38-.5-1.8-.97-3.62-1.52-5.41-.13-.44-.52-.8-.79-1.2-.3.38-.74.72-.86,1.15-.88,3.13-1.68,6.28-2.55,9.41-.63,2.29-1.33,4.56-2,6.84-.08.27-.18.54-.26.82-.29.98-.63,1.95-.83,2.95-.21,1.01.2,1.56,1.34,1.52,1.75-.05,3.49-.01,5.24-.01Z"/>
    <path d="m1081.31,506.46c1.44.05,3.7.12,6.47.15,2.75.03,4.97.01,6.22,0,.48,0,.84-.01.89-.01,22.18-.37,33.27-.55,149.9-.48h0c-.79.08,1.89-.19,2.32.48.09.14.12.29.12.49.02,1.38-1.32,2.88-1.71,3.32-.87.98-1.73,1.98-2.57,2.99-1.94,2.31-3.89,4.6-5.81,6.93-.7.85-1.14,1.97-1.98,2.61-.86.66-2.05,1.22-3.11,1.25-5.33.13-10.66.07-15.99.07-17.11,0-126.29-.31-131.96,0-.8.04-3.32.23-4.59-1.3-.53-.64-.63-1.4-.82-2.89-.27-2.2.04-2.73.03-6.08,0-1.33.08-2.67.03-4-.05-1.26-.13-2.03.37-2.65.58-.72,1.58-.84,2.16-.86Zm75.9,14.37c13.87,0,27.74,0,41.61,0,10.54,0,21.08.03,31.61,0,.64,0,1.45-.19,1.89-.6,1.4-1.3,2.71-2.71,3.97-4.15,1.3-1.48,2.54-3.01,3.7-4.59.3-.4.37-1.12.25-1.62-.05-.23-.81-.36-1.27-.42-.83-.09-1.66-.13-2.49-.13-10.45-.01-20.91-.04-31.36-.02-9,.02-17.99-.04-26.98.16-7.59.17-15.17.07-22.77.37-13.39.54-26.82.15-40.23.17-10.08,0-20.16.03-30.24.05-2.43,0-2.58.14-2.59,2.62,0,2.04.03,4.08.03,6.12,0,1.98.04,2.02,2.03,2.02,24.28,0,48.57,0,72.85,0Z"/>
    <path d="m617.78,475.83c0,2.19,0,4.26,0,6.33,0,.75,0,1.5,0,2.25q0,1.88-1.95,1.88c-4.58,0-9.17.03-13.75-.03-1.25-.02-1.74.43-1.73,1.64.02,1.96.02,3.92-.06,5.87-.04,1.09.45,1.35,1.42,1.35,4.25-.02,8.5,0,12.75,0q2.3,0,2.31,2.36c0,2.21-.04,4.42.02,6.62.03,1.02-.31,1.39-1.36,1.36-3.79-.09-7.58-.11-11.37-.14-.54,0-1.08.04-1.61.13-1.72.3-2.14.82-2.14,2.53,0,1.95,0,3.9,0,6.16,1.72.16,3.25.41,4.79.44,4.16.06,8.32.02,12.65.02,0,1.68,0,3.28,0,4.89,0,1.37-.05,2.75.02,4.12.05,1.17-.35,1.63-1.57,1.62-8.42-.05-16.83-.04-25.25-.05-.21,0-.42,0-.62,0-1.03-.05-2.45.27-2.97-.27-.53-.55-.21-1.95-.22-2.98,0-14.87,0-29.75-.03-44.62,0-1.18.27-1.53,1.52-1.53,9.25.06,18.5.03,27.75.03.41,0,.81,0,1.38,0Z"/>
    <path d="m567.22,540.62c-.64,1.39-1.15,2.46-1.62,3.54-1.3,2.93-2.6,5.86-3.86,8.81-.74,1.75-1.36,3.55-2.11,5.3-.94,2.19-2.01,4.33-2.94,6.52-.78,1.85-1.42,3.75-2.19,5.61-.86,2.09-1.81,4.13-2.68,6.22-.54,1.3-.97,2.64-1.5,3.95-.36.88-.83,1.71-1.2,2.58-.63,1.46-1.27,2.92-1.82,4.41-.51,1.38-1.79,2.41-3.26,2.42-2.25.02-4.5.03-6.75.05-1.2,0-1.76-.49-2.11-1.76-.5-1.81-1.47-3.49-2.21-5.24-.03-.07-1.29-3.06-3.83-9.03-5.18-12.21-7.78-18.31-8.02-18.75-2.03-3.72-2.84-8.04-4.94-11.72-.24-.42-1.12-1.93-.6-2.59.33-.42,1.08-.3,1.33-.3,4.08-.02,8.15-.01,12.06-.01,1.43,3.96,2.8,7.71,4.15,11.48,1.06,2.95,1.41,4.07,2.56,7.27.85,2.34.73,1.96.88,2.42,1.33,4.05,2.21,9.27,3.66,11.35.13.19.58.68,1,.74.4.06.77-.83.75-.81,0,0,1.42-4.73,3.09-9.66,1.02-3,1.14-3.27,2.83-8.11.38-1.09.73-2.18,1.12-3.26.73-2.05,1.47-4.1,2.2-6.15.47-1.32.93-2.64,1.39-3.96.29-.84.86-1.32,1.76-1.32,4.24,0,8.48,0,12.84,0Z"/>
    <path d="m724.26,509.86c.05,6.8.06,11.76.05,12.61,0,.13,0,.44-.2.75-.25.4-.71.59-1.2.76-1.9.65-3.78,1.35-5.7,1.93-.78.24-1.64.3-2.47.29-2.91-.02-5.84.03-8.73-.23-1.42-.13-2.78-.88-4.16-1.38-1-.36-2.12-.56-2.94-1.17-2.28-1.72-4.54-3.48-6.57-5.48-1.5-1.47-2.79-3.21-3.84-5.03-.75-1.29-.84-2.96-1.44-4.36-1.62-3.77-.79-7.69-.9-11.56-.07-2.31.8-4.38,1.56-6.55.69-1.97,2.2-3.36,2.78-5.3.09-.3.37-.55.6-.78,1.53-1.53,3.08-3.05,4.62-4.56,2.03-1.99,4.6-2.91,7.2-3.91,1.08-.42,6.99-2.31,13.78-.69,2.91.69,7.28,2.35,7.28,2.35.05,4.74.09,9.48.14,14.23-1.02-.9-1.84-1.7-2.74-2.39-2.37-1.83-4.91-3.22-8.04-3.12-.12,0-.25.01-.37,0-3.91-.42-6.96,1.31-9.68,3.87-.15.14-.3.29-.45.44-1.17,1.16-2.08,2.34-2.63,4.05-.71,2.2-.85,4.36-.91,6.58-.13,4.19,3.88,11.84,9.91,13.24,6.57,1.53,15.05-4.59,15.05-4.59h0Z"/>
    <path d="m1152.59,530.91c23.5,0,46.99,0,70.49-.02,1.01,0,1.86.28,2.03,1.21.11.59-.33,1.35-.68,1.95-1.46,2.54-4,4.24-5.56,6.59-1.94,2.92-4.47,5.21-6.74,7.77-.41.47-1.27.75-1.93.75-6.58.03-13.16-.04-19.74-.04-31.29-.02-62.57-.03-93.86-.05-5,0-10,.02-14.99-.04-1.96-.02-2.28-.28-2.33-2.26-.11-4.5-.12-8.99-.07-13.49.02-1.7.58-2.17,2.27-2.36.58-.07,1.16-.06,1.75-.06,23.12,0,46.24,0,69.36,0v.05Zm-1.75,3.34h0c-20.96,0-41.91,0-62.87,0-1.17,0-2.33-.01-3.5.02-1.57.04-1.78.2-1.83,1.79-.08,2.33-.03,4.67-.07,7-.04,1.95.76,2.77,2.74,2.76,11.67-.05,23.33-.15,35-.14,29.37.03,58.75.11,88.12.2.95,0,1.68-.23,2.3-.96,2.42-2.85,4.87-5.66,7.26-8.54.36-.44.42-1.13.62-1.7-.54-.14-1.08-.3-1.63-.41-.28-.06-.58-.01-.87-.01-21.75,0-43.5,0-65.25,0Z"/>
    <path d="m1140.65,555.89c17.08,0,34.16,0,51.23,0,2.58,0,5.16-.06,7.74.05.64.03,1.67.53,1.8,1.01.2.77.05,1.88-.4,2.52-1.15,1.62-2.56,3.04-3.85,4.56-2.02,2.37-4.08,4.72-6.03,7.15-1.24,1.54-2.74,2.04-4.67,2.03-8.37-.05-16.74,0-25.12,0-26.24,0-52.48,0-78.73,0-.99,0-2.03.02-2.96-.26-.52-.16-1.21-.92-1.22-1.42-.09-4.66-.06-9.32-.04-13.98,0-.98.63-1.4,1.52-1.47,1.16-.08,2.33-.17,3.49-.17,19.08-.01,38.16,0,57.23,0h0Zm-1.31,3.42h0c-17.95,0-35.91,0-53.86,0-.62,0-1.25.01-1.87.1-1.37.2-1.81.75-1.84,2.17-.04,2.08-.13,4.16-.12,6.23,0,.4.23,1.02.53,1.17.82.39,1.74.82,2.62.82,16.78.02,33.57-.01,50.35-.03,10.08-.01,20.16-.03,30.24-.03,6.54,0,13.08.06,19.61.04,1.9,0,3.53-.6,4.76-2.24,1.42-1.89,3.02-3.64,4.53-5.46.37-.45.8-.88,1.03-1.39.3-.67.18-1.21-.77-1.22-1.21-.01-2.41-.15-3.62-.15-17.2-.01-34.41,0-51.61,0Z"/>
    <path d="m622.03,540.82c4.37,0,8.52-.02,12.67.04.27,0,.76.62.76.95-.01,11.57-.07,23.15-.13,34.72,0,.63-.23,1.65.05,1.81.66.38,1.55.48,2.36.49,4.5.05,8.99.06,13.49.03.98,0,1.32.3,1.28,1.29-.09,2.58-.09,5.16-.13,7.74-.03,1.79-.33,2.09-2.15,2.1-6.54.02-13.08.02-19.61.04-2.12,0-4.25.07-6.37.06-1.8,0-2.3-.53-2.29-2.32.03-14.99.06-29.98.08-44.96,0-.66,0-1.32,0-1.99Z"/>
    <path d="m836.44,421.4c2.5-3.96,6.92-6.89,8-7.57,0,0,0,0,0,0,0,0,5.35-2.47,10.27-1.84,6.68.86,11.55,4.47,14.56,10.41.89,1.75,2.48,5.69,1.97,10.57-.61,5.84-4.24,12.9-11.62,15.89-7.48,3.04-15.55.57-20.28-4.11-3.47-3.44-4.51-7.45-4.87-8.93-.26-1.05-1.91-8.29,1.96-14.42Z"/>
    <path d="m1264.46,480.89s2.18-.27,2.94.66c.64.78.11,2.18.05,2.32-.12.34-.33.69-.65,1.02-2.34,2.46-4.53,5.06-6.75,7.63-1.49,1.72-2.9,3.51-4.39,5.23-.8.92-1.81,1.29-3.1,1.29-12.04-.05-24.1.41-36.11-.15-15.47-.73-30.93-.08-46.38-.41-2.04-.04-4.08-.11-6.11-.24-.58-.04-1.62-.38-1.62-.54.03-.72.23-1.53.64-2.12.56-.81,1.37-1.44,2.05-2.18,3.39-3.71,6.81-7.39,10.14-11.16.16-.18.54-.54,1.12-.9,1.17-.72,2.31-.83,2.72-.88,3.82-.39,37.55.06,37.55.06,0,0,24.22.33,37.09.36.74,0,8.03.02,8.03.02,0,0,.98,0,2.78-.02Zm-95.66,14.07c.79.04,1.48.1,2.18.1,4.37.02,8.75.02,13.12.03,22.45.01,44.9,0,67.35.07,1.49,0,2.54-.39,3.45-1.5,2-2.44,4.08-4.8,6.04-7.27.33-.41.36-1.17.27-1.73-.03-.19-.83-.38-1.29-.38-8.08-.02-16.16-.02-24.24-.02-18.74,0-37.49,0-56.23.03-.03,0-2.02.68-2.02.68h0s-5.66,6.55-8.63,9.99Z"/>
    <path d="m1245.06,455.98s29.2.09,36.37.03c2.17-.02,3.41-.03,3.75-.03,1.46,0,2.93-.11,4.36.07,1,.12,1.49.42,1.71.86.34.65,0,1.63-.79,2.52-2.44,2.77-4.14,4.91-5.6,6.63-1.98,2.32-4.23,5.74-5.97,7.08-.31.24-1.25.95-2.58,1.12-.35.04-.63.04-.7.03-2.61-.07-87.69-1.1-87.69-.96,0,.01.39.02.39,0,0-.04-1.79.1-2.13-.66-.26-.59.3-1.75.3-1.75,3.85-4.6,7.83-9.08,11.72-13.65.21-.25.57-.68,1.19-.98.88-.42,2.07-.46,2.07-.46,0,.06,16.87,0,43.61.16Zm-53.02,13.73c.47.13.78.24,1.1.3.28.05.58.06.87.07,10.55.18,21.1.44,31.65.53,7.25.06,45.23.07,48.85.21.2,0,.88.04,1.67-.26.76-.29,1.28-.77,1.62-1.14.98-1.05,3.92-4.86,7.73-10.16-.6,0-1.59.02-2.82.03-11.18.07-75.86-.11-79.72-.11-1.13,0-2.03.33-2.77,1.15-2.64,2.94-5.28,5.88-7.91,8.82-.1.11-.14.28-.27.56Z"/>
    <path d="m1289.55,405.85c13.58,0,27.17,0,40.75,0,.45,0,1.3,0,3,.04,3.27.07,3.73.16,3.88.47.32.63-.86,1.64-3.05,4-2.12,2.28-4.01,4.76-6.05,7.11,0,0-1.82,1.95-3.51,4.31-.78,1.09-1.08,1.64-1.89,2.07-.89.47-1.76.46-2.07.46-4.54-.06-86.85-.77-87.15-.8,0,0-.12,0-.12,0-.81-.17-1.92.21-2.26-.87-.14-.44-.18-.87-.11-1.3.13-.85.67-1.43.79-1.57,1.88-2.12,10.11-11.43,10.95-12.61.04-.05.16-.23.37-.43,0,0,.59-.83,1.6-.86,3.76-.08,15.87-.2,15.87-.2,9.67.06,19.33.12,29,.18Zm-52.51,13.96c.74.04,1.23.08,1.72.09,12.73.24,25.45.59,38.18.7,14.33.13,28.65.06,42.98.02.65,0,1.5-.37,1.92-.85,2.38-2.71,4.67-5.5,6.98-8.27.08-.1.16-.2.22-.3.73-1.3.38-1.93-1.09-1.94-5.79-.02-11.58-.03-17.37-.05-20.91-.05-41.81-.11-62.72-.13-.32,0-1.39-.08-2.19.58-.45.37-.63.82-.68.94-.39.87-2.25,3.24-7.96,9.2Z"/>
    <path d="m1307.6,431.19c.25-.02.99,0,2.48.01,2.02.03,2.76.08,3.13.61.29.4.25.93.23,1.19-.06.79-.48,1.36-.66,1.56-4.68,5.39-7.02,8.09-8.6,9.68-3.45,3.47-3.74,4.31-5.58,4.95-1.38.48-2.35.4-5.89.35-2.55-.03-5.1.08-7.64,0-12.34-.4-66.86-1.02-69.48-1.02-.6,0-1.21-.04-1.81-.03-1.03,0-1.25.03-1.71-.05-.58-.1-1.43-.25-1.79-.79-.52-.79.39-2.43.39-2.43h0s6.83-8.77,10.05-12.91c1.05-.9,1.98-1.21,2.67-1.33.84-.14,3.42-.06,2.56-.06h0c80.8.33,81.65.26,81.65.26Zm-91.43,13.73c.45.02,1.12.04,1.94.07,6.08.19,10.6.06,11.74.07,15.65.18,31.29.39,46.94.55,6.62.07,13.25,0,19.87.05,1.07,0,1.81-.39,2.5-1.12,1.98-2.13,4.02-4.22,5.97-6.38.76-.84,1.35-1.82,2.25-3.08-1.17-.06-1.93-.07-2.69-.14-2.11-.19-4.21-.54-6.33-.58-3.54-.07-7.08.1-10.62.09-20.24-.06-40.49-.13-60.73-.24-.66,0-1.22.11-1.71.34-.72.34-1.14.84-1.31,1.05-1.91,2.29-4.02,4.42-5.85,6.78-.37.47-1.07,1.37-1.98,2.54Z"/>
    <path d="m578.26,426.04c0,4.12.37,8.29-.12,12.35-.39,3.3-1.11,6.8-4.26,8.97-2.3,1.58-4.81,2.68-7.59,2.81-2.69.13-5.44.19-8.1-.15-2.5-.33-6.13-1.47-8.27-4.58-1.71-2.48-2.31-6.2-2.4-6.84-.04-.25-.06-.45-.08-.62-1.23-10.16-.19-18.09-.21-22.73,0-2.37.06-2.39,2.43-2.41,1.92-.02,3.83.04,5.75,0,.78-.01,1.11.19,1.1,1.05-.06,6.58,0,13.16-.14,19.74-.05,2.33.59,4.46,1.24,6.62.07.22.22.48.41.59,2.02,1.14,4.16,1.56,6.48,1.19,2.14-.34,3.11-1.73,3.98-3.55.77-1.61.67-3.23.68-4.87.03-6.5.04-12.99,0-19.49,0-1.13.3-1.38,1.41-1.32,2.2.13,4.41.11,6.62.06.52-.01.86.05,1.06.26.34.33.29.89.28,1.07-.08,1.08-.16,5.6-.25,11.87Z"/>
    <path d="m889.31,500.18c0,7.54,0,15.08,0,22.62,0,2.06-.26,2.35-2.26,2.38-3.25.04-6.5.05-9.75.04-1.42,0-1.89-.5-1.89-1.86,0-14.91,0-29.82.02-44.73,0-2.4.36-2.75,2.74-2.75,3.29,0,6.58.03,9.87-.02,1.03-.02,1.34.28,1.34,1.34-.04,7.66-.02,15.33-.02,22.99-.02,0-.03,0-.05,0Z"/>
    <path d="m789.91,500.45c0-7.74.02-15.48-.02-23.23,0-1.06.23-1.45,1.37-1.43,3.7.09,7.41.07,11.11.06.81,0,1.04.24,1.04,1.08-.04,12.24-.04,24.47-.05,36.71,0,3.16-.03,6.33-.08,9.49-.02,1.52-.3,1.85-1.82,1.89-3.54.09-7.07.09-10.61.19-1.1.03-.95-.63-.95-1.3,0-7.83,0-15.65,0-23.48Z"/>
    <path d="m1115.85,448.35c-11.16.3-22.32,0-33.48,0-2.69,0-3.18-.5-3.18-3.22,0-3.96-.04-7.91-.03-11.87,0-1.06.23-1.83.73-2.33.71-.72,2.34-.73,2.34-.73,0,0,5.56-.01,5.82-.01,19.82-.06,39.65-.04,59.47.02,1.24,0,2.53.44,3.7.92.5.21,1.04,1.04,1.05,1.59.08,4.54.03,9.08.03,13.62,0,1.26-.69,1.83-1.84,1.89-2.17.11-3.25.24-4.12.09-.75-.13-.12.04-6.59.08-9.13.05-16.01-.26-23.89-.05Zm-.16-3.47c10.33,0,20.65,0,30.98,0,1.7,0,1.72-.01,1.72-1.75.01-2.12,0-4.25,0-6.37,0-2.71,0-2.72-2.76-2.72-19.94,0-39.89,0-59.83.01-.58,0-1.16.04-1.75.05-.86.02-1.38.31-1.37,1.31.02,2.41-.05,4.82-.06,7.24,0,2.21.01,2.22,2.22,2.22,10.28,0,20.57,0,30.85,0Z"/>
    <path d="m663.55,441.62c0,2.42.02,4.66,0,6.9-.01.91-.76.73-1.3.74-4.5.02-9,0-13.5.02-1.46,0-2.91.09-4.37.09-1.55,0-2-.48-2-2.01,0-10.79,0-21.57,0-32.36,0-1.78.42-2.17,2.22-2.17,5.91.02,11.83.02,17.74.03.37,0,.74.04,1.23.06-.04,2.49-.07,4.98-.11,7.47-5.97.06-10.3.1-11.02.1-.11,0-.46,0-.68.22-.17.17-.22.45-.22.8,0,1.37.02,2.75-.06,4.12-.06,1.06.45,1.42,1.39,1.42,1.46,0,2.91-.02,4.37-.02,1.46,0,2.92.03,4.37.06,1.09.02,1.71.53,1.7,1.68-.01,1.12,0,2.25,0,3.37,0,2.1-.78,2.83-2.97,2.83-2.33,0-4.65-.02-6.98.02-1.76.03-1.8.12-1.82,1.85-.02,1.81-.04,1.77-.05,2.5-.01,1.51-.04,1.73.16,1.98.43.51,1.28.41,2.11.34,2.74-.23,5.5-.03,8.25-.04.45,0,.91,0,1.56,0Z"/>
    <path d="m1098.73,456.18s-.07,0-.07,0c0,0,4.84-.22,8.97-.18,5.55.06,8.33.09,8.6.09,21.04-.18,31.55-.26,31.87-.29.53-.04,2.04-.17,2.87.75.6.67.58,1.59.55,2.1-.13,2.95-.03,9.13.05,11.14.05,1.22.14,2.38-.63,3.18-.71.73-1.77.76-2.55.77-3.63.06-14.52.17-10.89.17,0,0-45.58.21-54.22.25-4.1.02-4.28-.17-4.29-4.26-.01-4,.01-7.99-.02-11.99,0-.19,0-.68.31-1.06.13-.16.4-.41,1.32-.59.34-.07.59-.11.87-.13.3-.02,1.18.03.89.02,0,0,14.15.03,16.36.03Z"/>
    <path d="m1115.83,423.07c-11.08,0-22.15,0-33.23,0-2.13,0-3.21-1.07-3.22-3.18,0-4.2-.05-8.41-.03-12.61,0-1.75.4-2.17,2.12-2.19,9.82-.12,19.65-.23,29.47-.31,9.28-.07,18.57-.06,27.85-.17,3.48-.04,6.95-.4,10.43-.44,1,0,2.01.58,2.98.98.19.08.28.58.28.88.01,5,.01,9.99-.01,14.99,0,1.09-1.38,2.01-2.93,2.01-5.58.03-11.16.05-16.74.06-5.66,0-11.33,0-16.99,0v-.03Zm-32.54-4.12c1.83,1.08,3.71.69,5.57.69,18.78-.01,37.56.01,56.35-.02,1.09,0,2.19-.34,3.27-.6.23-.06.53-.46.53-.7,0-3.08-.02-6.15-.13-9.23-.01-.32-.53-.85-.87-.9-1.02-.16-2.07-.17-3.11-.16-19.61.08-39.23.17-58.84.26-.42,0-.83.05-1.25.05-1.09.02-1.53.61-1.53,1.66.01,2.99,0,5.99,0,8.96Z"/>
    <path d="m1114.97,480.91c11.29,0,22.58,0,33.87,0,2.23,0,2.72.43,2.74,2.67.03,4.33,0,8.66-.05,12.98-.02,1.59-.12,1.67-1.76,1.68-14.29.08-28.57.17-42.86.21-7.12.02-14.24-.07-21.36-.12-1.7-.01-3.41-.08-5.11-.09-.78,0-1.11-.3-1.12-1.11-.03-4.83-.13-9.66-.15-14.49,0-1.75.05-1.8,1.8-1.8,11.33-.01,22.66,0,33.99,0v.07Zm33.24,3.61c-.4.09-.64.2-.85.17-.59-.11-1.16-.38-1.74-.4-1.96-.06-3.92-.03-5.87-.03-18.37,0-36.75-.01-55.12,0-1.95,0-2.04.1-2.05,2.06-.02,2.21.04,4.42,0,6.62-.05,1.94-.1,1.94,1.82,1.94,19.21,0,38.41,0,57.62,0,1.71,0,3.42-.03,5.12,0,.8.01,1.08-.29,1.07-1.11-.04-2.33,0-4.66.01-7,0-.73,0-1.47,0-2.24Z"/>
    <path d="m587.48,438.77c2.11,1.27,3.94,2.55,5.91,3.51,1.65.81,3.39,1,5.2-.08,1.87-1.12,2.55-3.99,1.05-5.75-.95-1.11-2.12-1.76-3.58-2.27-3.65-1.28-7.8-2-9.84-5.9-.88-1.68-1.11-3.41-1.19-4.42-.07-.93-.18-2.8.69-4.97.18-.45,1.05-2.52,3.2-4.27.25-.2,1.25-.8,2.63-1.6,2.27-1.32,4.77-1.23,7.25-1.1,0,0,3.56.17,7.43,2.2.4.21,1.07.6,1.13,1.18.04.39-.22.61-.54,1.08-.7,1.04-.74,1.23-1.26,3.26-.4,1.54-1.35,1.96-2.66,1.11-1.79-1.15-3.73-1.85-5.9-1.51-1.51.24-2.59,1.17-3.14,2.55-.31.76.1,1.47.22,1.74.3.69.78,1.13,1.34,1.54,1.16.85,2.34,1.29,3.79,1.73,2.74.83,2.85.59,4.21,1.17,1.07.45,2.03,1.24,2.91,2.03.66.58,1.56,1.56,2.15,3.08.32.81.43,1.51.55,2.24.21,1.26.2,2.26.19,2.61-.02,1.02-.19,2.93-1.08,4.97-.3.7-2.36,5.21-7.14,6.79-1.23.41-2.14.45-3.66.53-4.73.24-7.65-1.18-11.98-3.31-.49-.24-1.36-.69-1.56-1.51-.09-.36,0-.64,1.01-2.56,1.02-1.95,1.42-2.45,1.81-3.06.28-.45.68-.81.86-1.02Z"/>
    <path d="m784.67,429.97c.05-1.03.19-2.38.54-3.91.06-.27.54-2.29,1.41-4.14,2.25-4.78,6.65-7.51,6.65-7.51,3.61-2.24,6.71-2.25,12.91-2.26,1.36,0,2.75.64,4.35,1.32.47.2.93,1,.95,1.55.12,2.49.09,5,.08,7.49,0,.33-.23.66-.36.99-.36-.16-.8-.23-1.06-.48-2.19-2.14-4.81-3.06-7.83-2.67-3.24.42-5.39,2.49-6.96,5.13-1.82,3.06-1.5,6.55-.73,9.72.62,2.55,2.59,4.53,5.2,5.77,1.53.72,3,.85,4.58.83.59,0,1.09-.03,1.75-.2,2.03-.54,3.67-2.12,3.67-2.12,0,0,.47-.2,1.41-.59.1.47.27.93.27,1.4.03,2.25-.01,4.5.04,6.75.02.77-.21,1.04-.97,1.26-1.43.42-2.79,1.06-4.19,1.58-.38.14-.8.21-1.21.25-3.84.41-7.62.12-10.95-1.97-4.86-3.05-7.19-7.07-7.81-8.37-2-4.22-1.91-8.07-1.76-9.84Z"/>
    <path d="m761.74,435.02c-5.03.02-8.6,0-9.76-.09-.2-.02-.78-.07-1.15.28-.26.24-.35.65-.34,1.25.06,3.83-.01,7.66.03,11.5.01.99-.3,1.33-1.28,1.31-2-.03-4,.08-6,.05-1.61-.03-2.03-.68-2-2.3.08-4.12.09-8.25.1-12.37,0-6.83-.02-13.66-.04-20.49,0-.76-.02-1.33,1.08-1.33,6.54.04,13.08.01,19.62.01.16,0,.33.03.57.05.05.28.13.55.14.82.03,1.33.04,2.66.04,4,0,2.93,0,2.87-3,2.74-2.54-.11-5.08-.03-7.62-.09-1.19-.03-1.76.35-1.63,1.66.1.94-.03,1.91-.07,2.87-.07,1.91.17,2.17,2.06,2.19,2.04.01,4.08.01,6.12.02.37,0,.75,0,1.12,0,.94,0,1.29,0,1.58.23.26.21.35.51.39.67.38,1.4.06,6.6.03,7.02Z"/>
    <path d="m539.79,434.66c-3.44.07-6.88.14-10.33.2,0,.56.02,1.04.03,1.41.12,3.95-.07,7.91-.06,11.87,0,.84-.33,1.11-1.11,1.1-2.33-.02-4.67-.01-7,0-.69,0-1.05-.15-1.05-.98.04-11.25.04-22.49.06-33.74,0-.49,0-.99,0-1.6h21.19c0,2.28.03,4.55-.05,6.82,0,.2-.66.55-1.02.55-2.87.06-5.74.05-8.62.06-.46,0-.92,0-1.37,0-.72,0-1.06.36-1.06,1.08,0,2.85-.15,1.83-.03,3.62.08,1.16.1,1.45.37,1.71.44.42,1.15.34,1.64.28,3.55-.37,2.73,0,7.12.05.61,0,1.52-.12,1.76.21.51.69.71,1.63.95,2.5.11.39,0,.83.01,1.24.04,1.4-.11,2.33-.73,3.05-.22.26-.48.44-.71.56Z"/>
    <path d="m620.17,435.31c0-4.12,0-8.25,0-12.37,0-1.66-.02-1.71-1.64-1.73-1.5-.02-3,.03-4.5.02-1.25,0-1.84-.57-1.85-1.82-.02-1.92,0-3.83,0-5.75,0-.58.11-.89.84-.88,7.75.05,15.49.08,23.24.06,1.01,0,1.31.32,1.24,1.3-.12,1.7-.19,3.41-.16,5.12.02,1.32-.6,1.78-1.81,1.8-1.62.03-3.25.15-4.87.15-.95,0-1.3.31-1.3,1.31.05,8.54.04,17.07.07,25.61,0,.87-.41,1.08-1.14,1.08-2.37.01-4.75,0-7.12.06-.39,0-.65-.05-.82-.21-.28-.28-.24-.75-.23-.88.06-.87.06-5.9.05-12.87Z"/>
    <path d="m706.47,440.92c.61.04,1.06.09,1.51.09,2.87.03,5.75.04,8.62.08,1.43.02,1.82.47,1.82,1.9,0,1.71,0,3.41.06,5.12.03.79-.23,1.15-1.06,1.15-6.45-.01-12.91,0-19.36,0-.69,0-.95-.24-.94-.96.03-11.49.04-22.98.04-34.48,0-.87.23-1.1,1.15-1.05,2.28.12,4.58.13,6.87.05,1.17-.04,1.36.41,1.35,1.45-.05,8.16-.04,16.32-.06,24.48,0,.66,0,1.32,0,2.17Z"/>
    <path d="m670.97,449.25c0-1.26.01-2.37,0-3.48-.11-9.62-.03-19.24-.04-28.86,0-1.17.11-2.35.25-3.51.03-.27.4-.71.62-.71,2.61-.05,5.22-.03,7.99-.03,0,1.01,0,1.71,0,2.41,0,6.67,0,13.33-.02,20,0,1.04-.06,2.08-.16,3.11-.2,2.06.4,2.83,2.49,2.87,2.71.05,5.42.02,8.12.04,1.71.01,2.05.38,2.05,2.05,0,1.42.02,2.83-.01,4.25-.02,1.01-.38,1.85-1.55,1.86-6.5.02-12.99.01-19.72.01Z"/>
    <path d="m768.43,431.05c0-5.33,0-10.66,0-15.99,0-1.79.44-2.21,2.2-2.23,1.87-.01,3.75-.02,5.62,0,1.46.01,1.98.55,2,2.06.02,1.54.01,3.08.01,4.62,0,9.2-.01,18.41-.02,27.61,0,1.62-.45,2.11-2.04,2.13-1.96.03-3.91.03-5.87.02-1.44,0-1.91-.5-1.91-1.98,0-5.41,0-10.82,0-16.24h0Z"/>
    <path d="m724,449.23v-36.39c2.71,0,5.32-.03,7.93.02.96.02,1.33.73,1.35,1.6.03,1.04,0,2.08,0,3.12,0,9.66,0,19.32-.01,28.97,0,.54.06,1.14-.16,1.59-.22.45-.75,1.03-1.17,1.04-2.61.09-5.23.05-7.94.05Z"/>
    <path d="m817.96,449.23c-.02-.36-.05-.77-.05-1.17,0-11.24,0-22.49,0-33.73,0-1.58,0-1.57,1.61-1.55.29,0,2.19.05,6,.06.3,0,.82,0,1.22.35.5.44.52,1.18.53,1.4.22,5.89,0,8.83,0,32.98,0,1.11-.66,1.62-1.64,1.63-2.53.05-5.06.02-7.66.02Z"/>
    <path d="m814.71,572.12c-1.64-.6-3.1-1.42-4.64-1.59-1.05-.12-2.33.49-3.27,1.12-.89.6-.06,2.65,1.32,3.15,1.5.55,3.08.89,4.62,1.35.38.11.75.32,1.1.53.74.43,1.57.77,2.16,1.36.62.62,1.28,1.45,1.4,2.26.34,2.24.65,4.55-.61,6.67-1.63,2.75-4.26,3.83-7.23,4.25-3.22.45-6.12-.68-8.91-2.12-.59-.31-1.03-.91-1.52-1.37.93-1.33,1.77-2.53,2.81-4.03.46.24,1.36.44,1.79.99,1.21,1.55,3.03,1.6,4.6,1.83,2.31.34,3.87-2.56,2.74-4.71-.07-.14-.19-.31-.32-.35-1.23-.42-2.44-.93-3.71-1.18-2.04-.4-3.95-1.08-5.27-2.72-1.52-1.89-1.73-4.14-1.19-6.44.1-.43.58-.78.91-1.15.13-.15.46-.24.47-.37.11-1.78,1.72-2.03,2.83-2.69,1.7-1.01,3.65-1.14,5.57-.87,1.51.21,3.01.58,4.47,1.02.55.16,1,.69,1.46,1.09.12.11.21.42.14.55-.57,1.19-1.19,2.36-1.74,3.44Z"/>
    <path d="m857.17,577.67c0-3.83.02-7.66-.01-11.49,0-.96.27-1.36,1.3-1.25,1.07.11,2.16.03,3.24.08,1.03.04,1.6.55,1.59,1.65-.02,7.5-.03,14.99,0,22.49,0,.9-.28,1.32-1.19,1.31-1.25-.02-2.5-.02-3.75-.01-.86,0-1.23-.31-1.22-1.27.05-3.83.02-7.66.02-11.49,0,0,.01,0,.02,0Z"/>
    <path d="m838.81,577.37c.56-.48.94-.65,1.07-.94.92-1.98,2.7-2.38,4.6-2.54,1.04-.09,1.66.47,1.81,1.47.23,1.58-.32,2.68-1.38,2.93-1.16.28-2.31.58-3.46.91-1.14.32-1.66,1.14-2.15,2.21-1.15,2.48-.64,5.05-.7,7.59-.03,1.08-.38,1.52-1.44,1.49-1.36-.03-2.73,0-4.25,0,0-.63,0-1.15,0-1.68,0-4.45.02-8.91-.01-13.36,0-.99.26-1.47,1.33-1.4.99.06,2,.04,3,0,.91-.04,1.41.23,1.34,1.26-.04.56.13,1.13.26,2.07Z"/>
    <path d="m871.66,585.01c2.07.03,3.15,1.08,3.1,3.02-.04,1.94-1.24,3.16-3.09,3.16-1.67,0-3.42-1.65-3.37-3.19.05-1.58,1.67-3.02,3.35-2.99Z"/>
    <path d="m827.65,587.97c-.13,1.71-1.52,3.18-3.12,3.21-1.4.03-3.38-1.81-3.39-3.14,0-1.35,2.09-3.39,3.49-3.13.92.17,1.85.74,2.58,1.36.37.31.31,1.12.44,1.7Z"/>
    <path d="m851.62,588.16c-.06,2.14-.95,2.97-3.13,2.92-1.61-.03-3.23-1.69-3.16-3.24.07-1.5,1.79-2.89,3.53-2.83,2.02.07,2.82.98,2.76,3.14Z"/>
    <path class="cls-1" d="m1072.52,412.23c-.03.44-.08,1.24-.14,2.24-1.62,28.09.05,86.78.05,88.49,0,1.29-.31,2.34-1.25,3.25-1.23,1.19-2.41,2.42-3.56,3.68-.63.69-1.25,1.18-11.12,12.31-3.31,3.74-4.97,5.61-6.62,7.48-4.99,5.66-5.46,5.86-7.96,9.05-2.97,3.8-6.46,7.1-9.63,10.69-3.23,3.66-6.33,7.45-9.56,11.11-2.01,2.28-4.22,4.38-6.27,6.63-3.27,3.59-6.5,7.22-9.72,10.85-2.56,2.88-5.06,5.81-7.62,8.7-2.17,2.45-4.36,4.9-6.62,7.27-.45.47-1.26.85-1.91.85-25.67.04-51.33.03-77-.01-.53,0-1.07-.4-1.6-.61.21-.51.3-1.12.64-1.5,3.39-3.82,6.83-7.6,10.24-11.41,2.68-3,5.33-6.04,8-9.04,2.71-3.05,5.44-6.07,8.16-9.11,2.55-2.84,5.36-5.5,7.56-8.59,2.76-3.9,6.48-6.85,9.5-10.47,1.86-2.23,4.01-4.26,5.6-6.67,2-3.03,4.74-5.33,7.07-8.03,2.91-3.36,5.97-6.59,8.93-9.91,2.48-2.78,4.89-5.61,7.33-8.42,2.23-2.57,4.45-5.15,6.71-7.69,2.73-3.08,5.49-6.13,8.23-9.19,2.63-2.94,5.26-5.88,7.87-8.84,2.33-2.64,4.62-5.33,6.96-7.97,2.95-3.33,5.94-6.62,8.9-9.93,2.41-2.69,5.11-5.18,7.12-8.13,1.95-2.87,4.58-5.01,6.8-7.57,2.78-3.19,5.62-6.33,8.43-9.51,2.91-3.29,5.81-6.6,8.72-9.89,2.14-2.42,4.3-4.81,6.43-7.24,2.52-2.87,5.01-5.76,7.52-8.63,1.02-1.17,2.05-2.32,3.08-3.48.25-.25.49-.51.74-.76Z"/>
    <path class="cls-1" d="m1340.62,412.78c-.2,3.51-.23,4.82-.23,4.82-.04,2.04.06,2.2.06,4.41,0,2.43-.13,4.18-.18,4.99-.28,4.68-.22,13.57-.19,17.64.08,12.92,0,18.45,0,25.36.03,40.99.05,81.99.08,122.98,0,2.09,0,2.11-2.12,2.12-15.37.02-30.76.54-46.12.06,0,0-.08,0-15.47.11,0,0,.52-.01.52-.01,0,0-2.69.11-5.66,0-4.16-.17-4.71-.61-4.99-.92-.59-.65-.68-1.93-.86-4.5-.1-1.45-.13-3.46-.13-3.46h0c-.19-39.7-.22-40.24-.22-40.24-.5-14.36-.02-28.72-.64-43.07-.14-3.36,1.31-5.52,3.32-7.77,2.73-3.06,5.28-6.27,7.92-9.4.51-.6,1.06-1.18,1.58-1.76,3.39-3.77,6.77-7.55,10.17-11.32,3.08-3.43,6.18-6.83,9.24-10.27,2.42-2.73,4.78-5.51,7.19-8.25,2.66-3.02,5.34-6.02,8.02-9.03,2.73-3.07,5.47-6.13,8.19-9.21,2.31-2.61,4.6-5.23,6.88-7.86,3.48-4.01,3.89-4.57,6.15-7.16,1.72-1.96,4.26-4.82,7.48-8.25Z"/>
    <path class="cls-1" d="m729.71,563.88c.79-7.18,7.07-13.83,14.97-13.59,8.11.24,14.14,7.61,14.15,15.31,0,8.02-6.55,15.34-14.56,15.36-8.73.02-15.49-8.63-14.56-17.08Z"/>
    <path class="cls-1" d="m590.78,571.89c-1.75,0-3.5-.04-5.24.01-1.14.03-1.55-.52-1.34-1.52.2-1,.55-1.97.83-2.95.08-.27.18-.55.26-.82.67-2.28,1.37-4.55,2-6.84.87-3.13,1.67-6.28,2.55-9.41.12-.43.57-.77.86-1.15.2.3.47.58.64.88,0,0,.08.15.14.32,1.3,3.59,2.82,8.82,2.82,8.82s1.97,6.79,2.98,11.34c.04.18.13.63-.11.94-.27.34-.81.33-1.03.32-1.01-.02-2.88.01-5.37.05Z"/>
    <path class="cls-1" d="m1157.22,520.83c-24.28,0-48.57,0-72.85,0-1.99,0-2.02-.04-2.03-2.02,0-2.04-.04-4.08-.03-6.12.01-2.47.16-2.61,2.59-2.62,10.08-.02,20.16-.04,30.24-.05,15.62-.01,29.81.08,29.81.09,0,0-.07,0-.07,0,0,0,16.79-.51,33.26-.63,19.6-.13,16.08.44,27.02.12,0,0,18.46-.54,31.33-.26.11,0,.11,0,.47.01,3.19.08,3.79,0,3.97.34.22.4-.34,1.1-.93,1.82-3.78,4.65-3.42,4.32-3.7,4.59-2.79,2.72-5.86,4.74-5.86,4.74h0s-21.1,0-31.61,0c-13.87,0-27.74,0-41.61,0Z"/>
    <path class="cls-1" d="m1150.84,534.26c22.98-.01,45.96-.03,68.94-.04-.79.91-1.41,1.66-1.81,2.16-.1.13-2.5,2.92-7.26,8.54-.62.73-1.35.96-2.3.96-29.37-.09-58.75-.17-88.12-.2-11.67-.01-23.33.09-35,.14-1.97,0-2.77-.82-2.74-2.76.04-2.33,0-4.67.07-7,.05-1.59.26-1.74,1.83-1.79,1.17-.03,2.34-.17,3.5-.02,1.52.2,18.19.25,62.87,0Z"/>
    <path class="cls-1" d="m1139.34,559.31c17.2,0,34.41,0,51.61,0,1.21,0,2.41.14,3.62.15.96,0,1.08.55.77,1.22-.23.51-.66.95-1.03,1.39-1.51,1.82-3.11,3.57-4.53,5.46-1.23,1.64-2.86,2.24-4.76,2.24-6.54.02-13.08-.04-19.61-.04-10.08,0-20.16.02-30.24.03-16.78.02-33.57.06-50.35.03-.88,0-1.8-.43-2.62-.82-.3-.14-.53-.76-.53-1.17,0-2.08.08-4.16.12-6.23.03-1.42.47-1.97,1.84-2.17.61-.09,1.24-.1,1.87-.1,17.95,0,35.91,0,53.86,0h0Z"/>
    <path class="cls-1" d="m843.91,425.89c.25-.45,3.22-5.67,9.04-5.72,5.8-.05,8.86,5.1,9.15,5.6,1.91,3.33,2.14,7.82-.15,11.39-2.43,3.78-6.45,4.57-7,4.67-3.67.66-7.47-.71-9.89-3.49-3.12-3.6-3.18-8.72-1.14-12.45Z"/>
    <path class="cls-1" d="m1168.8,494.96c4.01-4.74,6.92-8.17,7.73-9.16.11-.14.46-.43.9-.83.49-.44,1.34-.68,2.02-.68,3.94,0,56.23-.03,56.23-.03,10.12,0,15.35.03,15.35.03,1.15-.04,2.31-.03,3.46-.07,5.11-.17,7.2-.53,7.53.24.14.34-.08.73-1.09,1.92-2.03,2.41-4.04,4.83-6.04,7.27-.91,1.12-1.96,1.51-3.45,1.5-22.45-.07-44.9-.06-67.35-.07-4.37,0-8.75,0-13.12-.03-.69,0-1.39-.06-2.18-.1Z"/>
    <path class="cls-1" d="m1192.31,469.15s6.16-6.89,7.91-8.82c.13-.14.42-.47.91-.73.54-.3,1.16-.42,1.86-.42,3.85,0,68.54.18,79.72.11,1.23,0,2.22-.02,2.82-.03-.25.27-.77.83-1.39,1.56-3.78,4.48-4.4,7.35-7.69,9.18-.76.42-1.33.81-1.93.81-16.28-.03-32.57-.07-48.85-.21-10.55-.09-21.11-.98-31.65-.53-.34.01-1.83.1-1.97-.36-.06-.19.13-.41.27-.56Z"/>
    <path class="cls-1" d="m1237.04,419.8c7.84-9.2,8.65-10.14,8.65-10.14,0,0,2.15-.58,2.19-.58,20.91.02,41.81.08,62.72.13,5.79.01,11.58.03,17.37.05,1.47,0,1.82.64,1.09,1.94-.06.11-.14.21-.22.3-2.32,2.77-4.6,5.56-6.98,8.27-.43.48-1.27.85-1.92.85-14.33.04-28.65.1-42.98-.02-12.73-.11-25.46-.45-38.18-.7-.49,0-.98-.05-1.72-.09Z"/>
    <path class="cls-1" d="m1216.48,444.93h0c.82-1.2,3.06-3.91,7.52-9.33.17-.21.6-.71,1.31-1.05.8-.38,1.54-.34,1.71-.34,25.57.46,51.14,0,76.71.08.8,0,3.5-.02,3.78.95.14.49-.4.99-1.18,1.78-1.38,1.4-6.3,6.54-7.19,7.52-.16.17-.57.64-1.26.91-.36.14-.77.22-1.23.21-6.62-.05-13.25.02-19.87-.05-15.65-.16-31.29-.37-46.94-.55-1.29-.01-5.76.12-11.74-.07-.69-.02-1.26-.04-1.63-.06Z"/>
    <path class="cls-1" d="m1115.69,444.87c-10.28,0-20.57,0-30.85,0-2.21,0-2.23,0-2.22-2.22,0-2.41.08-4.82.06-7.24,0-1,.52-1.29,1.37-1.31.58-.01,1.16-.05,1.75-.05,19.94,0,39.89-.01,59.83-.01,2.75,0,2.75.01,2.76,2.72,0,2.12.02,4.25,0,6.37,0,1.73-.03,1.75-1.72,1.75-10.33,0-20.65,0-30.98,0Z"/>
    <path class="cls-1" d="m1148.16,469.89c-21.9.17-43.81.34-65.71.51.03-.5.06-1.27.09-2.19.01-.41.06-1.8.07-3.31.02-2.59.13-5,.13-5h0s22.99-.14,65.35-.4c.02,3.47.04,6.93.06,10.4Z"/>
    <path class="cls-1" d="m1083.3,418.95c0-2.97,0-5.96,0-8.96,0-1.05.44-1.64,1.53-1.66.42,0,.83-.05,1.25-.05,19.61-.09,39.23-.18,58.84-.26,1.04,0,2.09,0,3.11.16.34.05.86.58.87.9.1,3.07.13,6.15.13,9.23,0,.24-.3.65-.53.7-1.08.26-2.18.6-3.27.6-18.78.03-37.56,0-56.35.02-1.86,0-3.74.39-5.57-.69Z"/>
    <path class="cls-1" d="m1148.25,484.34c-.06,1.05-.05,1.89-.04,2.42.05,2.33-.05,4.67-.01,7,.01.82-.27,1.12-1.07,1.11-1.71-.03-3.42,0-5.12,0-19.21,0-38.41,0-57.62,0-1.92,0-1.87,0-1.82-1.94.05-2.21,0-4.41,0-6.62.01-1.95.1-2.06,2.05-2.06,18.37,0,36.75,0,55.12,0,.35,0,2.69-.02,5.87.03,1.07.02,1.97.04,2.63.05Z"/>
  </g>
  <path class="cls-1" d="m1238.93,641.91c-196.66,0-393.32,0-589.99,0"/>
  <path class="cls-1" d="m1129.55,577.23h0c-15.85.01-31.71,0-47.56.02-.97,0-1.93.11-2.9.21-.75.08-1.26.59-1.27,1.78-.01,5.65-.04,11.3.03,16.95,0,.61.58,1.52,1.01,1.72.77.34,1.64.31,2.46.31,21.81.01,43.62,0,65.43,0,6.96,0,13.92-.06,20.87,0,1.6.02,2.85-.59,3.88-2.46,1.62-2.95,3.33-5.79,5.01-8.67,1.07-1.84,2.25-3.57,3.2-5.53.38-.78.5-2.12.34-3.05-.1-.58-.96-1.19-1.49-1.22-2.14-.14-4.29-.06-6.43-.06-14.19,0-28.39,0-42.58,0Z"/>
  <path d="m1129.4,577.03c14.19,0,28.39,0,42.58,0,2.14,0,4.29-.08,6.43.06.53.04,1.39.65,1.49,1.22.17.93.04,2.28-.34,3.05-.95,1.96-2.13,3.69-3.2,5.53-1.68,2.88-3.39,5.72-5.01,8.67-1.03,1.87-2.28,2.48-3.88,2.46-6.96-.07-13.92,0-20.87,0-21.81,0-43.62.01-65.43,0-.83,0-1.69.03-2.46-.31-.43-.19-1.01-1.11-1.01-1.72-.08-5.65-.05-11.3-.03-16.95,0-1.18.52-1.7,1.27-1.78.97-.1,1.93-.21,2.9-.21,15.85-.01,31.71,0,47.56,0h0Zm-1.09,4.14h0c-14.92,0-29.84,0-44.76,0-.52,0-1.04.02-1.55.12-1.14.24-1.5.91-1.53,2.63-.04,2.52-.11,5.04-.1,7.56,0,.49.19,1.24.44,1.42.68.48,1.45,1,2.18,1,13.95.03,27.9-.01,41.85-.04,8.38-.02,16.75-.04,25.13-.04,5.43,0,10.87.07,16.3.05,1.58,0,2.93-.73,3.95-2.72,1.18-2.29,2.51-4.41,3.76-6.62.31-.54.67-1.06.86-1.69.25-.81.15-1.47-.64-1.48-1-.01-2-.18-3.01-.19-14.3-.01-28.59,0-42.89,0Z"/>
  <path class="cls-1" d="m1128.32,581.17c14.3,0,28.59,0,42.89,0,1,0,2,.17,3.01.19.8.01.89.67.64,1.48-.19.62-.55,1.15-.86,1.69-1.26,2.2-2.59,4.33-3.76,6.62-1.02,1.99-2.38,2.71-3.95,2.72-5.43.02-10.87-.05-16.3-.05-8.38,0-16.75.02-25.13.04-13.95.03-27.9.07-41.85.04-.73,0-1.5-.52-2.18-1-.25-.18-.44-.93-.44-1.42,0-2.52.06-5.04.1-7.56.03-1.72.39-2.39,1.53-2.63.51-.11,1.03-.12,1.55-.12,14.92,0,29.84,0,44.76,0h0Z"/>
</svg>